{
.appVersion = "3151";
.formatVersion = 3;
customParameters = (
{
name = "Use Typo Metrics";
value = 1;
},
{
name = fsType;
value = (
);
}
);
date = "2022-07-30 15:19:26 +0000";
familyName = "Instrument Serif";
featurePrefixes = (
{
automatic = 1;
code = "languagesystem DFLT dflt;

languagesystem latn dflt;
languagesystem latn AZE;
languagesystem latn CRT;
languagesystem latn KAZ;
languagesystem latn TAT;
languagesystem latn TRK;
languagesystem latn ROM;
languagesystem latn MOL;
languagesystem latn CAT;
";
name = Languagesystems;
}
);
features = (
{
automatic = 1;
code = "feature locl;
feature ordn;
feature case;
feature ss01;
";
tag = aalt;
},
{
automatic = 1;
code = "lookup ccmp_Other_1 {
	@CombiningTopAccents = [acutecomb brevecomb caroncomb circumflexcomb commaturnedabovecomb dieresiscomb dotaccentcomb gravecomb hungarumlautcomb macroncomb ringcomb tildecomb];
	@CombiningNonTopAccents = [cedillacomb ogonekcomb];
	sub [i j]' @CombiningTopAccents by [idotless jdotless];
	sub [i j]' @CombiningNonTopAccents @CombiningTopAccents by [idotless jdotless];
} ccmp_Other_1;
";
tag = ccmp;
},
{
automatic = 1;
code = "lookup locl_latn_0 {
	script latn;
	language AZE;
	sub i by idotaccent;
	language CRT;
	sub i by idotaccent;
	language KAZ;
	sub i by idotaccent;
	language TAT;
	sub i by idotaccent;
	language TRK;
	sub i by idotaccent;
} locl_latn_0;

lookup locl_latn_1 {
	script latn;
	language ROM;
	sub Scedilla by Scommaaccent;
	sub scedilla by scommaaccent;
	language MOL;
	sub Scedilla by Scommaaccent;
	sub scedilla by scommaaccent;
} locl_latn_1;

lookup locl_latn_2 {
	script latn;
	language CAT;
	sub l periodcentered' l by periodcentered.loclCAT;
	sub L periodcentered' L by periodcentered.loclCAT.case;
} locl_latn_2;
";
tag = locl;
},
{
automatic = 1;
code = "sub [zero one two three four five six seven eight nine] [A a]' by ordfeminine;
sub [zero one two three four five six seven eight nine] [O o]' by ordmasculine;
";
tag = ordn;
},
{
automatic = 1;

glyphs = (
{
glyphname = A;
kernLeft = A;
kernRight = A;
lastChange = "2022-09-01 21:01:03 +0000";
layers = (
{
anchors = (
{
name = bottom;
pos = (229,0);
},
{
name = ogonek;
pos = (421,0);
},
{
name = top;
pos = (229,720);
}
);
layerId = m01;
shapes = (
{
closed = 1;
nodes = (
(137,0,ls),
(146,0,o),
(151,4,o),
(151,11,cs),
(151,17,o),
(146,21,o),
(134,23,cs),
(119,25,ls),
(88,29,o),
(79,50,o),
(89,88,cs),
(123,222,ls),
(128,240,o),
(138,248,o),
(156,248,cs),
(261,248,ls),
(279,248,o),
(290,239,o),
(294,222,cs),
(332,67,ls),
(339,38,o),
(334,27,o),
(311,25,cs),
(292,23,ls),
(280,22,o),
(275,17,o),
(275,11,cs),
(275,4,o),
(280,0,o),
(289,0,cs),
(460,0,ls),
(469,0,o),
(475,3,o),
(475,10,cs),
(475,17,o),
(470,21,o),
(461,23,cs),
(446,26,ls),
(420,31,o),
(411,43,o),
(402,80,cs),
(244,714,ls),
(241,727,o),
(234,730,o),
(228,730,cs),
(223,730,o),
(216,727,o),
(213,714,cs),
(58,89,ls),
(49,52,o),
(37,31,o),
(11,26,cs),
(-4,23,ls),
(-13,21,o),
(-18,17,o),
(-18,10,cs),
(-18,3,o),
(-12,0,o),
(-3,0,cs)
);
},
{
closed = 1;
nodes = (
(143,278,o),
(138,285,o),
(140,295,cs),
(207,563,l),
(212,563,l),
(276,295,ls),
(278,285,o),
(273,278,o),
(263,278,cs),
(153,278,ls)
);
}
);
width = 457;
}
);
unicode = 65;
},
{
glyphname = AE;
kernRight = E;
lastChange = "2022-08-23 19:51:09 +0000";
layers = (
{
background = {
shapes = (
{
closed = 1;
nodes = (
(153,0,ls),
(162,0,o),
(167,4,o),
(167,11,cs),
(167,17,o),
(162,21,o),
(150,23,cs),
(135,25,ls),
(104,29,o),
(95,50,o),
(105,88,cs),
(139,222,ls),
(144,240,o),
(154,248,o),
(172,248,cs),
(277,248,ls),
(295,248,o),
(306,239,o),
(310,222,cs),
(348,67,l),
(418,80,l),
(260,714,ls),
(257,727,o),
(250,730,o),
(244,730,cs),
(239,730,o),
(232,727,o),
(229,714,cs),
(74,89,ls),
(65,52,o),
(53,31,o),
(27,26,cs),
(12,23,ls),
(3,21,o),
(-2,17,o),
(-2,10,cs),
(-2,3,o),
(4,0,o),
(13,0,cs)
);
},
{
closed = 1;
nodes = (
(159,278,o),
(154,285,o),
(156,295,cs),
(223,563,l),
(228,563,l),
(292,295,ls),
(294,285,o),
(289,278,o),
(279,278,cs),
(169,278,ls)
);
},
{
closed = 1;
nodes = (
(710,0,ls),
(725,0,o),
(734,8,o),
(735,23,cs),
(745,201,ls),
(746,212,o),
(740,218,o),
(733,218,cs),
(725,218,o),
(720,213,o),
(718,205,cs),
(706,146,ls),
(687,53,o),
(638,25,o),
(571,25,cs),
(506,25,o),
(485,45,o),
(485,93,cs),
(485,344,ls),
(485,353,o),
(490,358,o),
(499,358,cs),
(548,358,ls),
(578,358,o),
(594,347,o),
(603,301,cs),
(613,252,ls),
(615,244,o),
(622,238,o),
(630,239,cs),
(637,240,o),
(641,245,o),
(641,256,cs),
(641,481,ls),
(641,492,o),
(637,497,o),
(630,498,cs),
(622,499,o),
(615,493,o),
(613,485,cs),
(603,435,ls),
(596,402,o),
(579,388,o),
(549,388,cs),
(499,388,ls),
(490,388,o),
(485,393,o),
(485,402,cs),
(485,643,ls),
(485,681,o),
(502,695,o),
(556,695,cs),
(636,695,o),
(680,654,o),
(695,564,cs),
(701,527,ls),
(702,519,o),
(707,514,o),
(715,514,cs),
(723,514,o),
(729,520,o),
(728,531,cs),
(720,697,ls),
(719,712,o),
(710,720,o),
(695,720,cs),
(359,720,ls),
(349,720,o),
(344,716,o),
(344,709,cs),
(344,703,o),
(348,699,o),
(357,697,cs),
(380,693,ls),
(408,688,o),
(414,682,o),
(414,654,cs),
(414,66,ls),
(414,38,o),
(408,32,o),
(380,27,cs),
(357,23,ls),
(348,21,o),
(344,17,o),
(344,11,cs),
(344,4,o),
(349,0,o),
(359,0,cs)
);
}
);
};
layerId = m01;
shapes = (
{
closed = 1;
nodes = (
(147,0,ls),
(158,0,o),
(163,4,o),
(163,11,cs),
(163,17,o),
(158,21,o),
(146,23,cs),
(130,25,ls),
(99,29,o),
(93,53,o),
(111,88,cs),
(241,348,ls),
(244,355,o),
(250,358,o),
(257,358,cs),
(400,358,ls),
(409,358,o),
(414,353,o),
(414,344,cs),
(414,66,ls),
(414,38,o),
(408,32,o),
(380,27,cs),
(357,23,ls),
(348,21,o),
(344,17,o),
(344,11,cs),
(344,4,o),
(349,0,o),
(359,0,cs),
(710,0,ls),
(725,0,o),
(734,8,o),
(735,23,cs),
(745,201,ls),
(746,212,o),
(740,218,o),
(733,218,cs),
(725,218,o),
(720,213,o),
(718,205,cs),
(706,146,ls),
(687,53,o),
(638,25,o),
(571,25,cs),
(506,25,o),
(485,45,o),
(485,93,cs),
(485,344,ls),
(485,353,o),
(490,358,o),
(499,358,cs),
(548,358,ls),
(578,358,o),
(594,347,o),
(603,301,cs),
(613,252,ls),
(615,244,o),
(622,238,o),
(630,239,cs),
(637,240,o),
(641,245,o),
(641,256,cs),
(641,481,ls),
(641,492,o),
(637,497,o),
(630,498,cs),
(622,499,o),
(615,493,o),
(613,485,cs),
(603,435,ls),
(596,402,o),
(579,388,o),
(549,388,cs),
(499,388,ls),
(490,388,o),
(485,393,o),
(485,402,cs),
(485,643,ls),
(485,681,o),
(502,695,o),
(556,695,cs),
(636,695,o),
(680,654,o),
(695,564,cs),
(701,527,ls),
(702,519,o),
(707,514,o),
(715,514,cs),
(723,514,o),
(729,520,o),
(728,531,cs),
(720,697,ls),
(719,712,o),
(710,720,o),
(695,720,cs),
(315,720,ls),
(305,720,o),
(300,716,o),
(300,709,cs),
(300,703,o),
(304,699,o),
(313,697,cs),
(336,692,ls),
(364,686,o),
(374,682,o),
(360,654,cs),
(78,89,ls),
(61,54,o),
(37,31,o),
(11,26,cs),
(-4,23,ls),
(-13,21,o),
(-18,18,o),
(-18,11,cs),
(-18,4,o),
(-12,0,o),
(-3,0,cs)
);
},
{
closed = 1;
nodes = (
(400,667,ls),
(405,678,o),
(414,676,o),
(414,664,cs),
(414,402,ls),
(414,393,o),
(409,388,o),
(400,388,cs),
(279,388,ls),
(269,388,o),
(265,396,o),
(269,405,cs)
);
}
);
width = 778;
}
);
metricLeft = A;
metricRight = E;
unicode = 198;
},
{
glyphname = B;
kernLeft = H;
lastChange = "2022-09-01 21:00:59 +0000";
layers = (
{
background = {
shapes = (
{
closed = 1;
nodes = (
(241,0,ls),
(361,0,o),
(450,85,o),
(450,204,cs),
(450,302,o),
(388,377,o),
(294,401,c),
(294,406,l),
(366,437,o),
(410,495,o),
(410,560,cs),
(410,652,o),
(337,720,o),
(237,720,cs),
(34,720,ls),
(24,720,o),
(19,716,o),
(19,709,cs),
(19,702,o),
(23,699,o),
(32,697,cs),
(55,693,ls),
(83,688,o),
(89,682,o),
(89,654,cs),
(89,66,ls),
(89,38,o),
(83,32,o),
(55,27,cs),
(32,23,ls),
(23,21,o),
(19,18,o),
(19,11,cs),
(19,4,o),
(24,0,o),
(34,0,cs)
);
},
{
closed = 1;
nodes = (
(181,25,o),
(160,47,o),
(160,94,cs),
(160,337,ls),
(160,371,o),
(179,386,o),
(222,386,cs),
(315,386,o),
(375,318,o),
(375,207,cs),
(375,96,o),
(315,25,o),
(228,25,cs)
);
},
{
closed = 1;
nodes = (
(176,411,o),
(160,427,o),
(160,466,cs),
(160,655,ls),
(160,682,o),
(177,695,o),
(213,695,cs),
(287,695,o),
(337,639,o),
(337,556,cs),
(337,473,o),
(284,411,o),
(213,411,cs)
);
}
);
};
layerId = m01;
shapes = (
{
closed = 1;
nodes = (
(241,0,ls),
(361,0,o),
(450,85,o),
(450,204,cs),
(450,296,o),
(398,366,o),
(308,397,cs),
(298,400,o),
(299,408,o),
(307,412,cs),
(373,446,o),
(410,500,o),
(410,560,cs),
(410,652,o),
(337,720,o),
(237,720,cs),
(34,720,ls),
(24,720,o),
(19,716,o),
(19,709,cs),
(19,702,o),
(23,699,o),
(32,697,cs),
(55,693,ls),
(83,688,o),
(89,682,o),
(89,654,cs),
(89,66,ls),
(89,38,o),
(83,32,o),
(55,27,cs),
(32,23,ls),
(23,21,o),
(19,18,o),
(19,11,cs),
(19,4,o),
(24,0,o),
(34,0,cs)
);
},
{
closed = 1;
nodes = (
(181,25,o),
(160,47,o),
(160,94,cs),
(160,337,ls),
(160,371,o),
(179,386,o),
(222,386,cs),
(315,386,o),
(375,318,o),
(375,207,cs),
(375,96,o),
(315,25,o),
(228,25,cs)
);
},
{
closed = 1;
nodes = (
(176,411,o),
(160,427,o),
(160,466,cs),
(160,655,ls),
(160,682,o),
(177,695,o),
(213,695,cs),
(287,695,o),
(337,639,o),
(337,556,cs),
(337,473,o),
(284,411,o),
(213,411,cs)
);
}
);
width = 478;
}
);
unicode = 66;
},
{
glyphname = C;
kernLeft = O;
kernRight = C;
lastChange = "2022-09-01 20:50:49 +0000";
layers = (
{
anchors = (
{
name = bottom;
pos = (276,0);
},
{
name = top;
pos = (280,720);
}
);
background = {
shapes = (
{
closed = 1;
nodes = (
(350,-9,o),
(391,2,o),
(423,18,cs),
(432,23,o),
(433,28,o),
(434,39,cs),
(442,201,ls),
(443,212,o),
(438,217,o),
(431,218,cs),
(423,219,o),
(417,214,o),
(415,205,cs),
(406,156,ls),
(386,49,o),
(346,18,o),
(286,18,cs),
(198,18,o),
(118,139,o),
(118,364,cs),
(118,582,o),
(188,703,o),
(286,703,cs),
(336,703,o),
(375,671,o),
(397,565,cs),
(405,526,ls),
(407,517,o),
(413,512,o),
(421,513,cs),
(428,514,o),
(432,519,o),
(432,530,cs),
(427,682,ls),
(427,693,o),
(425,698,o),
(416,703,cs),
(384,719,o),
(343,730,o),
(289,730,cs),
(150,730,o),
(40,584,o),
(40,364,cs),
(40,137,o),
(138,-9,o),
(286,-9,cs)
);
}
);
};
layerId = m01;
shapes = (
{
closed = 1;
nodes = (
(350,-9,o),
(391,2,o),
(423,18,cs),
(432,23,o),
(436,28,o),
(436,39,cs),
(440,201,ls),
(440,212,o),
(436,217,o),
(429,218,cs),
(421,219,o),
(415,214,o),
(413,205,cs),
(401,156,ls),
(375,49,o),
(342,20,o),
(282,20,cs),
(198,20,o),
(118,139,o),
(118,364,cs),
(118,582,o),
(188,701,o),
(281,701,cs),
(331,701,o),
(367,667,o),
(395,563,cs),
(405,526,ls),
(407,517,o),
(411,513,o),
(419,513,cs),
(427,513,o),
(431,519,o),
(431,530,cs),
(428,682,ls),
(428,693,o),
(425,698,o),
(416,703,cs),
(384,719,o),
(343,730,o),
(289,730,cs),
(150,730,o),
(40,584,o),
(40,364,cs),
(40,137,o),
(138,-9,o),
(286,-9,cs)
);
}
);
width = 480;
}
);
unicode = 67;
},
{
glyphname = D;
kernLeft = H;
kernRight = O;
lastChange = "2022-09-01 20:50:56 +0000";
layers = (
{
anchors = (
{
name = bottom;
pos = (265,0);
},
{
name = center;
pos = (265,360);
},
{
name = top;
pos = (255,720);
}
);
background = {
shapes = (
{
closed = 0;
nodes = (
(221,27,l),
(194,27,ls),
(166,27,o),
(160,39,o),
(160,67,cs),
(160,653,ls),
(160,681,o),
(166,689,o),
(194,693,cs),
(221,697,ls),
(228,698,o),
(232,702,o),
(232,708,cs),
(232,716,o),
(227,720,o),
(217,720,cs),
(34,720,ls),
(24,720,o),
(19,716,o),
(19,709,cs),
(19,703,o),
(23,699,o),
(32,697,cs),
(55,693,ls),
(83,688,o),
(89,682,o),
(89,654,cs),
(89,66,ls),
(89,38,o),
(83,32,o),
(55,27,cs),
(32,23,ls),
(23,21,o),
(19,17,o),
(19,11,cs),
(19,4,o),
(24,0,o),
(34,0,cs),
(270,0,ls),
(398,0,o),
(500,152,o),
(500,361,cs),
(500,568,o),
(398,720,o),
(270,720,cs)
);
},
{
closed = 0;
nodes = (
(270,693,l),
(364,693,o),
(422,591,o),
(422,361,cs),
(422,129,o),
(364,27,o),
(270,27,cs)
);
}
);
};
layerId = m01;
shapes = (
{
closed = 1;
nodes = (
(226,0,ls),
(387,0,o),
(490,139,o),
(490,357,cs),
(490,573,o),
(392,720,o),
(236,720,cs),
(34,720,ls),
(24,720,o),
(19,716,o),
(19,709,cs),
(19,702,o),
(23,699,o),
(32,697,cs),
(55,693,ls),
(83,688,o),
(89,682,o),
(89,654,cs),
(89,66,ls),
(89,42,o),
(79,31,o),
(55,27,cs),
(32,23,ls),
(23,21,o),
(19,18,o),
(19,11,cs),
(19,4,o),
(24,0,o),
(34,0,cs)
);
},
{
closed = 1;
nodes = (
(180,26,o),
(160,46,o),
(160,99,cs),
(160,621,ls),
(160,669,o),
(187,694,o),
(236,694,cs),
(352,694,o),
(412,570,o),
(412,357,cs),
(412,142,o),
(348,26,o),
(230,26,cs)
);
}
);
width = 530;
}
);
unicode = 68;
},
{
glyphname = Eth;
kernLeft = H;
kernRight = O;
lastChange = "2022-08-23 19:52:33 +0000";
layers = (
{
layerId = m01;
shapes = (
{
ref = D;
},
{
closed = 1;
nodes = (
(284,358,ls),
(290,358,o),
(294,362,o),
(294,368,cs),
(294,376,ls),
(294,382,o),
(290,386,o),
(284,386,cs),
(29,386,ls),
(23,386,o),
(19,382,o),
(19,376,cs),
(19,368,ls),
(19,362,o),
(23,358,o),
(29,358,cs)
);
}
);
width = 530;
}
);
unicode = 208;
},
{
glyphname = E;
kernLeft = H;
kernRight = E;
lastChange = "2022-09-01 20:51:22 +0000";
layers = (
{
anchors = (
{
name = bottom;
pos = (227,0);
},
{
name = ogonek;
pos = (385,0);
},
{
name = top;
pos = (227,720);
},
{
name = topleft;
pos = (20,720);
}
);
background = {
shapes = (
{
closed = 1;
nodes = (
(385,0,ls),
(400,0,o),
(409,8,o),
(410,23,cs),
(420,201,ls),
(421,212,o),
(415,218,o),
(408,218,cs),
(400,218,o),
(395,213,o),
(393,205,cs),
(378,128,ls),
(362,45,o),
(316,25,o),
(246,25,cs),
(181,25,o),
(160,45,o),
(160,93,cs),
(160,344,ls),
(160,353,o),
(165,358,o),
(174,358,cs),
(226,358,ls),
(256,358,o),
(273,347,o),
(281,301,cs),
(289,252,ls),
(290,244,o),
(297,238,o),
(305,239,cs),
(312,240,o),
(316,245,o),
(316,256,cs),
(316,481,ls),
(316,492,o),
(312,497,o),
(305,498,cs),
(297,499,o),
(290,493,o),
(289,485,cs),
(281,435,ls),
(276,402,o),
(257,388,o),
(227,388,cs),
(174,388,ls),
(165,388,o),
(160,393,o),
(160,402,cs),
(160,643,ls),
(160,681,o),
(177,695,o),
(231,695,cs),
(301,695,o),
(357,674,o),
(369,582,cs),
(376,527,ls),
(377,519,o),
(382,514,o),
(390,514,cs),
(398,514,o),
(404,520,o),
(403,531,cs),
(395,697,ls),
(394,712,o),
(385,720,o),
(370,720,cs),
(34,720,ls),
(24,720,o),
(19,716,o),
(19,709,cs),
(19,703,o),
(23,699,o),
(32,697,cs),
(55,693,ls),
(83,688,o),
(89,682,o),
(89,654,cs),
(89,66,ls),
(89,38,o),
(83,32,o),
(55,27,cs),
(32,23,ls),
(23,21,o),
(19,17,o),
(19,11,cs),
(19,4,o),
(24,0,o),
(34,0,cs)
);
}
);
};
layerId = m01;
shapes = (
{
closed = 1;
nodes = (
(385,0,ls),
(400,0,o),
(409,8,o),
(410,23,cs),
(420,201,ls),
(421,212,o),
(415,218,o),
(408,218,cs),
(400,218,o),
(395,213,o),
(393,205,cs),
(381,146,ls),
(362,53,o),
(313,25,o),
(246,25,cs),
(181,25,o),
(160,45,o),
(160,93,cs),
(160,344,ls),
(160,353,o),
(165,358,o),
(174,358,cs),
(223,358,ls),
(253,358,o),
(269,347,o),
(278,301,cs),
(288,252,ls),
(290,244,o),
(297,238,o),
(305,239,cs),
(312,240,o),
(316,245,o),
(316,256,cs),
(316,481,ls),
(316,492,o),
(312,497,o),
(305,498,cs),
(297,499,o),
(290,493,o),
(288,485,cs),
(278,435,ls),
(271,402,o),
(254,388,o),
(224,388,cs),
(174,388,ls),
(165,388,o),
(160,393,o),
(160,402,cs),
(160,643,ls),
(160,681,o),
(177,695,o),
(231,695,cs),
(311,695,o),
(355,654,o),
(370,564,cs),
(376,527,ls),
(377,519,o),
(382,514,o),
(390,514,cs),
(398,514,o),
(404,520,o),
(403,531,cs),
(395,697,ls),
(394,712,o),
(385,720,o),
(370,720,cs),
(34,720,ls),
(24,720,o),
(19,716,o),
(19,709,cs),
(19,703,o),
(23,699,o),
(32,697,cs),
(55,693,ls),
(83,688,o),
(89,682,o),
(89,654,cs),
(89,66,ls),
(89,38,o),
(83,32,o),
(55,27,cs),
(32,23,ls),
(23,21,o),
(19,17,o),
(19,11,cs),
(19,4,o),
(24,0,o),
(34,0,cs)
);
}
);
width = 453;
}
);
unicode = 69;
},
{
glyphname = F;
kernLeft = H;
lastChange = "2022-09-01 20:52:39 +0000";
layers = (
{
background = {
shapes = (
{
closed = 1;
nodes = (
(237,0,ls),
(247,0,o),
(252,4,o),
(252,12,cs),
(252,18,o),
(248,22,o),
(241,23,cs),
(194,30,ls),
(166,34,o),
(160,43,o),
(160,71,cs),
(160,344,ls),
(160,353,o),
(165,358,o),
(174,358,cs),
(211,358,ls),
(241,358,o),
(258,347,o),
(266,301,cs),
(274,253,ls),
(275,245,o),
(282,239,o),
(290,240,cs),
(297,241,o),
(301,246,o),
(301,257,cs),
(301,480,ls),
(301,491,o),
(297,496,o),
(290,497,cs),
(282,498,o),
(275,492,o),
(274,484,cs),
(266,435,ls),
(261,402,o),
(242,388,o),
(212,388,cs),
(174,388,ls),
(165,388,o),
(160,393,o),
(160,402,cs),
(160,638,ls),
(160,676,o),
(177,695,o),
(236,695,cs),
(292,695,o),
(343,674,o),
(355,582,cs),
(362,527,ls),
(363,519,o),
(368,514,o),
(376,514,cs),
(384,514,o),
(390,520,o),
(389,531,cs),
(381,697,ls),
(380,712,o),
(371,720,o),
(356,720,cs),
(34,720,ls),
(24,720,o),
(19,716,o),
(19,709,cs),
(19,703,o),
(23,699,o),
(32,697,cs),
(55,693,ls),
(83,688,o),
(89,682,o),
(89,654,cs),
(89,66,ls),
(89,38,o),
(83,32,o),
(55,27,cs),
(32,23,ls),
(23,21,o),
(19,17,o),
(19,11,cs),
(19,4,o),
(24,0,o),
(34,0,cs)
);
}
);
};
layerId = m01;
shapes = (
{
closed = 1;
nodes = (
(237,0,ls),
(247,0,o),
(252,4,o),
(252,12,cs),
(252,18,o),
(248,22,o),
(241,23,cs),
(194,30,ls),
(166,34,o),
(160,43,o),
(160,71,cs),
(160,344,ls),
(160,353,o),
(165,358,o),
(174,358,cs),
(208,358,ls),
(238,358,o),
(253,347,o),
(263,301,cs),
(274,252,ls),
(276,244,o),
(281,239,o),
(289,239,cs),
(296,239,o),
(301,245,o),
(301,256,cs),
(301,481,ls),
(301,492,o),
(296,498,o),
(289,498,cs),
(281,498,o),
(276,493,o),
(274,485,cs),
(263,435,ls),
(256,402,o),
(239,388,o),
(209,388,cs),
(174,388,ls),
(165,388,o),
(160,393,o),
(160,402,cs),
(160,638,ls),
(160,676,o),
(177,695,o),
(236,695,cs),
(282,695,o),
(341,663,o),
(357,560,cs),
(362,527,ls),
(363,519,o),
(368,514,o),
(376,514,cs),
(384,514,o),
(390,520,o),
(389,531,cs),
(381,697,ls),
(380,712,o),
(371,720,o),
(356,720,cs),
(34,720,ls),
(24,720,o),
(19,716,o),
(19,709,cs),
(19,703,o),
(23,699,o),
(32,697,cs),
(55,693,ls),
(83,688,o),
(89,682,o),
(89,654,cs),
(89,66,ls),
(89,38,o),
(83,32,o),
(55,27,cs),
(32,23,ls),
(23,21,o),
(19,17,o),
(19,11,cs),
(19,4,o),
(24,0,o),
(34,0,cs)
);
}
);
width = 408;
}
);
unicode = 70;
},
{
glyphname = G;
kernLeft = O;
kernRight = G;
lastChange = "2022-09-01 20:53:01 +0000";
layers = (
{
anchors = (
{
name = bottom;
pos = (291,0);
},
{
name = top;
pos = (291,720);
}
);
background = {
shapes = (
{
closed = 1;
nodes = (
(350,-9,o),
(391,2,o),
(423,18,cs),
(432,23,o),
(433,28,o),
(434,39,cs),
(442,201,ls),
(443,212,o),
(438,217,o),
(431,218,cs),
(423,219,o),
(417,214,o),
(415,205,cs),
(406,156,ls),
(386,49,o),
(346,18,o),
(286,18,cs),
(198,18,o),
(118,139,o),
(118,364,cs),
(118,582,o),
(188,703,o),
(286,703,cs),
(336,703,o),
(375,671,o),
(397,565,cs),
(405,526,ls),
(407,517,o),
(413,512,o),
(421,513,cs),
(428,514,o),
(432,519,o),
(432,530,cs),
(427,682,ls),
(427,693,o),
(425,698,o),
(416,703,cs),
(384,719,o),
(343,730,o),
(289,730,cs),
(150,730,o),
(40,584,o),
(40,364,cs),
(40,137,o),
(138,-9,o),
(286,-9,cs)
);
}
);
};
guides = (
{
pos = (361,730);
},
{
angle = 90;
pos = (452,530);
}
);
layerId = m01;
shapes = (
{
closed = 1;
nodes = (
(345,-9,o),
(386,2,o),
(418,18,cs),
(438,28,o),
(445,35,o),
(445,50,cs),
(445,321,ls),
(445,349,o),
(446,359,o),
(475,363,cs),
(490,365,ls),
(497,366,o),
(501,370,o),
(501,376,cs),
(501,384,o),
(496,388,o),
(486,388,cs),
(303,388,ls),
(293,388,o),
(288,384,o),
(288,377,cs),
(288,371,o),
(292,366,o),
(301,365,cs),
(340,361,ls),
(368,358,o),
(374,350,o),
(374,322,cs),
(374,103,ls),
(374,38,o),
(346,18,o),
(291,18,cs),
(189,18,o),
(118,139,o),
(118,364,cs),
(118,582,o),
(188,701,o),
(286,701,cs),
(351,701,o),
(383,667,o),
(413,556,cs),
(421,526,ls),
(423,517,o),
(427,513,o),
(435,513,cs),
(442,513,o),
(447,519,o),
(447,530,cs),
(444,682,ls),
(444,693,o),
(440,698,o),
(431,703,cs),
(399,719,o),
(356,730,o),
(304,730,cs),
(150,730,o),
(40,584,o),
(40,364,cs),
(40,137,o),
(128,-9,o),
(291,-9,cs)
);
}
);
width = 521;
}
);
unicode = 71;
},
{
glyphname = H;
kernLeft = H;
kernRight = H;
lastChange = "2022-09-01 20:53:06 +0000";
layers = (
{
background = {
shapes = (
{
closed = 1;
nodes = (
(229,0,l),
(229,22,l),
(185,29,ls),
(166,32,o),
(160,38,o),
(160,62,cs),
(160,358,l),
(386,358,l),
(386,62,ls),
(386,38,o),
(380,32,o),
(361,29,cs),
(317,22,l),
(317,0,l),
(527,0,l),
(527,22,l),
(482,29,ls),
(463,32,o),
(457,38,o),
(457,62,cs),
(457,658,ls),
(457,682,o),
(463,688,o),
(482,691,cs),
(527,698,l),
(527,720,l),
(317,720,l),
(317,698,l),
(361,691,ls),
(380,688,o),
(386,682,o),
(386,658,cs),
(386,388,l),
(160,388,l),
(160,658,ls),
(160,682,o),
(166,688,o),
(185,691,cs),
(229,698,l),
(229,720,l),
(19,720,l),
(19,698,l),
(64,691,ls),
(83,688,o),
(89,682,o),
(89,658,cs),
(89,62,ls),
(89,38,o),
(83,32,o),
(64,29,cs),
(19,22,l),
(19,0,l)
);
}
);
};
layerId = m01;
shapes = (
{
closed = 1;
nodes = (
(217,0,ls),
(227,0,o),
(232,4,o),
(232,12,cs),
(232,18,o),
(228,22,o),
(221,23,cs),
(194,27,ls),
(166,31,o),
(160,39,o),
(160,67,cs),
(160,344,ls),
(160,353,o),
(165,358,o),
(174,358,cs),
(372,358,ls),
(381,358,o),
(386,353,o),
(386,344,cs),
(386,67,ls),
(386,39,o),
(380,31,o),
(352,27,cs),
(325,23,ls),
(318,22,o),
(314,18,o),
(314,12,cs),
(314,4,o),
(319,0,o),
(329,0,cs),
(512,0,ls),
(522,0,o),
(527,4,o),
(527,11,cs),
(527,17,o),
(523,21,o),
(514,23,cs),
(491,27,ls),
(463,32,o),
(457,38,o),
(457,66,cs),
(457,654,ls),
(457,682,o),
(463,688,o),
(491,693,cs),
(514,697,ls),
(523,699,o),
(527,703,o),
(527,709,cs),
(527,716,o),
(522,720,o),
(512,720,cs),
(329,720,ls),
(319,720,o),
(314,716,o),
(314,708,cs),
(314,702,o),
(318,698,o),
(325,697,cs),
(352,693,ls),
(380,689,o),
(386,681,o),
(386,653,cs),
(386,402,ls),
(386,393,o),
(381,388,o),
(372,388,cs),
(174,388,ls),
(165,388,o),
(160,393,o),
(160,402,cs),
(160,653,ls),
(160,681,o),
(166,689,o),
(194,693,cs),
(221,697,ls),
(228,698,o),
(232,702,o),
(232,708,cs),
(232,716,o),
(227,720,o),
(217,720,cs),
(34,720,ls),
(24,720,o),
(19,716,o),
(19,709,cs),
(19,703,o),
(23,699,o),
(32,697,cs),
(55,693,ls),
(83,688,o),
(89,682,o),
(89,654,cs),
(89,66,ls),
(89,38,o),
(83,32,o),
(55,27,cs),
(32,23,ls),
(23,21,o),
(19,17,o),
(19,11,cs),
(19,4,o),
(24,0,o),
(34,0,cs)
);
}
);
width = 546;
}
);
unicode = 72;
},
{
glyphname = Hbar;
kernLeft = H;
kernRight = H;
lastChange = "2022-08-23 19:52:53 +0000";
layers = (
{
layerId = m01;
shapes = (
{
ref = H;
},
{
closed = 1;
nodes = (
(517,532,ls),
(523,532,o),
(527,536,o),
(527,542,cs),
(527,550,ls),
(527,556,o),
(523,560,o),
(517,560,cs),
(29,560,ls),
(23,560,o),
(19,556,o),
(19,550,cs),
(19,542,ls),
(19,536,o),
(23,532,o),
(29,532,cs)
);
}
);
width = 546;
}
);
unicode = 294;
},
{
glyphname = I;
kernLeft = H;
kernRight = H;
lastChange = "2022-08-25 19:54:44 +0000";
layers = (
{
anchors = (
{
name = bottom;
pos = (125,0);
},
{
name = ogonek;
pos = (160,0);
},
{
name = top;
pos = (125,720);
},
{
name = topleft;
pos = (20,720);
}
);
background = {
shapes = (
{
closed = 1;
nodes = (
(230,0,l),
(230,22,l),
(185,29,ls),
(166,32,o),
(160,38,o),
(160,62,cs),
(160,658,ls),
(160,682,o),
(166,688,o),
(185,691,cs),
(230,698,l),
(230,720,l),
(19,720,l),
(19,698,l),
(64,691,ls),
(83,688,o),
(89,682,o),
(89,658,cs),
(89,62,ls),
(89,38,o),
(83,32,o),
(64,29,cs),
(19,22,l),
(19,0,l)
);
}
);
};
layerId = m01;
shapes = (
{
closed = 1;
nodes = (
(215,0,ls),
(225,0,o),
(230,4,o),
(230,11,cs),
(230,17,o),
(226,21,o),
(217,23,cs),
(194,27,ls),
(166,32,o),
(160,38,o),
(160,66,cs),
(160,654,ls),
(160,682,o),
(166,688,o),
(194,693,cs),
(217,697,ls),
(226,699,o),
(230,703,o),
(230,709,cs),
(230,716,o),
(225,720,o),
(215,720,cs),
(34,720,ls),
(24,720,o),
(19,716,o),
(19,709,cs),
(19,703,o),
(23,699,o),
(32,697,cs),
(55,693,ls),
(83,688,o),
(89,682,o),
(89,654,cs),
(89,66,ls),
(89,38,o),
(83,32,o),
(55,27,cs),
(32,23,ls),
(23,21,o),
(19,17,o),
(19,11,cs),
(19,4,o),
(24,0,o),
(34,0,cs)
);
}
);
width = 249;
}
);
unicode = 73;
},
{
glyphname = J;
kernRight = J;
lastChange = "2022-09-01 21:01:27 +0000";
layers = (
{
layerId = m01;
shapes = (
{
closed = 1;
nodes = (
(104,-215,o),
(160,-116,o),
(160,44,cs),
(160,654,ls),
(160,682,o),
(166,688,o),
(194,693,cs),
(217,697,ls),
(226,699,o),
(230,702,o),
(230,709,cs),
(230,716,o),
(225,720,o),
(215,720,cs),
(34,720,ls),
(24,720,o),
(19,716,o),
(19,709,cs),
(19,702,o),
(23,699,o),
(32,697,cs),
(55,693,ls),
(83,688,o),
(89,682,o),
(89,654,cs),
(89,-91,ls),
(89,-144,o),
(75,-175,o),
(50,-175,cs),
(14,-175,o),
(29,-109,o),
(-15,-109,cs),
(-39,-109,o),
(-56,-128,o),
(-56,-155,cs),
(-56,-191,o),
(-28,-215,o),
(14,-215,cs)
);
}
);
width = 249;
}
);
unicode = 74;
},
{
glyphname = K;
kernLeft = H;
kernRight = K;
lastChange = "2022-09-01 20:53:20 +0000";
layers = (
{
anchors = (
{
name = bottom;
pos = (268,0);
},
{
name = top;
pos = (248,720);
}
);
background = {
shapes = (
{
closed = 1;
nodes = (
(217,0,ls),
(227,0,o),
(232,4,o),
(232,12,cs),
(232,18,o),
(228,22,o),
(221,23,cs),
(194,27,ls),
(166,31,o),
(160,39,o),
(160,67,cs),
(160,653,ls),
(160,681,o),
(166,689,o),
(194,693,cs),
(221,697,ls),
(228,698,o),
(232,702,o),
(232,708,cs),
(232,716,o),
(227,720,o),
(217,720,cs),
(34,720,ls),
(24,720,o),
(19,716,o),
(19,709,cs),
(19,703,o),
(23,699,o),
(32,697,cs),
(55,693,ls),
(83,688,o),
(89,682,o),
(89,654,cs),
(89,66,ls),
(89,38,o),
(83,32,o),
(55,27,cs),
(32,23,ls),
(23,21,o),
(19,17,o),
(19,11,cs),
(19,4,o),
(24,0,o),
(34,0,cs)
);
},
{
closed = 1;
nodes = (
(369,623,ls),
(402,675,o),
(424,691,o),
(465,695,cs),
(484,697,ls),
(494,698,o),
(497,703,o),
(497,709,cs),
(497,716,o),
(492,720,o),
(483,720,cs),
(313,720,ls),
(304,720,o),
(299,716,o),
(299,710,cs),
(299,703,o),
(303,699,o),
(312,697,cs),
(335,693,ls),
(362,688,o),
(363,669,o),
(341,635,cs),
(165,359,l),
(153,359,l),
(153,286,l)
);
},
{
closed = 1;
nodes = (
(198,372,l),
(198,360,l),
(205,360,l),
(356,74,ls),
(371,45,o),
(365,28,o),
(340,25,cs),
(323,23,ls),
(315,22,o),
(310,17,o),
(310,11,cs),
(310,5,o),
(315,0,o),
(324,0,cs),
(502,0,ls),
(511,0,o),
(516,4,o),
(516,11,cs),
(516,18,o),
(512,22,o),
(504,23,cs),
(480,27,ls),
(464,30,o),
(454,38,o),
(443,59,cs),
(242,437,l)
);
}
);
};
layerId = m01;
shapes = (
{
closed = 1;
nodes = (
(217,0,ls),
(227,0,o),
(232,4,o),
(232,12,cs),
(232,18,o),
(228,22,o),
(221,23,cs),
(194,27,ls),
(166,31,o),
(160,39,o),
(160,67,cs),
(160,274,ls),
(160,293,o),
(163,302,o),
(172,316,cs),
(193,349,ls),
(199,359,o),
(207,358,o),
(212,348,cs),
(356,74,ls),
(371,45,o),
(365,28,o),
(340,25,cs),
(323,23,ls),
(315,22,o),
(310,17,o),
(310,11,cs),
(310,5,o),
(315,0,o),
(324,0,cs),
(502,0,ls),
(511,0,o),
(516,4,o),
(516,11,cs),
(516,18,o),
(512,22,o),
(504,23,cs),
(480,27,ls),
(464,30,o),
(454,38,o),
(443,59,cs),
(255,413,ls),
(249,424,o),
(249,434,o),
(256,446,cs),
(369,623,ls),
(402,675,o),
(424,691,o),
(465,695,cs),
(484,697,ls),
(494,698,o),
(497,703,o),
(497,709,cs),
(497,716,o),
(492,720,o),
(483,720,cs),
(313,720,ls),
(304,720,o),
(299,716,o),
(299,710,cs),
(299,703,o),
(303,699,o),
(312,697,cs),
(335,693,ls),
(362,688,o),
(363,669,o),
(341,635,cs),
(177,378,ls),
(170,366,o),
(160,370,o),
(160,383,cs),
(160,653,ls),
(160,681,o),
(166,689,o),
(194,693,cs),
(221,697,ls),
(228,698,o),
(232,702,o),
(232,708,cs),
(232,716,o),
(227,720,o),
(217,720,cs),
(34,720,ls),
(24,720,o),
(19,716,o),
(19,709,cs),
(19,703,o),
(23,699,o),
(32,697,cs),
(55,693,ls),
(83,688,o),
(89,682,o),
(89,654,cs),
(89,66,ls),
(89,38,o),
(83,32,o),
(55,27,cs),
(32,23,ls),
(23,21,o),
(19,17,o),
(19,11,cs),
(19,4,o),
(24,0,o),
(34,0,cs)
);
}
);
width = 496;
}
);
unicode = 75;
},
{
glyphname = L;
kernLeft = H;
kernRight = L;
lastChange = "2022-09-01 20:16:45 +0000";
layers = (
{
anchors = (
{
name = bottom;
pos = (207,0);
},
{
name = center;
pos = (207,360);
},
{
name = top;
pos = (125,720);
},
{
name = topright;
pos = (275,720);
}
);
layerId = m01;
shapes = (
{
closed = 1;
nodes = (
(357,0,ls),
(372,0,o),
(381,8,o),
(382,23,cs),
(394,211,ls),
(395,222,o),
(389,228,o),
(382,228,cs),
(374,228,o),
(369,223,o),
(367,215,cs),
(354,148,ls),
(334,45,o),
(278,25,o),
(232,25,cs),
(191,25,o),
(160,45,o),
(160,93,cs),
(160,653,ls),
(160,681,o),
(166,689,o),
(194,693,cs),
(221,697,ls),
(228,698,o),
(232,702,o),
(232,708,cs),
(232,716,o),
(227,720,o),
(217,720,cs),
(34,720,ls),
(24,720,o),
(19,716,o),
(19,709,cs),
(19,703,o),
(23,699,o),
(32,697,cs),
(55,693,ls),
(83,688,o),
(89,682,o),
(89,654,cs),
(89,66,ls),
(89,38,o),
(83,32,o),
(55,27,cs),
(32,23,ls),
(23,21,o),
(19,17,o),
(19,11,cs),
(19,4,o),
(24,0,o),
(34,0,cs)
);
}
);
width = 413;
}
);
unicode = 76;
},
{
glyphname = Lslash;
kernLeft = H;
kernRight = L;
lastChange = "2022-08-23 19:53:25 +0000";
layers = (
{
layerId = m01;
shapes = (
{
ref = L;
},
{
closed = 1;
nodes = (
(137,383,l),
(15,307,ls),
(10,304,o),
(9,298,o),
(12,293,cs),
(17,286,ls),
(20,281,o),
(25,280,o),
(30,283,cs),
(137,350,l)
);
},
{
closed = 1;
nodes = (
(137,353,l),
(264,432,ls),
(269,435,o),
(270,441,o),
(267,446,cs),
(262,453,ls),
(259,458,o),
(254,459,o),
(249,456,cs),
(137,386,l)
);
}
);
width = 413;
}
);
unicode = 321;
},
{
glyphname = M;
lastChange = "2022-09-01 20:53:28 +0000";
layers = (
{
background = {
shapes = (
{
closed = 1;
nodes = (
(320,10,o),
(327,13,o),
(330,26,cs),
(487,661,l),
(500,661,l),
(502,720,l),
(498,720,ls),
(479,720,o),
(470,712,o),
(466,695,cs),
(336,177,l),
(331,177,l),
(207,690,ls),
(202,711,o),
(190,720,o),
(169,720,cs),
(127,720,l),
(299,26,ls),
(302,13,o),
(309,10,o),
(315,10,cs)
);
},
{
closed = 1;
nodes = (
(636,0,ls),
(646,0,o),
(651,4,o),
(651,11,cs),
(651,17,o),
(647,21,o),
(638,23,cs),
(615,27,ls),
(587,32,o),
(582,38,o),
(581,66,cs),
(561,654,ls),
(560,682,o),
(567,688,o),
(595,693,cs),
(618,697,ls),
(627,699,o),
(631,703,o),
(631,709,cs),
(631,716,o),
(626,720,o),
(616,720,cs),
(502,720,l),
(491,685,l),
(510,66,ls),
(511,38,o),
(504,32,o),
(476,27,cs),
(453,23,ls),
(444,21,o),
(440,17,o),
(440,11,cs),
(440,4,o),
(445,0,o),
(455,0,cs)
);
},
{
closed = 1;
nodes = (
(146,720,l),
(49,720,ls),
(39,720,o),
(34,716,o),
(34,709,cs),
(34,703,o),
(38,699,o),
(47,697,cs),
(70,693,ls),
(100,688,o),
(107,682,o),
(106,654,cs),
(86,86,ls),
(85,48,o),
(75,30,o),
(40,25,cs),
(27,23,ls),
(18,22,o),
(14,17,o),
(14,11,cs),
(14,4,o),
(19,0,o),
(29,0,cs),
(172,0,ls),
(182,0,o),
(187,4,o),
(187,11,cs),
(187,17,o),
(183,22,o),
(174,23,cs),
(161,25,ls),
(128,30,o),
(116,48,o),
(117,86,cs),
(137,661,l),
(142,661,l)
);
}
);
};
guides = (
{
angle = 177.9834;
pos = (96,370);
showMeasurement = 1;
},
{
angle = 1.9481;
pos = (571,360);
showMeasurement = 1;
}
);
layerId = m01;
shapes = (
{
closed = 1;
nodes = (
(320,10,o),
(327,13,o),
(330,26,cs),
(482,640,ls),
(484,648,o),
(493,647,o),
(493,638,cs),
(510,66,ls),
(511,38,o),
(504,32,o),
(476,27,cs),
(453,23,ls),
(444,21,o),
(440,17,o),
(440,11,cs),
(440,4,o),
(445,0,o),
(455,0,cs),
(636,0,ls),
(646,0,o),
(651,4,o),
(651,11,cs),
(651,17,o),
(647,21,o),
(638,23,cs),
(615,27,ls),
(587,32,o),
(582,38,o),
(581,66,cs),
(561,654,ls),
(560,682,o),
(567,688,o),
(595,693,cs),
(618,697,ls),
(627,699,o),
(631,703,o),
(631,709,cs),
(631,716,o),
(626,720,o),
(616,720,cs),
(498,720,ls),
(479,720,o),
(470,712,o),
(466,695,cs),
(340,191,ls),
(338,182,o),
(330,182,o),
(328,191,cs),
(207,690,ls),
(202,711,o),
(190,720,o),
(169,720,cs),
(49,720,ls),
(39,720,o),
(34,716,o),
(34,709,cs),
(34,703,o),
(38,699,o),
(47,697,cs),
(70,693,ls),
(100,688,o),
(107,682,o),
(106,654,cs),
(86,86,ls),
(85,48,o),
(75,30,o),
(40,25,cs),
(27,23,ls),
(18,22,o),
(14,17,o),
(14,11,cs),
(14,4,o),
(19,0,o),
(29,0,cs),
(172,0,ls),
(182,0,o),
(187,4,o),
(187,11,cs),
(187,17,o),
(183,22,o),
(174,23,cs),
(161,25,ls),
(128,30,o),
(116,48,o),
(117,86,cs),
(137,638,ls),
(137,647,o),
(146,648,o),
(148,639,cs),
(299,26,ls),
(302,13,o),
(309,10,o),
(315,10,cs)
);
}
);
width = 665;
}
);
unicode = 77;
},
{
glyphname = N;
kernLeft = N;
kernRight = N;
lastChange = "2022-09-01 20:53:33 +0000";
layers = (
{
anchors = (
{
name = bottom;
pos = (270,0);
},
{
name = top;
pos = (270,720);
}
);
background = {
shapes = (
{
closed = 1;
nodes = (
(444,-9,o),
(452,-1,o),
(452,13,cs),
(452,634,ls),
(452,676,o),
(463,690,o),
(498,695,cs),
(511,697,ls),
(520,698,o),
(524,703,o),
(524,709,cs),
(524,716,o),
(519,720,o),
(509,720,cs),
(366,720,ls),
(356,720,o),
(351,716,o),
(351,709,cs),
(351,703,o),
(355,699,o),
(364,697,cs),
(382,694,ls),
(405,690,o),
(421,676,o),
(421,634,cs),
(421,165,l),
(416,165,l),
(163,698,ls),
(155,714,o),
(145,720,o),
(128,720,cs),
(31,720,ls),
(21,720,o),
(16,716,o),
(16,709,cs),
(16,703,o),
(20,699,o),
(29,697,cs),
(52,693,ls),
(82,688,o),
(88,682,o),
(88,654,cs),
(88,86,ls),
(88,48,o),
(77,30,o),
(42,25,cs),
(29,23,ls),
(20,22,o),
(16,17,o),
(16,11,cs),
(16,4,o),
(21,0,o),
(31,0,cs),
(174,0,ls),
(184,0,o),
(189,4,o),
(189,11,cs),
(189,17,o),
(185,22,o),
(176,23,cs),
(163,25,ls),
(130,30,o),
(119,48,o),
(119,86,cs),
(119,617,l),
(124,617,l),
(413,7,ls),
(419,-5,o),
(424,-9,o),
(434,-9,cs)
);
}
);
};
layerId = m01;
shapes = (
{
closed = 1;
nodes = (
(442,-9,o),
(452,-1,o),
(452,23,cs),
(452,634,ls),
(452,676,o),
(463,690,o),
(498,695,cs),
(511,697,ls),
(520,698,o),
(524,703,o),
(524,709,cs),
(524,716,o),
(519,720,o),
(509,720,cs),
(366,720,ls),
(356,720,o),
(351,716,o),
(351,709,cs),
(351,703,o),
(355,699,o),
(364,697,cs),
(382,694,ls),
(405,690,o),
(421,676,o),
(421,634,cs),
(421,181,ls),
(421,173,o),
(413,171,o),
(409,179,cs),
(173,698,ls),
(166,714,o),
(155,720,o),
(138,720,cs),
(31,720,ls),
(21,720,o),
(16,716,o),
(16,709,cs),
(16,703,o),
(20,699,o),
(29,697,cs),
(52,693,ls),
(82,688,o),
(88,682,o),
(88,654,cs),
(88,86,ls),
(88,48,o),
(77,30,o),
(42,25,cs),
(29,23,ls),
(20,22,o),
(16,17,o),
(16,11,cs),
(16,4,o),
(21,0,o),
(31,0,cs),
(174,0,ls),
(184,0,o),
(189,4,o),
(189,11,cs),
(189,17,o),
(185,22,o),
(176,23,cs),
(163,25,ls),
(130,30,o),
(119,48,o),
(119,86,cs),
(119,600,ls),
(119,610,o),
(127,612,o),
(131,603,cs),
(402,15,ls),
(410,-3,o),
(416,-9,o),
(429,-9,cs)
);
}
);
width = 540;
}
);
unicode = 78;
},
{
glyphname = Eng;
kernLeft = N;
kernRight = N;
lastChange = "2022-08-23 20:12:33 +0000";
layers = (
{
layerId = m01;
shapes = (
{
closed = 1;
nodes = (
(396,-215,o),
(452,-116,o),
(452,44,cs),
(452,634,ls),
(452,676,o),
(463,690,o),
(498,695,cs),
(511,697,ls),
(520,698,o),
(524,703,o),
(524,709,cs),
(524,716,o),
(519,720,o),
(509,720,cs),
(366,720,ls),
(356,720,o),
(351,716,o),
(351,709,cs),
(351,703,o),
(355,699,o),
(364,697,cs),
(382,694,ls),
(405,690,o),
(421,676,o),
(421,634,cs),
(421,181,ls),
(421,173,o),
(413,171,o),
(409,179,cs),
(163,698,ls),
(155,714,o),
(145,720,o),
(128,720,cs),
(31,720,ls),
(21,720,o),
(16,716,o),
(16,709,cs),
(16,703,o),
(20,699,o),
(29,697,cs),
(52,693,ls),
(82,688,o),
(88,682,o),
(88,654,cs),
(88,86,ls),
(88,48,o),
(77,30,o),
(42,25,cs),
(29,23,ls),
(20,22,o),
(16,17,o),
(16,11,cs),
(16,4,o),
(21,0,o),
(31,0,cs),
(174,0,ls),
(184,0,o),
(189,4,o),
(189,11,cs),
(189,17,o),
(185,22,o),
(176,23,cs),
(163,25,ls),
(130,30,o),
(119,48,o),
(119,86,cs),
(119,600,ls),
(119,610,o),
(127,612,o),
(131,603,cs),
(377,82,ls),
(382,71,o),
(384,63,o),
(384,52,cs),
(384,-91,ls),
(384,-144,o),
(370,-175,o),
(345,-175,cs),
(309,-175,o),
(323,-119,o),
(281,-119,cs),
(257,-119,o),
(242,-138,o),
(242,-161,cs),
(242,-193,o),
(270,-215,o),
(309,-215,cs)
);
}
);
width = 540;
}
);
unicode = 330;
},
{
glyphname = O;
kernLeft = O;
kernRight = O;
lastChange = "2022-09-01 19:27:44 +0000";
layers = (
{
anchors = (
{
name = bottom;
pos = (270,0);
},
{
name = center;
pos = (270,360);
},
{
name = ogonek;
pos = (486,10);
},
{
name = top;
pos = (270,720);
},
{
name = topleft;
pos = (20,720);
},
{
name = topright;
pos = (520,720);
}
);
background = {
shapes = (
{
pos = (-3,0);
ref = H;
}
);
};
guides = (
{
pos = (459,730);
},
{
angle = 90;
pos = (40,665);
},
{
angle = 90;
pos = (500,665);
}
);
layerId = m01;
shapes = (
{
closed = 1;
nodes = (
(398,-9,o),
(500,153,o),
(500,361,cs),
(500,568,o),
(398,730,o),
(270,730,cs),
(141,730,o),
(40,568,o),
(40,361,cs),
(40,153,o),
(141,-9,o),
(270,-9,cs)
);
},
{
closed = 1;
nodes = (
(176,18,o),
(119,130,o),
(119,361,cs),
(119,591,o),
(176,703,o),
(270,703,cs),
(364,703,o),
(421,591,o),
(421,361,cs),
(421,130,o),
(364,18,o),
(270,18,cs)
);
}
);
width = 540;
}
);
unicode = 79;
},
{
glyphname = Oslash;
kernLeft = O;
kernRight = O;
lastChange = "2022-08-23 19:53:48 +0000";
layers = (
{
background = {
shapes = (
{
closed = 1;
nodes = (
(79,-60,ls),
(84,-60,o),
(88,-58,o),
(90,-52,cs),
(342,538,ls),
(345,545,o),
(341,550,o),
(334,550,cs),
(327,550,ls),
(322,550,o),
(318,548,o),
(316,542,cs),
(64,-48,ls),
(61,-55,o),
(65,-60,o),
(72,-60,cs)
);
}
);
};
layerId = m01;
shapes = (
{
ref = O;
},
{
closed = 1;
nodes = (
(97,-60,ls),
(102,-60,o),
(106,-58,o),
(108,-52,cs),
(463,778,ls),
(466,785,o),
(462,790,o),
(455,790,cs),
(444,790,ls),
(439,790,o),
(435,788,o),
(433,782,cs),
(78,-48,ls),
(75,-55,o),
(79,-60,o),
(86,-60,cs)
);
}
);
width = 540;
}
);
unicode = 216;
},
{
glyphname = OE;
kernLeft = O;
kernRight = E;
lastChange = "2022-08-23 19:53:43 +0000";
layers = (
{
layerId = m01;
shapes = (
{
closed = 1;
nodes = (
(314,-9,o),
(344,0,o),
(389,0,cs),
(685,0,ls),
(700,0,o),
(709,8,o),
(710,23,cs),
(720,201,ls),
(721,212,o),
(715,218,o),
(708,218,cs),
(700,218,o),
(695,213,o),
(693,205,cs),
(681,146,ls),
(662,53,o),
(613,25,o),
(546,25,cs),
(481,25,o),
(460,45,o),
(460,93,cs),
(460,344,ls),
(460,353,o),
(465,358,o),
(474,358,cs),
(523,358,ls),
(553,358,o),
(569,347,o),
(578,301,cs),
(588,252,ls),
(590,244,o),
(597,238,o),
(605,239,cs),
(612,240,o),
(616,245,o),
(616,256,cs),
(616,481,ls),
(616,492,o),
(612,497,o),
(605,498,cs),
(597,499,o),
(590,493,o),
(588,485,cs),
(578,435,ls),
(571,402,o),
(554,388,o),
(524,388,cs),
(474,388,ls),
(465,388,o),
(460,393,o),
(460,402,cs),
(460,643,ls),
(460,681,o),
(477,695,o),
(531,695,cs),
(611,695,o),
(655,654,o),
(670,564,cs),
(676,527,ls),
(677,519,o),
(682,514,o),
(690,514,cs),
(698,514,o),
(704,520,o),
(703,531,cs),
(695,697,ls),
(694,712,o),
(685,720,o),
(670,720,cs),
(389,720,ls),
(344,720,o),
(314,729,o),
(274,729,cs),
(135,729,o),
(40,567,o),
(40,359,cs),
(40,153,o),
(135,-9,o),
(274,-9,cs)
);
},
{
closed = 1;
nodes = (
(166,18,o),
(119,130,o),
(119,359,cs),
(119,590,o),
(166,702,o),
(278,702,cs),
(344,702,o),
(389,672,o),
(389,604,cs),
(389,116,ls),
(389,50,o),
(344,18,o),
(278,18,cs)
);
}
);
width = 753;
}
);
metricLeft = O;
metricRight = E;
unicode = 338;
},
{
glyphname = P;
kernLeft = H;
lastChange = "2022-09-01 20:53:52 +0000";
layers = (
{
background = {
shapes = (
{
closed = 1;
nodes = (
(160,319,ls),
(160,329,o),
(161,336,o),
(170,336,cs),
(179,336,o),
(187,334,o),
(199,330,cs),
(210,327,o),
(227,325,o),
(254,325,cs),
(357,325,o),
(442,402,o),
(442,514,cs),
(442,648,o),
(355,720,o),
(246,720,cs),
(207,720,o),
(163,715,o),
(124,715,cs),
(98,715,o),
(69,720,o),
(38,720,cs),
(23,720,o),
(21,713,o),
(21,705,cs),
(21,693,o),
(28,693,o),
(60,688,cs),
(80,686,o),
(89,672,o),
(89,634,cs),
(89,78,ls),
(89,49,o),
(83,34,o),
(64,32,cs),
(28,27,o),
(21,25,o),
(21,11,cs),
(21,3,o),
(27,0,o),
(43,0,cs),
(55,0,o),
(68,5,o),
(130,5,cs),
(191,5,o),
(209,0,o),
(225,0,cs),
(238,0,o),
(245,7,o),
(245,15,cs),
(245,27,o),
(226,26,o),
(191,32,cs),
(168,35,o),
(160,52,o),
(160,90,cs)
);
},
{
closed = 1;
nodes = (
(160,655,ls),
(160,681,o),
(175,693,o),
(218,693,cs),
(312,693,o),
(364,625,o),
(364,520,cs),
(364,420,o),
(315,352,o),
(221,352,cs),
(199,352,o),
(183,359,o),
(174,368,cs),
(163,377,o),
(160,386,o),
(160,397,cs)
);
}
);
};
guides = (
{
pos = (261,326);
}
);
layerId = m01;
shapes = (
{
closed = 1;
nodes = (
(237,0,ls),
(247,0,o),
(252,4,o),
(252,12,cs),
(252,18,o),
(248,22,o),
(241,23,cs),
(204,29,ls),
(167,35,o),
(160,42,o),
(160,70,cs),
(160,312,ls),
(160,321,o),
(165,326,o),
(174,326,cs),
(246,326,ls),
(361,326,o),
(442,406,o),
(442,520,cs),
(442,638,o),
(361,720,o),
(243,720,cs),
(34,720,ls),
(24,720,o),
(19,716,o),
(19,709,cs),
(19,702,o),
(23,699,o),
(32,697,cs),
(55,693,ls),
(83,688,o),
(89,682,o),
(89,654,cs),
(89,66,ls),
(89,38,o),
(83,32,o),
(55,27,cs),
(32,23,ls),
(23,21,o),
(19,18,o),
(19,11,cs),
(19,4,o),
(24,0,o),
(34,0,cs)
);
},
{
closed = 1;
nodes = (
(160,655,l),
(160,683,o),
(179,695,o),
(221,695,cs),
(314,695,o),
(367,632,o),
(367,523,cs),
(367,416,o),
(314,351,o),
(227,351,cs),
(181,351,o),
(160,368,o),
(160,406,cs)
);
}
);
width = 466;
}
);
unicode = 80;
},
{
glyphname = Thorn;
kernLeft = H;
lastChange = "2022-08-23 19:53:56 +0000";
layers = (
{
background = {
shapes = (
{
closed = 1;
nodes = (
(237,0,ls),
(247,0,o),
(252,4,o),
(252,12,cs),
(252,18,o),
(248,22,o),
(241,23,cs),
(204,29,ls),
(167,35,o),
(160,42,o),
(160,70,cs),
(160,312,ls),
(160,321,o),
(165,326,o),
(174,326,cs),
(246,326,ls),
(361,326,o),
(442,406,o),
(442,520,cs),
(442,638,o),
(361,720,o),
(243,720,cs),
(34,720,ls),
(24,720,o),
(19,716,o),
(19,709,cs),
(19,702,o),
(23,699,o),
(32,697,cs),
(55,693,ls),
(83,688,o),
(89,682,o),
(89,654,cs),
(89,66,ls),
(89,38,o),
(83,32,o),
(55,27,cs),
(32,23,ls),
(23,21,o),
(19,18,o),
(19,11,cs),
(19,4,o),
(24,0,o),
(34,0,cs)
);
},
{
closed = 1;
nodes = (
(160,655,l),
(160,683,o),
(179,695,o),
(221,695,cs),
(314,695,o),
(367,632,o),
(367,523,cs),
(367,416,o),
(314,351,o),
(227,351,cs),
(181,351,o),
(160,368,o),
(160,406,cs)
);
}
);
};
layerId = m01;
shapes = (
{
closed = 1;
nodes = (
(237,0,ls),
(247,0,o),
(252,4,o),
(252,11,cs),
(252,17,o),
(248,21,o),
(239,23,cs),
(194,31,ls),
(166,36,o),
(160,43,o),
(160,71,cs),
(160,171,ls),
(160,180,o),
(165,185,o),
(174,185,cs),
(246,185,ls),
(361,185,o),
(442,265,o),
(442,379,cs),
(442,497,o),
(361,579,o),
(243,579,cs),
(174,579,ls),
(165,579,o),
(160,584,o),
(160,593,cs),
(160,649,ls),
(160,677,o),
(166,684,o),
(194,689,cs),
(239,697,ls),
(248,699,o),
(252,703,o),
(252,709,cs),
(252,716,o),
(247,720,o),
(237,720,cs),
(34,720,ls),
(24,720,o),
(19,716,o),
(19,709,cs),
(19,703,o),
(23,699,o),
(32,697,cs),
(55,693,ls),
(83,688,o),
(89,682,o),
(89,654,cs),
(89,66,ls),
(89,38,o),
(83,32,o),
(55,27,cs),
(32,23,ls),
(23,21,o),
(19,17,o),
(19,11,cs),
(19,4,o),
(24,0,o),
(34,0,cs)
);
},
{
closed = 1;
nodes = (
(181,210,o),
(160,227,o),
(160,265,cs),
(160,514,ls),
(160,542,o),
(179,554,o),
(221,554,cs),
(314,554,o),
(367,491,o),
(367,382,cs),
(367,275,o),
(314,210,o),
(227,210,cs)
);
}
);
width = 466;
}
);
unicode = 222;
},
{
glyphname = Q;
kernLeft = O;
kernRight = O;
lastChange = "2022-09-01 19:45:32 +0000";
layers = (
{
background = {
shapes = (
{
closed = 1;
nodes = (
(398,-9,o),
(500,153,o),
(500,361,cs),
(500,568,o),
(398,730,o),
(270,730,cs),
(141,730,o),
(40,568,o),
(40,361,cs),
(40,153,o),
(141,-9,o),
(270,-9,cs)
);
},
{
closed = 1;
nodes = (
(176,18,o),
(119,130,o),
(119,361,cs),
(119,591,o),
(176,703,o),
(270,703,cs),
(364,703,o),
(421,591,o),
(421,361,cs),
(421,130,o),
(364,18,o),
(270,18,cs)
);
},
{
closed = 1;
nodes = (
(480,-215,o),
(511,-202,o),
(532,-186,cs),
(538,-181,o),
(540,-177,o),
(540,-172,cs),
(540,-161,o),
(529,-158,o),
(518,-165,cs),
(497,-178,o),
(479,-184,o),
(457,-184,cs),
(411,-184,o),
(372,-152,o),
(348,-74,cs),
(332,-21,o),
(305,-5,o),
(244,5,c),
(211,3,l),
(254,-13,o),
(267,-24,o),
(275,-71,cs),
(294,-185,o),
(374,-215,o),
(434,-215,cs)
);
}
);
};
layerId = m01;
shapes = (
{
closed = 1;
nodes = (
(480,-215,o),
(511,-202,o),
(532,-186,cs),
(538,-181,o),
(540,-177,o),
(540,-172,cs),
(540,-161,o),
(529,-158,o),
(518,-165,cs),
(497,-178,o),
(479,-184,o),
(457,-184,cs),
(411,-184,o),
(372,-152,o),
(348,-74,cs),
(340,-46,o),
(328,-29,o),
(311,-17,cs),
(304,-12,o),
(304,-5,o),
(312,-3,cs),
(420,27,o),
(500,176,o),
(500,361,cs),
(500,568,o),
(398,730,o),
(270,730,cs),
(141,730,o),
(40,568,o),
(40,361,cs),
(40,180,o),
(117,33,o),
(222,-1,c),
(256,-15,o),
(268,-28,o),
(275,-71,cs),
(294,-185,o),
(374,-215,o),
(434,-215,cs)
);
},
{
closed = 1;
nodes = (
(176,18,o),
(119,130,o),
(119,361,cs),
(119,591,o),
(176,703,o),
(270,703,cs),
(364,703,o),
(421,591,o),
(421,361,cs),
(421,130,o),
(364,18,o),
(270,18,cs)
);
}
);
width = 540;
}
);
unicode = 81;
},
{
glyphname = R;
kernLeft = H;
kernRight = R;
lastChange = "2022-09-01 20:17:03 +0000";
layers = (
{
anchors = (
{
name = bottom;
pos = (277,0);
},
{
name = top;
pos = (257,720);
}
);
background = {
shapes = (
{
closed = 1;
nodes = (
(237,0,ls),
(247,0,o),
(252,4,o),
(252,12,cs),
(252,18,o),
(248,22,o),
(241,23,cs),
(204,29,ls),
(167,35,o),
(160,42,o),
(160,70,cs),
(160,320,ls),
(160,335,o),
(171,346,o),
(190,346,cs),
(250,346,ls),
(360,346,o),
(450,434,o),
(450,540,cs),
(450,645,o),
(365,720,o),
(247,720,cs),
(34,720,ls),
(24,720,o),
(19,716,o),
(19,709,cs),
(19,702,o),
(23,699,o),
(32,697,cs),
(55,693,ls),
(83,688,o),
(89,682,o),
(89,654,cs),
(89,66,ls),
(89,38,o),
(83,32,o),
(55,27,cs),
(32,23,ls),
(23,21,o),
(19,18,o),
(19,11,cs),
(19,4,o),
(24,0,o),
(34,0,cs)
);
},
{
closed = 1;
nodes = (
(181,371,o),
(160,388,o),
(160,426,cs),
(160,655,l),
(160,683,o),
(179,695,o),
(223,695,cs),
(318,695,o),
(375,636,o),
(375,538,cs),
(375,437,o),
(317,371,o),
(227,371,cs)
);
},
{
closed = 1;
nodes = (
(489,-9,o),
(523,10,o),
(523,33,cs),
(523,44,o),
(512,48,o),
(501,41,cs),
(487,31,o),
(480,29,o),
(470,29,cs),
(439,29,o),
(421,56,o),
(406,125,cs),
(384,227,ls),
(369,296,o),
(343,330,o),
(294,346,c),
(294,352,l),
(190,346,l),
(272,346,o),
(294,323,o),
(316,216,cs),
(339,105,ls),
(355,29,o),
(392,-9,o),
(450,-9,cs)
);
}
);
};
guides = (
{
angle = 15.5241;
pos = (439,117);
showMeasurement = 1;
}
);
layerId = m01;
shapes = (
{
closed = 1;
nodes = (
(489,-9,o),
(523,10,o),
(523,33,cs),
(523,44,o),
(512,48,o),
(501,41,cs),
(487,31,o),
(480,29,o),
(470,29,cs),
(439,29,o),
(421,56,o),
(406,125,cs),
(384,227,ls),
(371,287,o),
(348,321,o),
(305,341,cs),
(296,345,o),
(296,352,o),
(306,355,cs),
(383,383,o),
(440,456,o),
(440,540,cs),
(440,645,o),
(355,720,o),
(237,720,cs),
(34,720,ls),
(24,720,o),
(19,716,o),
(19,709,cs),
(19,702,o),
(23,699,o),
(32,697,cs),
(55,693,ls),
(83,688,o),
(89,682,o),
(89,654,cs),
(89,66,ls),
(89,38,o),
(83,32,o),
(55,27,cs),
(32,23,ls),
(23,21,o),
(19,18,o),
(19,11,cs),
(19,4,o),
(24,0,o),
(34,0,cs),
(237,0,ls),
(247,0,o),
(252,4,o),
(252,12,cs),
(252,18,o),
(248,22,o),
(241,23,cs),
(204,29,ls),
(167,35,o),
(160,42,o),
(160,70,cs),
(160,320,ls),
(160,335,o),
(171,346,o),
(190,346,cs),
(272,346,o),
(294,323,o),
(316,216,cs),
(339,105,ls),
(355,29,o),
(392,-9,o),
(450,-9,cs)
);
},
{
closed = 1;
nodes = (
(181,371,o),
(160,388,o),
(160,426,cs),
(160,655,ls),
(160,683,o),
(179,695,o),
(213,695,cs),
(308,695,o),
(365,636,o),
(365,538,cs),
(365,437,o),
(317,371,o),
(227,371,cs)
);
}
);
width = 513;
}
);
unicode = 82;
},
{
glyphname = S;
kernLeft = S;
kernRight = S;
lastChange = "2022-09-01 20:17:08 +0000";
layers = (
{
anchors = (
{
name = bottom;
pos = (209,0);
},
{
name = top;
pos = (229,720);
}
);
background = {
shapes = (
{
closed = 0;
nodes = (
(324,153,ls),
(324,96,o),
(287,23,o),
(211,23,cs),
(129,23,o),
(99,66,o),
(77,166,cs),
(71,193,ls),
(68,205,o),
(63,208,o),
(56,208,cs),
(50,208,o),
(44,203,o),
(44,191,cs),
(49,40,ls),
(49,29,o),
(52,23,o),
(60,18,cs),
(87,-1,o),
(127,-9,o),
(189,-9,cs),
(317,-9,o),
(387,95,o),
(387,187,cs)
);
}
);
};
layerId = m01;
shapes = (
{
closed = 1;
nodes = (
(296,-9,o),
(377,66,o),
(377,178,cs),
(377,263,o),
(333,335,o),
(233,416,cs),
(139,490,o),
(107,536,o),
(107,593,cs),
(107,661,o),
(143,700,o),
(201,700,cs),
(259,700,o),
(285,655,o),
(314,552,cs),
(321,527,ls),
(324,517,o),
(327,513,o),
(334,513,cs),
(343,513,o),
(347,519,o),
(347,530,cs),
(344,681,ls),
(344,692,o),
(339,697,o),
(331,703,cs),
(307,720,o),
(267,730,o),
(227,730,cs),
(120,730,o),
(44,666,o),
(44,567,cs),
(44,492,o),
(87,430,o),
(186,359,cs),
(275,292,o),
(314,226,o),
(314,148,cs),
(314,67,o),
(272,20,o),
(205,20,cs),
(141,20,o),
(101,66,o),
(78,163,cs),
(69,201,ls),
(66,214,o),
(62,219,o),
(54,219,cs),
(45,219,o),
(41,212,o),
(41,199,cs),
(46,42,ls),
(46,27,o),
(51,23,o),
(60,18,cs),
(84,4,o),
(144,-9,o),
(184,-9,cs)
);
}
);
width = 407;
}
);
unicode = 83;
},
{
glyphname = Germandbls;
lastChange = "2022-08-18 20:20:07 +0000";
layers = (
{
background = {
shapes = (
{
ref = H;
}
);
};
layerId = m01;
shapes = (
{
closed = 1;
nodes = (
(421,-9,o),
(499,47,o),
(499,169,cs),
(499,254,o),
(435,345,o),
(340,425,c),
(330,391,l),
(496,627,l),
(447,698,o),
(399,730,o),
(303,730,cs),
(182,730,o),
(89,643,o),
(89,495,cs),
(89,66,ls),
(89,38,o),
(83,32,o),
(55,27,cs),
(32,23,ls),
(23,21,o),
(19,17,o),
(19,11,cs),
(19,4,o),
(24,0,o),
(34,0,cs),
(136,0,ls),
(151,0,o),
(160,9,o),
(160,24,cs),
(160,511,ls),
(160,655,o),
(225,701,o),
(303,701,cs),
(364,701,o),
(414,664,o),
(440,590,c),
(455,629,l),
(280,381,l),
(295,370,ls),
(382,306,o),
(436,217,o),
(436,139,cs),
(436,38,o),
(389,20,o),
(352,20,cs),
(307,20,o),
(270,64,o),
(257,133,cs),
(246,191,ls),
(244,204,o),
(238,209,o),
(230,209,cs),
(221,209,o),
(217,202,o),
(217,189,cs),
(217,42,ls),
(217,27,o),
(222,23,o),
(231,18,cs),
(255,4,o),
(300,-9,o),
(341,-9,cs)
);
}
);
width = 529;
}
);
metricLeft = H;
metricRight = S;
unicode = 7838;
},
{
glyphname = T;
kernLeft = T;
kernRight = T;
lastChange = "2022-09-01 21:02:25 +0000";
layers = (
{
anchors = (
{
name = bottom;
pos = (231,0);
},
{
name = center;
pos = (231,360);
},
{
name = top;
pos = (231,720);
}
);
layerId = m01;
shapes = (
{
closed = 1;
nodes = (
(343,0,ls),
(353,0,o),
(358,4,o),
(358,11,cs),
(358,17,o),
(354,22,o),
(345,23,cs),
(300,30,ls),
(274,34,o),
(266,41,o),
(266,69,cs),
(266,669,ls),
(266,688,o),
(272,695,o),
(297,695,cs),
(347,695,o),
(403,655,o),
(417,560,cs),
(422,527,ls),
(423,519,o),
(428,514,o),
(436,514,cs),
(444,514,o),
(450,520,o),
(449,531,cs),
(440,712,ls),
(439,727,o),
(433,735,o),
(422,735,cs),
(409,735,o),
(406,720,o),
(342,720,cs),
(119,720,ls),
(55,720,o),
(52,735,o),
(39,735,cs),
(28,735,o),
(22,727,o),
(21,712,cs),
(12,531,ls),
(11,520,o),
(17,514,o),
(25,514,cs),
(33,514,o),
(38,519,o),
(39,527,cs),
(44,560,ls),
(58,655,o),
(114,695,o),
(164,695,cs),
(189,695,o),
(195,688,o),
(195,669,cs),
(195,69,ls),
(195,41,o),
(187,34,o),
(161,30,cs),
(116,23,ls),
(107,22,o),
(103,17,o),
(103,11,cs),
(103,4,o),
(108,0,o),
(118,0,cs)
);
}
);
width = 461;
}
);
unicode = 84;
},
{
glyphname = U;
kernLeft = U;
kernRight = U;
lastChange = "2022-09-01 20:54:19 +0000";
layers = (
{
anchors = (
{
name = bottom;
pos = (268,0);
},
{
name = ogonek;
pos = (334,0);
},
{
name = top;
pos = (288,720);
},
{
name = topright;
pos = (516,720);
}
);
background = {
shapes = (
{
pos = (3,0);
ref = H;
}
);
};
layerId = m01;
shapes = (
{
closed = 1;
nodes = (
(383,-9,o),
(454,71,o),
(454,192,cs),
(454,634,ls),
(454,671,o),
(464,689,o),
(488,693,cs),
(511,697,ls),
(520,699,o),
(524,702,o),
(524,709,cs),
(524,716,o),
(519,720,o),
(509,720,cs),
(365,720,ls),
(355,720,o),
(350,716,o),
(350,708,cs),
(350,702,o),
(354,698,o),
(361,697,cs),
(388,693,ls),
(412,689,o),
(422,671,o),
(422,633,cs),
(422,191,ls),
(422,90,o),
(374,31,o),
(292,31,cs),
(211,31,o),
(163,89,o),
(163,191,cs),
(163,653,ls),
(163,681,o),
(170,689,o),
(197,693,cs),
(224,697,ls),
(231,698,o),
(235,702,o),
(235,708,cs),
(235,716,o),
(230,720,o),
(220,720,cs),
(37,720,ls),
(27,720,o),
(22,716,o),
(22,709,cs),
(22,702,o),
(26,699,o),
(35,697,cs),
(58,693,ls),
(86,688,o),
(92,682,o),
(92,654,cs),
(92,192,ls),
(92,73,o),
(167,-9,o),
(275,-9,cs)
);
}
);
width = 536;
}
);
unicode = 85;
},
{
glyphname = V;
lastChange = "2022-09-01 20:54:24 +0000";
layers = (
{
background = {
shapes = (
{
closed = 1;
nodes = (
(234,-10,o),
(241,-7,o),
(244,6,cs),
(399,631,ls),
(408,668,o),
(420,689,o),
(446,694,cs),
(461,697,ls),
(470,699,o),
(475,703,o),
(475,710,cs),
(475,717,o),
(469,720,o),
(460,720,cs),
(320,720,ls),
(311,720,o),
(306,716,o),
(306,709,cs),
(306,703,o),
(311,699,o),
(323,697,cs),
(338,695,ls),
(369,691,o),
(377,670,o),
(368,632,cs),
(250,157,l),
(245,157,l),
(125,653,ls),
(118,682,o),
(123,693,o),
(146,695,cs),
(165,697,ls),
(177,698,o),
(182,703,o),
(182,709,cs),
(182,716,o),
(177,720,o),
(168,720,cs),
(-3,720,ls),
(-12,720,o),
(-18,717,o),
(-18,710,cs),
(-18,703,o),
(-13,699,o),
(-4,697,cs),
(11,694,ls),
(37,689,o),
(46,677,o),
(55,640,cs),
(213,6,ls),
(216,-7,o),
(223,-10,o),
(229,-10,cs)
);
}
);
};
layerId = m01;
shapes = (
{
closed = 1;
nodes = (
(234,-10,o),
(241,-7,o),
(244,6,cs),
(399,631,ls),
(408,668,o),
(420,689,o),
(446,694,cs),
(461,697,ls),
(470,699,o),
(475,703,o),
(475,710,cs),
(475,717,o),
(469,720,o),
(460,720,cs),
(320,720,ls),
(311,720,o),
(306,716,o),
(306,709,cs),
(306,703,o),
(311,699,o),
(323,697,cs),
(338,695,ls),
(369,691,o),
(377,670,o),
(368,632,cs),
(253,172,ls),
(251,164,o),
(243,164,o),
(241,172,cs),
(125,653,ls),
(118,682,o),
(123,693,o),
(146,695,cs),
(165,697,ls),
(177,698,o),
(182,703,o),
(182,709,cs),
(182,716,o),
(177,720,o),
(168,720,cs),
(-3,720,ls),
(-12,720,o),
(-18,717,o),
(-18,710,cs),
(-18,703,o),
(-13,699,o),
(-4,697,cs),
(11,694,ls),
(37,689,o),
(46,677,o),
(55,640,cs),
(213,6,ls),
(216,-7,o),
(223,-10,o),
(229,-10,cs)
);
}
);
width = 457;
}
);
unicode = 86;
},
{
glyphname = W;
kernLeft = W;
kernRight = W;
lastChange = "2022-09-01 20:54:28 +0000";
layers = (
{
anchors = (
{
name = bottom;
pos = (326,0);
},
{
name = top;
pos = (346,720);
}
);
background = {
shapes = (
{
closed = 1;
nodes = (
(437,-10,o),
(443,-7,o),
(446,6,cs),
(601,631,ls),
(612,677,o),
(623,694,o),
(641,696,cs),
(652,697,ls),
(663,698,o),
(669,702,o),
(669,709,cs),
(669,716,o),
(662,720,o),
(652,720,cs),
(540,720,ls),
(531,720,o),
(526,716,o),
(526,710,cs),
(526,703,o),
(530,699,o),
(541,697,cs),
(552,695,ls),
(575,691,o),
(579,670,o),
(570,632,cs),
(452,157,l),
(447,157,l),
(327,653,ls),
(320,682,o),
(323,692,o),
(340,695,cs),
(351,697,ls),
(361,699,o),
(366,703,o),
(366,709,cs),
(366,716,o),
(361,720,o),
(352,720,cs),
(215,720,ls),
(206,720,o),
(200,717,o),
(200,710,cs),
(200,703,o),
(205,699,o),
(214,697,cs),
(229,694,ls),
(244,691,o),
(251,677,o),
(260,640,cs),
(418,6,ls),
(421,-7,o),
(426,-10,o),
(432,-10,cs)
);
},
{
closed = 1;
nodes = (
(342,477,l),
(252,151,l),
(247,151,l),
(125,653,ls),
(118,682,o),
(123,691,o),
(146,695,cs),
(157,697,ls),
(167,699,o),
(172,703,o),
(172,709,cs),
(172,716,o),
(167,720,o),
(158,720,cs),
(-3,720,ls),
(-12,720,o),
(-18,717,o),
(-18,710,cs),
(-18,703,o),
(-13,699,o),
(-4,697,cs),
(11,694,ls),
(37,689,o),
(46,677,o),
(55,640,cs),
(213,6,ls),
(216,-7,o),
(222,-10,o),
(228,-10,cs),
(233,-10,o),
(238,-7,o),
(242,6,cs),
(360,432,l)
);
},
{
closed = 1;
nodes = (
(371,395,l),
(439,631,ls),
(452,676,o),
(461,694,o),
(479,696,cs),
(490,697,ls),
(501,698,o),
(507,702,o),
(507,709,cs),
(507,716,o),
(500,720,o),
(490,720,cs),
(395,720,ls),
(386,720,o),
(381,715,o),
(381,709,cs),
(381,702,o),
(385,699,o),
(396,697,cs),
(407,695,ls),
(419,693,o),
(425,682,o),
(410,632,cs),
(353,440,l)
);
}
);
};
layerId = m01;
shapes = (
{
closed = 1;
nodes = (
(437,-10,o),
(443,-7,o),
(446,6,cs),
(601,631,ls),
(612,677,o),
(623,694,o),
(641,696,cs),
(652,697,ls),
(663,698,o),
(669,702,o),
(669,709,cs),
(669,716,o),
(662,720,o),
(652,720,cs),
(540,720,ls),
(531,720,o),
(526,716,o),
(526,710,cs),
(526,703,o),
(530,699,o),
(541,697,cs),
(552,695,ls),
(575,691,o),
(579,670,o),
(570,632,cs),
(455,171,ls),
(453,161,o),
(445,162,o),
(443,171,cs),
(398,359,ls),
(386,411,o),
(386,450,o),
(401,500,cs),
(439,631,ls),
(452,676,o),
(461,694,o),
(479,696,cs),
(490,697,ls),
(501,698,o),
(507,702,o),
(507,709,cs),
(507,716,o),
(500,720,o),
(490,720,cs),
(395,720,ls),
(386,720,o),
(381,715,o),
(381,709,cs),
(381,702,o),
(385,699,o),
(396,697,cs),
(407,695,ls),
(419,693,o),
(425,682,o),
(410,632,cs),
(374,510,ls),
(371,501,o),
(363,501,o),
(361,510,cs),
(327,653,ls),
(320,682,o),
(323,692,o),
(340,695,cs),
(351,697,ls),
(361,699,o),
(366,703,o),
(366,709,cs),
(366,716,o),
(361,720,o),
(352,720,cs),
(215,720,ls),
(206,720,o),
(200,717,o),
(200,710,cs),
(200,703,o),
(205,699,o),
(214,697,cs),
(229,694,ls),
(244,691,o),
(251,677,o),
(260,640,cs),
(302,469,ls),
(315,417,o),
(315,379,o),
(301,328,cs),
(256,165,ls),
(253,156,o),
(245,156,o),
(243,165,cs),
(125,653,ls),
(118,682,o),
(123,691,o),
(146,695,cs),
(157,697,ls),
(167,699,o),
(172,703,o),
(172,709,cs),
(172,716,o),
(167,720,o),
(158,720,cs),
(-3,720,ls),
(-12,720,o),
(-18,717,o),
(-18,710,cs),
(-18,703,o),
(-13,699,o),
(-4,697,cs),
(11,694,ls),
(37,689,o),
(46,677,o),
(55,640,cs),
(213,6,ls),
(216,-7,o),
(222,-10,o),
(228,-10,cs),
(233,-10,o),
(238,-7,o),
(242,6,cs),
(328,316,ls),
(331,325,o),
(339,326,o),
(341,316,cs),
(418,6,ls),
(421,-7,o),
(426,-10,o),
(432,-10,cs)
);
}
);
width = 651;
}
);
unicode = 87;
},
{
glyphname = X;
lastChange = "2022-09-01 20:54:34 +0000";
layers = (
{
background = {
shapes = (
{
closed = 1;
nodes = (
(509,0,ls),
(521,0,o),
(527,4,o),
(527,10,cs),
(527,17,o),
(522,22,o),
(510,24,cs),
(491,27,ls),
(475,30,o),
(459,35,o),
(445,67,cs),
(183,653,ls),
(171,679,o),
(181,690,o),
(204,694,cs),
(223,697,ls),
(234,699,o),
(240,703,o),
(240,710,cs),
(240,716,o),
(234,720,o),
(222,720,cs),
(46,720,ls),
(35,720,o),
(29,716,o),
(29,710,cs),
(29,703,o),
(34,699,o),
(45,697,cs),
(64,694,ls),
(81,691,o),
(97,683,o),
(110,653,cs),
(373,67,ls),
(384,42,o),
(373,30,o),
(350,27,cs),
(330,24,ls),
(320,22,o),
(314,18,o),
(314,12,cs),
(314,5,o),
(320,0,o),
(332,0,cs)
);
},
{
closed = 1;
nodes = (
(202,0,ls),
(215,0,o),
(220,4,o),
(220,10,cs),
(220,17,o),
(215,21,o),
(203,24,cs),
(175,30,ls),
(152,35,o),
(149,48,o),
(161,77,cs),
(258,312,l),
(277,312,l),
(232,382,l),
(241,361,o),
(240,346,o),
(233,329,cs),
(133,91,ls),
(116,51,o),
(94,36,o),
(51,28,cs),
(35,25,ls),
(24,23,o),
(20,18,o),
(20,12,cs),
(20,6,o),
(24,0,o),
(38,0,cs)
);
},
{
closed = 1;
nodes = (
(308,375,o),
(308,390,o),
(315,407,cs),
(410,629,ls),
(427,669,o),
(449,686,o),
(482,692,cs),
(498,695,ls),
(509,697,o),
(513,702,o),
(513,708,cs),
(513,714,o),
(509,720,o),
(495,720,cs),
(342,720,ls),
(329,720,o),
(324,716,o),
(324,710,cs),
(324,703,o),
(329,699,o),
(341,696,cs),
(369,690,ls),
(392,685,o),
(395,672,o),
(383,643,cs),
(290,424,l),
(271,424,l),
(317,354,l)
);
}
);
};
layerId = m01;
shapes = (
{
closed = 1;
nodes = (
(202,0,ls),
(215,0,o),
(220,4,o),
(220,10,cs),
(220,17,o),
(215,21,o),
(203,24,cs),
(175,30,ls),
(152,35,o),
(149,48,o),
(161,77,cs),
(251,296,ls),
(256,308,o),
(265,308,o),
(270,296,cs),
(373,67,ls),
(384,42,o),
(373,30,o),
(350,27,cs),
(330,24,ls),
(320,22,o),
(314,18,o),
(314,12,cs),
(314,5,o),
(320,0,o),
(332,0,cs),
(509,0,ls),
(521,0,o),
(527,4,o),
(527,10,cs),
(527,17,o),
(522,22,o),
(510,24,cs),
(491,27,ls),
(475,30,o),
(459,35,o),
(445,67,cs),
(316,356,ls),
(307,375,o),
(308,390,o),
(315,407,cs),
(410,629,ls),
(427,669,o),
(449,686,o),
(482,692,cs),
(498,695,ls),
(509,697,o),
(513,702,o),
(513,708,cs),
(513,714,o),
(509,720,o),
(495,720,cs),
(342,720,ls),
(329,720,o),
(324,716,o),
(324,710,cs),
(324,703,o),
(329,699,o),
(341,696,cs),
(369,690,ls),
(392,685,o),
(395,672,o),
(383,643,cs),
(297,440,ls),
(292,428,o),
(283,428,o),
(278,440,cs),
(183,653,ls),
(171,679,o),
(181,690,o),
(204,694,cs),
(223,697,ls),
(234,699,o),
(240,703,o),
(240,710,cs),
(240,716,o),
(234,720,o),
(222,720,cs),
(46,720,ls),
(35,720,o),
(29,716,o),
(29,710,cs),
(29,703,o),
(34,699,o),
(45,697,cs),
(64,694,ls),
(81,691,o),
(97,683,o),
(110,653,cs),
(235,376,ls),
(243,359,o),
(239,344,o),
(233,329,cs),
(133,91,ls),
(116,51,o),
(94,36,o),
(51,28,cs),
(35,25,ls),
(24,23,o),
(20,18,o),
(20,12,cs),
(20,6,o),
(24,0,o),
(38,0,cs)
);
}
);
width = 546;
}
);
unicode = 88;
},
{
glyphname = Y;
kernLeft = Y;
kernRight = Y;
lastChange = "2022-09-01 21:02:35 +0000";
layers = (
{
anchors = (
{
name = bottom;
pos = (239,0);
},
{
name = top;
pos = (259,720);
},
{
name = topleft;
pos = (20,720);
}
);
background = {
shapes = (
{
closed = 1;
nodes = (
(352,0,ls),
(362,0,o),
(367,4,o),
(367,11,cs),
(367,17,o),
(363,22,o),
(354,23,cs),
(309,30,ls),
(283,34,o),
(275,41,o),
(275,69,cs),
(275,313,ls),
(275,334,o),
(279,349,o),
(288,368,cs),
(419,631,ls),
(441,675,o),
(452,691,o),
(471,695,cs),
(481,697,ls),
(490,699,o),
(495,703,o),
(495,710,cs),
(495,717,o),
(489,720,o),
(480,720,cs),
(338,720,ls),
(329,720,o),
(324,716,o),
(324,709,cs),
(324,703,o),
(329,699,o),
(341,697,cs),
(363,694,ls),
(394,690,o),
(403,666,o),
(386,632,cs),
(260,376,l),
(255,376,l),
(125,653,ls),
(112,681,o),
(123,693,o),
(146,695,cs),
(165,697,ls),
(177,698,o),
(182,703,o),
(182,709,cs),
(182,716,o),
(177,720,o),
(168,720,cs),
(-3,720,ls),
(-12,720,o),
(-18,717,o),
(-18,710,cs),
(-18,703,o),
(-13,699,o),
(-4,697,cs),
(5,695,ls),
(27,690,o),
(37,678,o),
(47,656,cs),
(194,348,ls),
(201,333,o),
(204,321,o),
(204,305,cs),
(204,69,ls),
(204,41,o),
(196,34,o),
(170,30,cs),
(125,23,ls),
(116,22,o),
(112,17,o),
(112,11,cs),
(112,4,o),
(117,0,o),
(127,0,cs)
);
}
);
};
layerId = m01;
shapes = (
{
closed = 1;
nodes = (
(352,0,ls),
(362,0,o),
(367,4,o),
(367,11,cs),
(367,17,o),
(363,22,o),
(354,23,cs),
(309,30,ls),
(283,34,o),
(275,41,o),
(275,69,cs),
(275,313,ls),
(275,334,o),
(279,349,o),
(288,368,cs),
(419,631,ls),
(441,675,o),
(452,691,o),
(471,695,cs),
(481,697,ls),
(490,699,o),
(495,703,o),
(495,710,cs),
(495,717,o),
(489,720,o),
(480,720,cs),
(338,720,ls),
(329,720,o),
(324,716,o),
(324,709,cs),
(324,703,o),
(329,699,o),
(341,697,cs),
(363,694,ls),
(394,690,o),
(403,666,o),
(386,632,cs),
(268,391,ls),
(263,381,o),
(253,381,o),
(248,391,cs),
(125,653,ls),
(112,681,o),
(123,693,o),
(146,695,cs),
(165,697,ls),
(177,698,o),
(182,703,o),
(182,709,cs),
(182,716,o),
(177,720,o),
(168,720,cs),
(-3,720,ls),
(-12,720,o),
(-18,717,o),
(-18,710,cs),
(-18,703,o),
(-13,699,o),
(-4,697,cs),
(5,695,ls),
(27,690,o),
(37,678,o),
(47,656,cs),
(194,348,ls),
(201,333,o),
(204,321,o),
(204,305,cs),
(204,69,ls),
(204,41,o),
(196,34,o),
(170,30,cs),
(125,23,ls),
(116,22,o),
(112,17,o),
(112,11,cs),
(112,4,o),
(117,0,o),
(127,0,cs)
);
}
);
width = 477;
}
);
unicode = 89;
},
{
glyphname = Z;
kernLeft = Z;
kernRight = Z;
lastChange = "2022-08-31 20:25:35 +0000";
layers = (
{
anchors = (
{
name = bottom;
pos = (214,0);
},
{
name = center;
pos = (214,360);
},
{
name = top;
pos = (234,720);
}
);
background = {
shapes = (
{
closed = 1;
nodes = (
(364,0,ls),
(379,0,o),
(388,8,o),
(389,23,cs),
(401,211,ls),
(402,222,o),
(396,228,o),
(389,228,cs),
(381,228,o),
(376,223,o),
(374,215,cs),
(357,128,ls),
(341,45,o),
(295,30,o),
(249,30,cs),
(100,30,l),
(100,35,l),
(394,691,ls),
(402,709,o),
(394,720,o),
(375,720,cs),
(154,720,ls),
(90,720,o),
(87,740,o),
(74,740,cs),
(64,740,o),
(58,732,o),
(57,717,cs),
(39,531,ls),
(38,520,o),
(44,514,o),
(52,514,cs),
(60,514,o),
(64,519,o),
(66,527,cs),
(81,577,ls),
(108,666,o),
(149,690,o),
(199,690,cs),
(315,690,l),
(315,685,l),
(21,29,ls),
(13,11,o),
(21,0,o),
(40,0,cs)
);
}
);
};
layerId = m01;
shapes = (
{
closed = 1;
nodes = (
(364,0,ls),
(379,0,o),
(388,8,o),
(389,23,cs),
(401,211,ls),
(402,222,o),
(396,228,o),
(389,228,cs),
(381,228,o),
(376,223,o),
(374,215,cs),
(361,148,ls),
(341,45,o),
(283,30,o),
(227,30,cs),
(116,30,ls),
(106,30,o),
(101,36,o),
(105,46,cs),
(394,691,ls),
(402,709,o),
(394,720,o),
(375,720,cs),
(154,720,ls),
(90,720,o),
(87,740,o),
(74,740,cs),
(64,740,o),
(58,732,o),
(57,717,cs),
(39,531,ls),
(38,520,o),
(44,514,o),
(52,514,cs),
(60,514,o),
(64,519,o),
(66,527,cs),
(81,577,ls),
(107,665,o),
(149,690,o),
(199,690,cs),
(299,690,ls),
(309,690,o),
(314,684,o),
(310,674,cs),
(21,29,ls),
(13,11,o),
(21,0,o),
(40,0,cs)
);
}
);
width = 427;
}
);
unicode = 90;
},
{
glyphname = a;
kernLeft = a;
kernRight = a;
lastChange = "2022-09-01 20:17:48 +0000";
layers = (
{
anchors = (
{
name = bottom;
pos = (200,0);
},
{
name = ogonek;
pos = (344,0);
},
{
name = top;
pos = (200,510);
}
);
background = {
shapes = (
{
closed = 1;
nodes = (
(169,-9,o),
(199,14,o),
(231,58,cs),
(240,71,o),
(252,70,o),
(254,57,cs),
(260,21,o),
(279,-9,o),
(311,-9,cs),
(354,-9,o),
(394,32,o),
(394,129,cs),
(394,141,o),
(389,146,o),
(382,146,cs),
(375,146,o),
(369,141,o),
(369,130,cs),
(369,74,o),
(351,53,o),
(334,53,cs),
(321,53,o),
(313,66,o),
(313,95,cs),
(313,401,ls),
(313,479,o),
(278,516,o),
(214,516,cs),
(129,516,o),
(31,433,o),
(31,355,cs),
(31,337,o),
(42,327,o),
(59,327,cs),
(81,327,o),
(107,345,o),
(114,388,cs),
(126,458,o),
(155,486,o),
(189,486,cs),
(223,486,o),
(245,461,o),
(245,397,cs),
(245,175,ls),
(245,97,o),
(198,37,o),
(147,37,cs),
(114,37,o),
(96,61,o),
(96,106,cs),
(96,186,o),
(155,241,o),
(254,269,c),
(254,296,l),
(121,259,o),
(24,178,o),
(24,88,cs),
(24,29,o),
(64,-9,o),
(120,-9,cs)
);
}
);
};
layerId = m01;
shapes = (
{
closed = 1;
nodes = (
(169,-9,o),
(199,14,o),
(231,58,cs),
(240,71,o),
(252,70,o),
(254,57,cs),
(260,21,o),
(279,-9,o),
(311,-9,cs),
(354,-9,o),
(394,32,o),
(394,129,cs),
(394,141,o),
(389,146,o),
(382,146,cs),
(375,146,o),
(369,141,o),
(369,130,cs),
(369,74,o),
(351,53,o),
(334,53,cs),
(321,53,o),
(313,66,o),
(313,95,cs),
(313,401,ls),
(313,479,o),
(278,516,o),
(214,516,cs),
(129,516,o),
(31,433,o),
(31,355,cs),
(31,337,o),
(42,327,o),
(59,327,cs),
(81,327,o),
(107,345,o),
(114,388,cs),
(126,458,o),
(155,486,o),
(189,486,cs),
(223,486,o),
(245,461,o),
(245,397,cs),
(245,306,ls),
(245,298,o),
(241,292,o),
(232,289,cs),
(111,250,o),
(24,173,o),
(24,88,cs),
(24,29,o),
(64,-9,o),
(120,-9,cs)
);
},
{
closed = 1;
nodes = (
(114,37,o),
(96,61,o),
(96,106,cs),
(96,178,o),
(143,229,o),
(224,259,cs),
(237,264,o),
(245,259,o),
(245,248,cs),
(245,175,ls),
(245,97,o),
(198,37,o),
(147,37,cs)
);
}
);
width = 399;
}
);
unicode = 97;
},
{
glyphname = ae;
kernLeft = a;
kernRight = e;
lastChange = "2022-08-23 19:55:07 +0000";
layers = (
{
background = {
shapes = (
{
closed = 1;
nodes = (
(169,-9,o),
(199,14,o),
(231,58,cs),
(240,71,o),
(252,70,o),
(313,95,c),
(313,401,ls),
(313,479,o),
(278,516,o),
(214,516,cs),
(129,516,o),
(31,433,o),
(31,355,cs),
(31,337,o),
(42,327,o),
(59,327,cs),
(81,327,o),
(107,345,o),
(114,388,cs),
(126,458,o),
(155,486,o),
(189,486,cs),
(223,486,o),
(245,461,o),
(245,397,cs),
(245,306,ls),
(245,298,o),
(241,292,o),
(232,289,cs),
(111,250,o),
(24,173,o),
(24,88,cs),
(24,29,o),
(64,-9,o),
(120,-9,cs)
);
},
{
closed = 1;
nodes = (
(114,37,o),
(96,61,o),
(96,106,cs),
(96,178,o),
(143,229,o),
(224,259,cs),
(237,264,o),
(245,259,o),
(245,248,cs),
(245,175,ls),
(245,97,o),
(198,37,o),
(147,37,cs)
);
},
{
closed = 1;
nodes = (
(476,-9,o),
(524,32,o),
(546,151,cs),
(548,163,o),
(545,171,o),
(537,171,cs),
(530,171,o),
(526,167,o),
(524,160,cs),
(504,74,o),
(474,42,o),
(423,42,cs),
(359,42,o),
(313,113,o),
(313,254,cs),
(313,270,o),
(320,277,o),
(333,277,cs),
(523,277,ls),
(540,277,o),
(548,289,o),
(548,310,cs),
(548,455,o),
(494,516,o),
(416,516,cs),
(317,516,o),
(251,406,o),
(251,249,cs),
(251,94,o),
(314,-9,o),
(410,-9,cs)
);
},
{
closed = 1;
nodes = (
(320,302,o),
(314,308,o),
(315,318,cs),
(325,428,o),
(363,491,o),
(415,491,cs),
(457,491,o),
(479,439,o),
(479,352,cs),
(479,317,o),
(464,302,o),
(431,302,cs),
(330,302,ls)
);
}
);
};
layerId = m01;
shapes = (
{
closed = 1;
nodes = (
(168,-9,o),
(203,15,o),
(231,55,cs),
(313,175,l),
(313,401,ls),
(313,479,o),
(278,516,o),
(214,516,cs),
(129,516,o),
(31,433,o),
(31,355,cs),
(31,337,o),
(42,327,o),
(59,327,cs),
(81,327,o),
(107,345,o),
(114,388,cs),
(126,458,o),
(155,486,o),
(189,486,cs),
(223,486,o),
(245,461,o),
(245,397,cs),
(245,306,ls),
(245,298,o),
(241,292,o),
(232,289,cs),
(111,250,o),
(24,173,o),
(24,88,cs),
(24,29,o),
(64,-9,o),
(119,-9,cs)
);
},
{
closed = 1;
nodes = (
(114,37,o),
(96,61,o),
(96,106,cs),
(96,178,o),
(143,229,o),
(224,259,cs),
(237,264,o),
(245,259,o),
(245,248,cs),
(245,175,ls),
(245,97,o),
(198,37,o),
(147,37,cs)
);
},
{
closed = 1;
nodes = (
(476,-9,o),
(524,32,o),
(546,151,cs),
(548,163,o),
(545,171,o),
(537,171,cs),
(530,171,o),
(526,167,o),
(524,160,cs),
(504,74,o),
(474,42,o),
(423,42,cs),
(359,42,o),
(313,113,o),
(313,254,cs),
(313,270,o),
(320,277,o),
(333,277,cs),
(523,277,ls),
(540,277,o),
(548,289,o),
(548,310,cs),
(548,455,o),
(494,516,o),
(416,516,cs),
(317,516,o),
(251,406,o),
(251,249,cs),
(251,94,o),
(314,-9,o),
(410,-9,cs)
);
},
{
closed = 1;
nodes = (
(320,302,o),
(314,308,o),
(315,318,cs),
(325,428,o),
(363,491,o),
(415,491,cs),
(457,491,o),
(479,439,o),
(479,352,cs),
(479,317,o),
(464,302,o),
(431,302,cs),
(330,302,ls)
);
}
);
width = 573;
}
);
metricRight = e;
unicode = 230;
},
{
glyphname = b;
kernRight = o;
lastChange = "2022-09-01 20:59:06 +0000";
layers = (
{
background = {
shapes = (
{
closed = 1;
nodes = (
(64,-9,cs),
(70,-9,o),
(75,-6,o),
(82,3,cs),
(130,61,l),
(130,724,ls),
(130,735,o),
(126,740,o),
(119,740,cs),
(113,740,o),
(106,737,o),
(95,730,cs),
(78,719,o),
(53,708,o),
(16,700,cs),
(9,699,o),
(5,694,o),
(5,688,cs),
(5,682,o),
(9,677,o),
(16,676,cs),
(37,673,ls),
(56,670,o),
(62,664,o),
(62,640,cs),
(62,160,ls),
(62,80,o),
(59,35,o),
(54,5,cs),
(52,-4,o),
(58,-9,o)
);
},
{
closed = 1;
nodes = (
(318,-9,o),
(403,107,o),
(403,274,cs),
(403,419,o),
(337,516,o),
(245,516,cs),
(209,516,o),
(180,501,o),
(156,477,cs),
(135,456,l),
(126,456,l),
(130,365,l),
(130,432,o),
(168,471,o),
(214,471,cs),
(287,471,o),
(329,397,o),
(329,260,cs),
(329,110,o),
(279,16,o),
(204,16,cs),
(160,16,o),
(130,53,o),
(130,113,c),
(92,27,l),
(107,27,l),
(137,2,o),
(168,-9,o),
(201,-9,cs)
);
}
);
};
layerId = m01;
shapes = (
{
closed = 1;
nodes = (
(318,-9,o),
(403,107,o),
(403,274,cs),
(403,419,o),
(337,516,o),
(245,516,cs),
(209,516,o),
(180,502,o),
(151,472,cs),
(140,461,o),
(130,466,o),
(130,477,cs),
(130,724,ls),
(130,735,o),
(126,740,o),
(119,740,cs),
(113,740,o),
(106,737,o),
(95,730,cs),
(78,719,o),
(53,708,o),
(16,700,cs),
(9,699,o),
(5,694,o),
(5,688,cs),
(5,682,o),
(9,677,o),
(16,676,cs),
(37,673,ls),
(56,670,o),
(62,664,o),
(62,640,cs),
(62,160,ls),
(62,80,o),
(59,35,o),
(54,5,cs),
(52,-4,o),
(55,-9,o),
(62,-9,cs),
(68,-9,o),
(74,-6,o),
(87,9,cs),
(99,25,o),
(111,28,o),
(127,17,cs),
(153,-1,o),
(178,-9,o),
(206,-9,cs)
);
},
{
closed = 1;
nodes = (
(160,16,o),
(130,53,o),
(130,113,cs),
(130,365,ls),
(130,432,o),
(168,471,o),
(214,471,cs),
(287,471,o),
(329,397,o),
(329,260,cs),
(329,110,o),
(279,16,o),
(204,16,cs)
);
}
);
width = 443;
}
);
unicode = 98;
},
{
glyphname = c;
kernLeft = o;
kernRight = c;
lastChange = "2022-09-01 20:18:01 +0000";
layers = (
{
anchors = (
{
name = bottom;
pos = (182,0);
},
{
name = top;
pos = (208,510);
}
);
background = {
shapes = (
{
closed = 1;
nodes = (
(246,-9,o),
(293,26,o),
(316,167,cs),
(318,179,o),
(315,187,o),
(307,187,cs),
(300,187,o),
(297,183,o),
(295,176,cs),
(272,74,o),
(243,42,o),
(196,42,cs),
(137,42,o),
(97,114,o),
(97,257,cs),
(97,405,o),
(141,491,o),
(194,491,cs),
(229,491,o),
(248,463,o),
(266,392,cs),
(276,352,ls),
(278,343,o),
(282,339,o),
(289,339,cs),
(296,339,o),
(300,344,o),
(300,354,cs),
(297,480,ls),
(297,488,o),
(295,492,o),
(289,496,cs),
(269,509,o),
(243,516,o),
(216,516,cs),
(107,516,o),
(23,406,o),
(23,236,cs),
(23,84,o),
(92,-9,o),
(180,-9,cs)
);
}
);
};
layerId = m01;
shapes = (
{
closed = 1;
nodes = (
(246,-9,o),
(293,26,o),
(316,167,cs),
(318,179,o),
(315,187,o),
(307,187,cs),
(300,187,o),
(297,183,o),
(295,176,cs),
(272,74,o),
(243,42,o),
(196,42,cs),
(137,42,o),
(97,114,o),
(97,257,cs),
(97,425,o),
(149,490,o),
(189,490,cs),
(223,490,o),
(246,462,o),
(274,352,cs),
(276,343,o),
(281,339,o),
(288,339,cs),
(294,339,o),
(300,344,o),
(300,354,cs),
(298,476,ls),
(298,487,o),
(295,493,o),
(288,498,cs),
(269,511,o),
(248,516,o),
(216,516,cs),
(107,516,o),
(23,406,o),
(23,236,cs),
(23,84,o),
(92,-9,o),
(180,-9,cs)
);
}
);
width = 339;
}
);
unicode = 99;
},
{
glyphname = d;
kernLeft = o;
kernRight = d;
lastChange = "2022-09-01 20:59:12 +0000";
layers = (
{
anchors = (
{
name = bottom;
pos = (229,0);
},
{
name = center;
pos = (229,255);
},
{
name = top;
pos = (229,740);
},
{
name = topright;
pos = (402,740);
}
);
background = {
shapes = (
{
closed = 1;
nodes = (
(223,-9,o),
(249,6,o),
(280,47,cs),
(298,71,l),
(307,71,l),
(303,169,l),
(303,95,o),
(254,37,o),
(203,37,cs),
(141,37,o),
(104,110,o),
(104,247,cs),
(104,397,o),
(154,491,o),
(229,491,cs),
(273,491,o),
(303,454,o),
(303,394,c),
(341,480,l),
(326,480,l),
(296,505,o),
(265,516,o),
(232,516,cs),
(115,516,o),
(30,400,o),
(30,233,cs),
(30,88,o),
(92,-9,o),
(181,-9,cs)
);
},
{
closed = 1;
nodes = (
(412,-9,o),
(452,32,o),
(452,129,cs),
(452,141,o),
(447,146,o),
(440,146,cs),
(433,146,o),
(427,141,o),
(427,130,cs),
(427,74,o),
(409,53,o),
(392,53,cs),
(379,53,o),
(371,66,o),
(371,95,cs),
(371,724,ls),
(371,735,o),
(367,740,o),
(360,740,cs),
(354,740,o),
(347,737,o),
(336,730,cs),
(319,719,o),
(294,708,o),
(252,700,cs),
(245,699,o),
(241,694,o),
(241,688,cs),
(241,682,o),
(245,677,o),
(252,676,cs),
(278,673,ls),
(297,671,o),
(303,664,o),
(303,640,cs),
(303,73,ls),
(303,21,o),
(333,-9,o),
(370,-9,cs)
);
}
);
};
layerId = m01;
shapes = (
{
closed = 1;
nodes = (
(225,-9,o),
(251,6,o),
(288,58,cs),
(295,68,o),
(304,67,o),
(306,57,cs),
(312,21,o),
(331,-9,o),
(370,-9,cs),
(412,-9,o),
(452,32,o),
(452,129,cs),
(452,141,o),
(447,146,o),
(440,146,cs),
(433,146,o),
(427,141,o),
(427,130,cs),
(427,74,o),
(409,53,o),
(392,53,cs),
(379,53,o),
(371,66,o),
(371,95,cs),
(371,724,ls),
(371,735,o),
(367,740,o),
(360,740,cs),
(354,740,o),
(347,737,o),
(336,730,cs),
(319,719,o),
(294,708,o),
(252,700,cs),
(245,699,o),
(241,694,o),
(241,688,cs),
(241,682,o),
(245,677,o),
(252,676,cs),
(278,673,ls),
(297,671,o),
(303,664,o),
(303,640,cs),
(303,512,ls),
(303,502,o),
(297,500,o),
(287,505,cs),
(269,513,o),
(251,516,o),
(232,516,cs),
(115,516,o),
(30,400,o),
(30,233,cs),
(30,88,o),
(92,-9,o),
(181,-9,cs)
);
},
{
closed = 1;
nodes = (
(141,37,o),
(104,110,o),
(104,247,cs),
(104,397,o),
(154,491,o),
(229,491,cs),
(273,491,o),
(303,454,o),
(303,394,cs),
(303,169,ls),
(303,95,o),
(254,37,o),
(203,37,cs)
);
}
);
width = 457;
}
);
unicode = 100;
},
{
glyphname = eth;
kernLeft = o;
kernRight = o;
lastChange = "2022-08-23 19:55:36 +0000";
layers = (
{
layerId = m01;
shapes = (
{
closed = 1;
nodes = (
(299,-9,o),
(368,100,o),
(368,261,cs),
(368,480,o),
(233,709,o),
(62,750,cs),
(49,753,o),
(43,746,o),
(43,738,cs),
(43,731,o),
(47,727,o),
(54,725,cs),
(171,686,o),
(242,580,o),
(276,442,cs),
(279,432,o),
(273,429,o),
(265,434,cs),
(244,449,o),
(219,456,o),
(192,456,cs),
(98,456,o),
(28,360,o),
(28,229,cs),
(28,98,o),
(104,-9,o),
(198,-9,cs)
);
},
{
closed = 1;
nodes = (
(132,18,o),
(100,84,o),
(100,224,cs),
(100,366,o),
(130,431,o),
(196,431,cs),
(266,431,o),
(302,358,o),
(302,218,cs),
(302,84,o),
(268,18,o),
(200,18,cs)
);
}
);
width = 404;
}
);
unicode = 240;
},
{
glyphname = dcroat;
kernLeft = o;
kernRight = d;
lastChange = "2022-08-23 19:55:32 +0000";
layers = (
{
layerId = m01;
shapes = (
{
ref = d;
},
{
closed = 1;
nodes = (
(427,578,ls),
(433,578,o),
(437,582,o),
(437,588,cs),
(437,596,ls),
(437,602,o),
(433,606,o),
(427,606,cs),
(152,606,ls),
(146,606,o),
(142,602,o),
(142,596,cs),
(142,588,ls),
(142,582,o),
(146,578,o),
(152,578,cs)
);
}
);
width = 457;
}
);
unicode = 273;
},
{
glyphname = e;
kernLeft = o;
kernRight = e;
lastChange = "2022-09-01 20:18:09 +0000";
layers = (
{
anchors = (
{
name = bottom;
pos = (178,0);
},
{
name = ogonek;
pos = (239,0);
},
{
name = top;
pos = (193,510);
}
);
background = {
shapes = (
{
closed = 1;
nodes = (
(258,-9,o),
(306,32,o),
(328,151,cs),
(330,163,o),
(327,171,o),
(319,171,cs),
(312,171,o),
(308,167,o),
(306,160,cs),
(286,74,o),
(256,42,o),
(205,42,cs),
(141,42,o),
(95,113,o),
(95,262,cs),
(95,407,o),
(137,491,o),
(197,491,cs),
(239,491,o),
(261,439,o),
(261,352,cs),
(261,317,o),
(246,302,o),
(213,302,cs),
(68,302,l),
(68,277,l),
(305,277,l),
(322,277,o),
(330,289,o),
(330,310,cs),
(330,455,o),
(276,516,o),
(198,516,cs),
(99,516,o),
(23,406,o),
(23,249,cs),
(23,94,o),
(96,-9,o),
(192,-9,cs)
);
}
);
};
layerId = m01;
shapes = (
{
closed = 1;
nodes = (
(258,-9,o),
(306,32,o),
(328,151,cs),
(330,163,o),
(327,171,o),
(319,171,cs),
(312,171,o),
(308,167,o),
(306,160,cs),
(286,74,o),
(256,42,o),
(205,42,cs),
(141,42,o),
(95,113,o),
(95,254,cs),
(95,270,o),
(102,277,o),
(115,277,cs),
(305,277,ls),
(322,277,o),
(330,289,o),
(330,310,cs),
(330,455,o),
(276,516,o),
(198,516,cs),
(99,516,o),
(23,406,o),
(23,249,cs),
(23,94,o),
(96,-9,o),
(192,-9,cs)
);
},
{
closed = 1;
nodes = (
(102,302,o),
(96,308,o),
(97,318,cs),
(107,428,o),
(145,491,o),
(197,491,cs),
(239,491,o),
(261,439,o),
(261,352,cs),
(261,317,o),
(246,302,o),
(213,302,cs),
(112,302,ls)
);
}
);
width = 355;
}
);
unicode = 101;
},
{
glyphname = f;
kernLeft = f;
lastChange = "2022-09-01 20:59:24 +0000";
layers = (
{
background = {
shapes = (
{
closed = 1;
nodes = (
(249,0,l),
(249,21,l),
(187,27,ls),
(160,30,o),
(153,38,o),
(153,67,cs),
(153,610,ls),
(153,692,o),
(169,717,o),
(196,717,cs),
(246,717,o),
(223,632,o),
(277,632,cs),
(298,632,o),
(312,645,o),
(312,670,cs),
(312,713,o),
(271,748,o),
(218,748,cs),
(132,748,o),
(85,654,o),
(85,550,cs),
(85,67,ls),
(85,38,o),
(77,28,o),
(51,25,cs),
(15,21,l),
(15,0,l)
);
},
{
closed = 1;
nodes = (
(85,518,o),
(65,502,o),
(28,502,c),
(28,482,l),
(263,482,l),
(263,510,l),
(144,510,l),
(85,544,l)
);
}
);
};
guides = (
{
pos = (259,276);
}
);
layerId = m01;
shapes = (
{
closed = 1;
nodes = (
(85,39,o),
(79,27,o),
(51,25,cs),
(26,23,ls),
(17,22,o),
(13,17,o),
(13,11,cs),
(13,4,o),
(18,0,o),
(28,0,cs),
(236,0,ls),
(246,0,o),
(251,4,o),
(251,12,cs),
(251,18,o),
(247,22,o),
(240,23,cs),
(187,28,ls),
(159,31,o),
(153,39,o),
(153,67,cs),
(153,470,ls),
(153,477,o),
(158,482,o),
(165,482,cs),
(251,482,ls),
(259,482,o),
(266,487,o),
(266,496,cs),
(266,505,o),
(259,510,o),
(251,510,cs),
(165,510,ls),
(158,510,o),
(153,515,o),
(153,522,cs),
(153,610,ls),
(153,692,o),
(169,717,o),
(196,717,cs),
(246,717,o),
(223,632,o),
(277,632,cs),
(298,632,o),
(312,645,o),
(312,670,cs),
(312,713,o),
(271,748,o),
(218,748,cs),
(132,748,o),
(85,654,o),
(85,550,cs),
(85,544,ls),
(85,521,o),
(69,506,o),
(38,503,cs),
(30,502,o),
(26,498,o),
(26,492,cs),
(26,486,o),
(31,482,o),
(38,482,cs),
(61,482,ls),
(76,482,o),
(85,473,o),
(85,458,cs),
(85,67,ls)
);
}
);
width = 288;
}
);
unicode = 102;
},
{
glyphname = g;
kernLeft = g;
kernRight = g;
lastChange = "2022-09-01 20:59:30 +0000";
layers = (
{
anchors = (
{
name = bottom;
pos = (196,-205);
},
{
name = top;
pos = (196,510);
}
);
background = {
shapes = (
{
closed = 1;
nodes = (
(293,-215,o),
(385,-144,o),
(385,-46,cs),
(385,36,o),
(325,87,o),
(229,87,cs),
(143,87,ls),
(114,87,o),
(105,111,o),
(123,132,cs),
(140,151,ls),
(157,170,o),
(173,180,o),
(197,180,cs),
(281,180,o),
(345,252,o),
(345,348,cs),
(345,444,o),
(281,516,o),
(197,516,cs),
(113,516,o),
(47,444,o),
(47,352,cs),
(47,288,o),
(81,226,o),
(136,200,cs),
(144,196,o),
(144,189,o),
(137,183,cs),
(65,121,ls),
(33,94,o),
(43,59,o),
(91,39,cs),
(107,32,o),
(107,18,o),
(91,4,cs),
(23,-56,o),
(14,-76,o),
(14,-111,cs),
(14,-168,o),
(77,-215,o),
(178,-215,cs)
);
},
{
closed = 1;
nodes = (
(116,-193,o),
(74,-154,o),
(74,-95,cs),
(74,-67,o),
(80,-45,o),
(121,-1,cs),
(140,19,o),
(156,26,o),
(197,26,cs),
(220,26,ls),
(284,26,o),
(321,-8,o),
(321,-68,cs),
(321,-141,o),
(262,-193,o),
(190,-193,cs)
);
},
{
closed = 1;
nodes = (
(148,205,o),
(118,261,o),
(118,350,cs),
(118,437,o),
(149,494,o),
(196,494,cs),
(243,494,o),
(274,437,o),
(274,350,cs),
(274,261,o),
(244,205,o),
(196,205,cs)
);
},
{
closed = 1;
nodes = (
(280,483,l),
(280,517,o),
(293,534,o),
(313,534,cs),
(335,534,o),
(333,514,o),
(359,514,cs),
(379,514,o),
(394,528,o),
(394,551,cs),
(394,578,o),
(372,598,o),
(342,598,cs),
(303,598,o),
(256,551,o),
(256,483,c)
);
}
);
};
guides = (
{
pos = (124,26);
},
{
angle = 221.1345;
pos = (146,16);
},
{
angle = -42.8789;
pos = (137,144);
showMeasurement = 1;
},
{
angle = 90;
pos = (208,82);
showMeasurement = 1;
}
);
layerId = m01;
shapes = (
{
closed = 1;
nodes = (
(293,-215,o),
(385,-144,o),
(385,-46,cs),
(385,36,o),
(325,87,o),
(229,87,cs),
(143,87,ls),
(114,87,o),
(105,111,o),
(123,132,cs),
(140,151,ls),
(157,170,o),
(173,180,o),
(197,180,cs),
(281,180,o),
(345,252,o),
(345,348,cs),
(345,401,o),
(326,446,o),
(294,477,cs),
(285,486,o),
(279,495,o),
(283,508,cs),
(287,525,o),
(298,534,o),
(313,534,cs),
(335,534,o),
(333,514,o),
(359,514,cs),
(379,514,o),
(394,528,o),
(394,551,cs),
(394,578,o),
(372,598,o),
(342,598,cs),
(310,598,o),
(272,567,o),
(260,517,cs),
(258,508,o),
(252,505,o),
(243,508,cs),
(229,513,o),
(213,516,o),
(197,516,cs),
(113,516,o),
(47,444,o),
(47,352,cs),
(47,288,o),
(81,226,o),
(136,200,cs),
(144,196,o),
(144,189,o),
(137,183,cs),
(65,121,ls),
(33,94,o),
(43,59,o),
(91,39,cs),
(107,32,o),
(107,18,o),
(91,4,cs),
(23,-56,o),
(14,-76,o),
(14,-111,cs),
(14,-168,o),
(77,-215,o),
(178,-215,cs)
);
},
{
closed = 1;
nodes = (
(116,-193,o),
(74,-154,o),
(74,-95,cs),
(74,-67,o),
(80,-45,o),
(121,-1,cs),
(140,19,o),
(156,26,o),
(197,26,cs),
(220,26,ls),
(284,26,o),
(321,-8,o),
(321,-68,cs),
(321,-141,o),
(262,-193,o),
(190,-193,cs)
);
},
{
closed = 1;
nodes = (
(148,205,o),
(118,261,o),
(118,350,cs),
(118,437,o),
(149,494,o),
(196,494,cs),
(243,494,o),
(274,437,o),
(274,350,cs),
(274,261,o),
(244,205,o),
(196,205,cs)
);
}
);
width = 402;
}
);
unicode = 103;
},
{
glyphname = h;
kernLeft = h;
kernRight = n;
lastChange = "2022-09-01 20:59:43 +0000";
layers = (
{
background = {
shapes = (
{
closed = 1;
nodes = (
(202,0,ls),
(209,0,o),
(214,4,o),
(214,11,cs),
(214,18,o),
(210,22,o),
(203,23,cs),
(176,26,ls),
(148,29,o),
(142,39,o),
(142,67,cs),
(142,724,ls),
(142,735,o),
(138,740,o),
(131,740,cs),
(125,740,o),
(118,737,o),
(107,730,cs),
(90,719,o),
(65,708,o),
(28,700,cs),
(21,699,o),
(17,694,o),
(17,688,cs),
(17,682,o),
(21,677,o),
(28,676,cs),
(49,673,ls),
(68,670,o),
(74,664,o),
(74,640,cs),
(74,67,ls),
(74,39,o),
(68,29,o),
(40,25,cs),
(26,23,ls),
(19,22,o),
(15,17,o),
(15,11,cs),
(15,5,o),
(20,0,o),
(27,0,cs)
);
},
{
closed = 1;
nodes = (
(142,335,l),
(142,408,o),
(191,470,o),
(255,470,cs),
(299,470,o),
(324,446,o),
(324,381,cs),
(324,67,ls),
(324,39,o),
(318,29,o),
(290,25,cs),
(276,23,ls),
(269,22,o),
(265,17,o),
(265,11,cs),
(265,5,o),
(269,0,o),
(279,0,cs),
(447,0,ls),
(454,0,o),
(459,4,o),
(459,11,cs),
(459,18,o),
(455,22,o),
(448,23,cs),
(426,26,ls),
(398,30,o),
(392,39,o),
(392,67,cs),
(392,392,ls),
(392,473,o),
(353,516,o),
(291,516,cs),
(248,516,o),
(212,500,o),
(172,463,cs),
(147,440,l),
(138,440,l)
);
}
);
};
guides = (
{
angle = 222.6141;
pos = (160,452);
}
);
layerId = m01;
shapes = (
{
closed = 1;
nodes = (
(202,0,ls),
(209,0,o),
(214,4,o),
(214,11,cs),
(214,18,o),
(210,22,o),
(203,23,cs),
(176,26,ls),
(148,29,o),
(142,39,o),
(142,67,cs),
(142,335,ls),
(142,408,o),
(191,470,o),
(255,470,cs),
(299,470,o),
(324,446,o),
(324,381,cs),
(324,67,ls),
(324,39,o),
(318,29,o),
(290,25,cs),
(276,23,ls),
(269,22,o),
(265,17,o),
(265,11,cs),
(265,5,o),
(269,0,o),
(279,0,cs),
(447,0,ls),
(454,0,o),
(459,4,o),
(459,11,cs),
(459,18,o),
(455,22,o),
(448,23,cs),
(426,26,ls),
(398,30,o),
(392,39,o),
(392,67,cs),
(392,392,ls),
(392,473,o),
(353,516,o),
(291,516,cs),
(248,516,o),
(213,501,o),
(163,455,cs),
(151,444,o),
(142,447,o),
(142,459,cs),
(142,724,ls),
(142,735,o),
(138,740,o),
(131,740,cs),
(125,740,o),
(118,737,o),
(107,730,cs),
(90,719,o),
(65,708,o),
(28,700,cs),
(21,699,o),
(17,694,o),
(17,688,cs),
(17,682,o),
(21,677,o),
(28,676,cs),
(49,673,ls),
(68,670,o),
(74,664,o),
(74,640,cs),
(74,67,ls),
(74,39,o),
(68,29,o),
(40,25,cs),
(26,23,ls),
(19,22,o),
(15,17,o),
(15,11,cs),
(15,5,o),
(20,0,o),
(27,0,cs)
);
}
);
width = 470;
}
);
unicode = 104;
},
{
glyphname = hbar;
kernLeft = h;
kernRight = n;
lastChange = "2022-08-23 19:55:55 +0000";
layers = (
{
layerId = m01;
shapes = (
{
ref = h;
},
{
closed = 1;
nodes = (
(293,578,ls),
(299,578,o),
(303,582,o),
(303,588,cs),
(303,596,ls),
(303,602,o),
(299,606,o),
(293,606,cs),
(18,606,ls),
(12,606,o),
(8,602,o),
(8,596,cs),
(8,588,ls),
(8,582,o),
(12,578,o),
(18,578,cs)
);
}
);
width = 470;
}
);
unicode = 295;
},
{
glyphname = i;
kernLeft = i;
kernRight = i;
lastChange = "2022-09-01 20:59:49 +0000";
layers = (
{
anchors = (
{
name = bottom;
pos = (112,0);
}
);
background = {
shapes = (
{
closed = 1;
nodes = (
(211,0,l),
(211,21,l),
(181,26,ls),
(153,31,o),
(147,39,o),
(147,67,cs),
(147,513,l),
(127,513,l),
(102,495,o),
(68,479,o),
(22,471,c),
(22,451,l),
(54,446,ls),
(74,443,o),
(79,436,o),
(79,413,cs),
(79,67,ls),
(79,38,o),
(72,29,o),
(45,25,cs),
(15,21,l),
(15,0,l)
);
},
{
closed = 1;
nodes = (
(142,605,o),
(163,627,o),
(163,658,cs),
(163,689,o),
(142,710,o),
(114,710,cs),
(86,710,o),
(64,689,o),
(64,658,cs),
(64,627,o),
(86,605,o),
(114,605,cs)
);
}
);
};
guides = (
{
angle = 270;
pos = (79,240);
},
{
angle = 90;
pos = (147,290);
}
);
layerId = m01;
shapes = (
{
closed = 1;
nodes = (
(197,0,ls),
(207,0,o),
(212,4,o),
(212,12,cs),
(212,18,o),
(208,22,o),
(201,23,cs),
(176,26,ls),
(153,29,o),
(147,39,o),
(147,67,c),
(147,501,ls),
(147,509,o),
(144,513,o),
(138,513,cs),
(133,513,o),
(129,510,o),
(123,504,cs),
(99,482,o),
(77,467,o),
(36,461,cs),
(25,459,o),
(20,456,o),
(20,450,cs),
(20,444,o),
(23,440,o),
(33,439,cs),
(54,436,ls),
(73,433,o),
(79,427,o),
(79,403,cs),
(79,67,ls),
(79,39,o),
(73,30,o),
(40,25,cs),
(28,23,ls),
(19,21,o),
(15,17,o),
(15,11,cs),
(15,4,o),
(20,0,o),
(30,0,cs)
);
},
{
closed = 1;
nodes = (
(142,605,o),
(163,627,o),
(163,658,cs),
(163,689,o),
(142,710,o),
(114,710,cs),
(86,710,o),
(64,689,o),
(64,658,cs),
(64,627,o),
(86,605,o),
(114,605,cs)
);
}
);
width = 223;
}
);
unicode = 105;
},
{
glyphname = idotless;
kernLeft = i;
kernRight = i;
lastChange = "2022-08-23 19:56:03 +0000";
layers = (
{
anchors = (
{
name = bottom;
pos = (112,0);
},
{
name = ogonek;
pos = (167,0);
},
{
name = top;
pos = (112,510);
}
);
layerId = m01;
shapes = (
{
closed = 1;
nodes = (
(197,0,ls),
(207,0,o),
(212,4,o),
(212,12,cs),
(212,18,o),
(208,22,o),
(201,23,cs),
(176,26,ls),
(153,29,o),
(147,39,o),
(147,67,c),
(147,501,ls),
(147,509,o),
(144,513,o),
(138,513,cs),
(133,513,o),
(129,510,o),
(123,504,cs),
(99,482,o),
(77,467,o),
(36,461,cs),
(25,459,o),
(20,456,o),
(20,450,cs),
(20,444,o),
(23,440,o),
(33,439,cs),
(54,436,ls),
(73,433,o),
(79,427,o),
(79,403,cs),
(79,67,ls),
(79,39,o),
(73,30,o),
(40,25,cs),
(28,23,ls),
(19,21,o),
(15,17,o),
(15,11,cs),
(15,4,o),
(20,0,o),
(30,0,cs)
);
}
);
width = 223;
}
);
unicode = 305;
},
{
glyphname = j;
kernLeft = j;
kernRight = j;
lastChange = "2022-09-01 20:59:53 +0000";
layers = (
{
layerId = m01;
shapes = (
{
closed = 1;
nodes = (
(91,-215,o),
(147,-116,o),
(147,44,cs),
(147,501,ls),
(147,509,o),
(144,513,o),
(138,513,cs),
(133,513,o),
(129,510,o),
(123,504,cs),
(99,482,o),
(77,467,o),
(36,461,cs),
(25,459,o),
(20,456,o),
(20,450,cs),
(20,444,o),
(23,440,o),
(33,439,cs),
(54,436,ls),
(73,433,o),
(79,427,o),
(79,403,cs),
(79,-91,ls),
(79,-144,o),
(65,-175,o),
(40,-175,cs),
(4,-175,o),
(18,-119,o),
(-24,-119,cs),
(-48,-119,o),
(-63,-138,o),
(-63,-161,cs),
(-63,-193,o),
(-35,-215,o),
(4,-215,cs)
);
},
{
closed = 1;
nodes = (
(142,605,o),
(163,627,o),
(163,658,cs),
(163,688,o),
(143,710,o),
(114,710,cs),
(85,710,o),
(64,688,o),
(64,658,cs),
(64,628,o),
(85,605,o),
(114,605,cs)
);
}
);
width = 215;
}
);
unicode = 106;
},
{
glyphname = jdotless;
kernLeft = j;
kernRight = j;
lastChange = "2022-08-23 19:56:16 +0000";
layers = (
{
layerId = m01;
shapes = (
{
closed = 1;
nodes = (
(91,-215,o),
(147,-116,o),
(147,44,cs),
(147,501,ls),
(147,509,o),
(144,513,o),
(138,513,cs),
(133,513,o),
(129,510,o),
(123,504,cs),
(99,482,o),
(77,467,o),
(36,461,cs),
(25,459,o),
(20,456,o),
(20,450,cs),
(20,444,o),
(23,440,o),
(33,439,cs),
(54,436,ls),
(73,433,o),
(79,427,o),
(79,403,cs),
(79,-91,ls),
(79,-144,o),
(65,-175,o),
(40,-175,cs),
(4,-175,o),
(18,-119,o),
(-24,-119,cs),
(-48,-119,o),
(-63,-138,o),
(-63,-161,cs),
(-63,-193,o),
(-35,-215,o),
(4,-215,cs)
);
}
);
width = 215;
}
);
unicode = 567;
},
{
glyphname = k;
kernLeft = h;
kernRight = k;
lastChange = "2022-09-01 20:19:58 +0000";
layers = (
{
anchors = (
{
name = bottom;
pos = (226,0);
},
{
name = top;
pos = (226,740);
}
);
background = {
shapes = (
{
closed = 1;
nodes = (
(202,0,ls),
(209,0,o),
(214,4,o),
(214,11,cs),
(214,18,o),
(210,22,o),
(203,23,cs),
(176,26,ls),
(148,29,o),
(142,39,o),
(142,67,cs),
(142,724,ls),
(142,735,o),
(138,740,o),
(131,740,cs),
(125,740,o),
(118,737,o),
(107,730,cs),
(90,719,o),
(65,708,o),
(28,700,cs),
(21,699,o),
(17,694,o),
(17,688,cs),
(17,682,o),
(21,677,o),
(28,676,cs),
(49,673,ls),
(68,670,o),
(74,664,o),
(74,640,cs),
(74,67,ls),
(74,39,o),
(68,29,o),
(40,25,cs),
(26,23,ls),
(19,22,o),
(15,17,o),
(15,11,cs),
(15,5,o),
(20,0,o),
(27,0,cs)
);
},
{
closed = 1;
nodes = (
(319,420,ls),
(361,464,o),
(389,483,o),
(420,486,cs),
(429,487,ls),
(439,488,o),
(442,493,o),
(442,499,cs),
(442,506,o),
(437,510,o),
(428,510,cs),
(256,510,ls),
(247,510,o),
(242,506,o),
(242,500,cs),
(242,493,o),
(246,489,o),
(255,487,cs),
(278,483,ls),
(305,478,o),
(312,455,o),
(284,425,cs),
(145,276,l),
(135,276,l),
(135,229,l)
);
},
{
closed = 1;
nodes = (
(182,292,l),
(182,280,l),
(189,280,l),
(295,74,ls),
(309,46,o),
(304,28,o),
(279,25,cs),
(262,23,ls),
(254,22,o),
(249,17,o),
(249,11,cs),
(249,5,o),
(254,0,o),
(263,0,cs),
(437,0,ls),
(446,0,o),
(451,4,o),
(451,11,cs),
(451,18,o),
(447,21,o),
(439,23,cs),
(429,25,ls),
(403,30,o),
(387,40,o),
(373,67,cs),
(229,343,l)
);
}
);
};
layerId = m01;
shapes = (
{
closed = 1;
nodes = (
(202,0,ls),
(209,0,o),
(214,4,o),
(214,11,cs),
(214,18,o),
(210,22,o),
(203,23,cs),
(176,26,ls),
(148,29,o),
(142,39,o),
(142,67,cs),
(142,214,ls),
(142,229,o),
(145,240,o),
(157,252,cs),
(168,263,ls),
(179,274,o),
(193,272,o),
(200,259,cs),
(295,74,ls),
(309,46,o),
(304,28,o),
(279,25,cs),
(262,23,ls),
(254,22,o),
(249,17,o),
(249,11,cs),
(249,5,o),
(254,0,o),
(263,0,cs),
(437,0,ls),
(446,0,o),
(451,4,o),
(451,11,cs),
(451,18,o),
(447,21,o),
(439,23,cs),
(429,25,ls),
(403,30,o),
(387,40,o),
(373,67,cs),
(247,309,ls),
(240,323,o),
(242,338,o),
(257,354,cs),
(319,420,ls),
(361,464,o),
(389,483,o),
(420,486,cs),
(429,487,ls),
(439,488,o),
(442,493,o),
(442,499,cs),
(442,506,o),
(437,510,o),
(428,510,cs),
(256,510,ls),
(247,510,o),
(242,506,o),
(242,500,cs),
(242,493,o),
(246,489,o),
(255,487,cs),
(278,483,ls),
(305,478,o),
(312,455,o),
(284,425,cs),
(167,299,ls),
(156,287,o),
(142,291,o),
(142,305,cs),
(142,724,ls),
(142,735,o),
(138,740,o),
(131,740,cs),
(125,740,o),
(118,737,o),
(107,730,cs),
(90,719,o),
(65,708,o),
(28,700,cs),
(21,699,o),
(17,694,o),
(17,688,cs),
(17,682,o),
(21,677,o),
(28,676,cs),
(49,673,ls),
(68,670,o),
(74,664,o),
(74,640,cs),
(74,67,ls),
(74,39,o),
(68,29,o),
(40,25,cs),
(26,23,ls),
(19,22,o),
(15,17,o),
(15,11,cs),
(15,5,o),
(20,0,o),
(27,0,cs)
);
}
);
width = 451;
}
);
unicode = 107;
},
{
glyphname = l;
kernLeft = h;
kernRight = l;
lastChange = "2022-09-01 20:39:59 +0000";
layers = (
{
anchors = (
{
name = bottom;
pos = (110,0);
},
{
name = center;
pos = (110,370);
},
{
name = top;
pos = (85,710);
},
{
name = topright;
pos = (173,740);
}
);
background = {
shapes = (
{
closed = 1;
nodes = (
(206,0,l),
(206,21,l),
(176,26,ls),
(148,31,o),
(142,39,o),
(142,67,cs),
(142,740,l),
(122,740,l),
(97,722,o),
(64,707,o),
(17,698,c),
(17,678,l),
(49,673,ls),
(68,670,o),
(74,664,o),
(74,640,cs),
(74,67,ls),
(74,39,o),
(68,29,o),
(40,25,cs),
(10,21,l),
(10,0,l)
);
}
);
};
layerId = m01;
shapes = (
{
closed = 1;
nodes = (
(198,0,ls),
(205,0,o),
(210,4,o),
(210,11,cs),
(210,18,o),
(206,22,o),
(199,23,cs),
(176,26,ls),
(148,30,o),
(142,39,o),
(142,67,cs),
(142,724,ls),
(142,735,o),
(138,740,o),
(131,740,cs),
(125,740,o),
(118,737,o),
(107,730,cs),
(90,719,o),
(63,708,o),
(26,700,cs),
(19,699,o),
(15,694,o),
(15,688,cs),
(15,682,o),
(19,677,o),
(26,676,cs),
(49,673,ls),
(68,671,o),
(74,664,o),
(74,640,cs),
(74,67,ls),
(74,39,o),
(61,29,o),
(33,25,cs),
(19,23,ls),
(12,22,o),
(8,17,o),
(8,11,cs),
(8,5,o),
(13,0,o),
(20,0,cs)
);
}
);
width = 220;
}
);
unicode = 108;
},
{
glyphname = lslash;
kernLeft = h;
kernRight = l;
lastChange = "2022-08-23 20:01:07 +0000";
layers = (
{
layerId = m01;
shapes = (
{
pos = (26,0);
ref = l;
},
{
closed = 1;
nodes = (
(137,383,l),
(15,307,ls),
(10,304,o),
(9,298,o),
(12,293,cs),
(17,286,ls),
(20,281,o),
(25,280,o),
(30,283,cs),
(137,350,l)
);
},
{
closed = 1;
nodes = (
(137,353,l),
(264,432,ls),
(269,435,o),
(270,441,o),
(267,446,cs),
(262,453,ls),
(259,458,o),
(254,459,o),
(249,456,cs),
(137,386,l)
);
}
);
width = 279;
}
);
unicode = 322;
},
{
glyphname = m;
kernLeft = n;
kernRight = n;
lastChange = "2022-09-01 19:49:06 +0000";
layers = (
{
background = {
shapes = (
{
closed = 1;
nodes = (
(142,335,l),
(142,408,o),
(191,470,o),
(251,470,cs),
(291,470,o),
(316,446,o),
(316,381,cs),
(316,67,ls),
(316,39,o),
(310,29,o),
(282,25,cs),
(268,23,ls),
(261,22,o),
(257,17,o),
(257,11,cs),
(257,5,o),
(261,0,o),
(271,0,cs),
(441,0,ls),
(448,0,o),
(453,4,o),
(453,11,cs),
(453,18,o),
(449,22,o),
(442,23,cs),
(420,26,ls),
(390,30,o),
(384,39,o),
(384,67,cs),
(384,392,ls),
(384,473,o),
(345,516,o),
(289,516,cs),
(248,516,o),
(212,500,o),
(167,459,cs),
(142,436,l),
(133,436,l)
);
},
{
closed = 1;
nodes = (
(199,0,ls),
(209,0,o),
(214,4,o),
(214,12,cs),
(214,18,o),
(210,22,o),
(203,23,cs),
(176,26,ls),
(148,29,o),
(142,39,o),
(142,67,cs),
(142,425,l),
(137,425,l),
(137,501,ls),
(137,509,o),
(134,513,o),
(128,513,cs),
(123,513,o),
(119,510,o),
(113,504,cs),
(89,482,o),
(72,467,o),
(31,461,cs),
(20,459,o),
(15,456,o),
(15,450,cs),
(15,444,o),
(18,440,o),
(28,439,cs),
(49,436,ls),
(68,433,o),
(74,427,o),
(74,403,cs),
(74,67,ls),
(74,39,o),
(68,30,o),
(40,25,cs),
(28,23,ls),
(19,21,o),
(15,17,o),
(15,11,cs),
(15,4,o),
(20,0,o),
(30,0,cs)
);
},
{
closed = 1;
nodes = (
(384,335,l),
(384,408,o),
(433,470,o),
(493,470,cs),
(533,470,o),
(558,446,o),
(558,381,cs),
(558,67,ls),
(558,39,o),
(552,29,o),
(521,25,cs),
(507,23,ls),
(500,22,o),
(496,17,o),
(496,11,cs),
(496,5,o),
(500,0,o),
(510,0,cs),
(681,0,ls),
(688,0,o),
(693,4,o),
(693,11,cs),
(693,18,o),
(689,22,o),
(682,23,cs),
(660,26,ls),
(632,30,o),
(626,39,o),
(626,67,cs),
(626,392,ls),
(626,473,o),
(587,516,o),
(531,516,cs),
(490,516,o),
(454,500,o),
(409,459,cs),
(384,436,l),
(375,436,l)
);
}
);
};
layerId = m01;
shapes = (
{
closed = 1;
nodes = (
(199,0,ls),
(209,0,o),
(214,4,o),
(214,12,cs),
(214,18,o),
(210,22,o),
(203,23,cs),
(176,26,ls),
(148,29,o),
(142,39,o),
(142,67,cs),
(142,335,ls),
(142,408,o),
(191,470,o),
(251,470,cs),
(291,470,o),
(316,446,o),
(316,381,cs),
(316,67,ls),
(316,39,o),
(310,29,o),
(282,25,cs),
(268,23,ls),
(261,22,o),
(257,17,o),
(257,11,cs),
(257,5,o),
(261,0,o),
(271,0,cs),
(441,0,ls),
(448,0,o),
(453,4,o),
(453,11,cs),
(453,18,o),
(449,22,o),
(442,23,cs),
(420,26,ls),
(390,30,o),
(384,39,o),
(384,67,cs),
(384,335,ls),
(384,408,o),
(433,470,o),
(493,470,cs),
(533,470,o),
(558,446,o),
(558,381,cs),
(558,67,ls),
(558,39,o),
(552,29,o),
(521,25,cs),
(507,23,ls),
(500,22,o),
(496,17,o),
(496,11,cs),
(496,5,o),
(500,0,o),
(510,0,cs),
(681,0,ls),
(688,0,o),
(693,4,o),
(693,11,cs),
(693,18,o),
(689,22,o),
(682,23,cs),
(660,26,ls),
(632,30,o),
(626,39,o),
(626,67,cs),
(626,392,ls),
(626,473,o),
(587,516,o),
(531,516,cs),
(490,516,o),
(453,501,o),
(399,450,cs),
(389,440,o),
(378,443,o),
(374,454,cs),
(359,495,o),
(328,516,o),
(289,516,cs),
(248,516,o),
(211,501,o),
(156,449,cs),
(146,439,o),
(137,446,o),
(137,456,cs),
(137,501,ls),
(137,509,o),
(134,513,o),
(128,513,cs),
(123,513,o),
(119,510,o),
(113,504,cs),
(89,482,o),
(72,467,o),
(31,461,cs),
(20,459,o),
(15,456,o),
(15,450,cs),
(15,444,o),
(18,440,o),
(28,439,cs),
(49,436,ls),
(68,433,o),
(74,427,o),
(74,403,cs),
(74,67,ls),
(74,39,o),
(68,30,o),
(40,25,cs),
(28,23,ls),
(19,21,o),
(15,17,o),
(15,11,cs),
(15,4,o),
(20,0,o),
(30,0,cs)
);
}
);
width = 704;
}
);
metricRight = n;
unicode = 109;
},
{
glyphname = n;
kernLeft = n;
kernRight = n;
lastChange = "2022-08-31 18:09:38 +0000";
layers = (
{
anchors = (
{
name = bottom;
pos = (235,0);
},
{
name = top;
pos = (235,510);
}
);
background = {
shapes = (
{
closed = 1;
nodes = (
(142,335,l),
(142,408,o),
(191,470,o),
(255,470,cs),
(299,470,o),
(324,446,o),
(324,381,cs),
(324,67,ls),
(324,39,o),
(318,29,o),
(290,25,cs),
(276,23,ls),
(269,22,o),
(265,17,o),
(265,11,cs),
(265,5,o),
(269,0,o),
(279,0,cs),
(447,0,ls),
(454,0,o),
(459,4,o),
(459,11,cs),
(459,18,o),
(455,22,o),
(448,23,cs),
(426,26,ls),
(398,30,o),
(392,39,o),
(392,67,cs),
(392,392,ls),
(392,473,o),
(353,516,o),
(293,516,cs),
(248,516,o),
(212,500,o),
(167,459,cs),
(142,436,l),
(133,436,l)
);
},
{
closed = 1;
nodes = (
(199,0,ls),
(209,0,o),
(214,4,o),
(214,12,cs),
(214,18,o),
(210,22,o),
(203,23,cs),
(176,26,ls),
(148,29,o),
(142,39,o),
(142,67,cs),
(142,425,l),
(137,425,l),
(137,501,ls),
(137,509,o),
(134,513,o),
(128,513,cs),
(123,513,o),
(119,510,o),
(113,504,cs),
(89,482,o),
(72,467,o),
(31,461,cs),
(20,459,o),
(15,456,o),
(15,450,cs),
(15,444,o),
(18,440,o),
(28,439,cs),
(49,436,ls),
(68,433,o),
(74,427,o),
(74,403,cs),
(74,67,ls),
(74,39,o),
(68,30,o),
(40,25,cs),
(28,23,ls),
(19,21,o),
(15,17,o),
(15,11,cs),
(15,4,o),
(20,0,o),
(30,0,cs)
);
}
);
};
layerId = m01;
shapes = (
{
closed = 1;
nodes = (
(199,0,ls),
(209,0,o),
(214,4,o),
(214,12,cs),
(214,18,o),
(210,22,o),
(203,23,cs),
(176,26,ls),
(148,29,o),
(142,39,o),
(142,67,cs),
(142,335,ls),
(142,408,o),
(191,470,o),
(255,470,cs),
(299,470,o),
(324,446,o),
(324,381,cs),
(324,67,ls),
(324,39,o),
(318,29,o),
(290,25,cs),
(276,23,ls),
(269,22,o),
(265,17,o),
(265,11,cs),
(265,5,o),
(269,0,o),
(279,0,cs),
(447,0,ls),
(454,0,o),
(459,4,o),
(459,11,cs),
(459,18,o),
(455,22,o),
(448,23,cs),
(426,26,ls),
(398,30,o),
(392,39,o),
(392,67,cs),
(392,392,ls),
(392,473,o),
(353,516,o),
(293,516,cs),
(248,516,o),
(211,501,o),
(158,450,cs),
(147,439,o),
(137,444,o),
(137,456,cs),
(137,501,ls),
(137,509,o),
(134,513,o),
(128,513,cs),
(123,513,o),
(119,510,o),
(113,504,cs),
(89,482,o),
(72,467,o),
(31,461,cs),
(20,459,o),
(15,456,o),
(15,450,cs),
(15,444,o),
(18,440,o),
(28,439,cs),
(49,436,ls),
(68,433,o),
(74,427,o),
(74,403,cs),
(74,67,ls),
(74,39,o),
(68,30,o),
(40,25,cs),
(28,23,ls),
(19,21,o),
(15,17,o),
(15,11,cs),
(15,4,o),
(20,0,o),
(30,0,cs)
);
}
);
width = 470;
}
);
unicode = 110;
},
{
glyphname = eng;
kernLeft = n;
kernRight = j;
lastChange = "2022-08-23 20:01:41 +0000";
layers = (
{
layerId = m01;
shapes = (
{
closed = 1;
nodes = (
(336,-215,o),
(392,-116,o),
(392,44,cs),
(392,392,ls),
(392,473,o),
(353,516,o),
(293,516,cs),
(248,516,o),
(211,501,o),
(158,450,cs),
(147,439,o),
(137,444,o),
(137,456,cs),
(137,501,ls),
(137,509,o),
(134,513,o),
(128,513,cs),
(123,513,o),
(119,510,o),
(113,504,cs),
(89,482,o),
(72,467,o),
(31,461,cs),
(20,459,o),
(15,456,o),
(15,450,cs),
(15,444,o),
(18,440,o),
(28,439,cs),
(49,436,ls),
(68,433,o),
(74,427,o),
(74,403,cs),
(74,67,ls),
(74,39,o),
(68,30,o),
(40,25,cs),
(28,23,ls),
(19,21,o),
(15,17,o),
(15,11,cs),
(15,4,o),
(20,0,o),
(30,0,cs),
(199,0,ls),
(209,0,o),
(214,4,o),
(214,12,cs),
(214,18,o),
(210,22,o),
(203,23,cs),
(176,26,ls),
(148,29,o),
(142,39,o),
(142,67,cs),
(142,335,ls),
(142,408,o),
(191,470,o),
(255,470,cs),
(299,470,o),
(324,446,o),
(324,381,cs),
(324,-91,ls),
(324,-144,o),
(310,-175,o),
(285,-175,cs),
(249,-175,o),
(263,-119,o),
(221,-119,cs),
(197,-119,o),
(182,-138,o),
(182,-161,cs),
(182,-193,o),
(210,-215,o),
(249,-215,cs)
);
}
);
width = 460;
}
);
unicode = 331;
},
{
glyphname = o;
kernLeft = o;
kernRight = o;
lastChange = "2022-08-31 20:21:46 +0000";
layers = (
{
anchors = (
{
name = bottom;
pos = (204,0);
},
{
name = center;
pos = (204,255);
},
{
name = ogonek;
pos = (367,10);
},
{
name = top;
pos = (204,510);
},
{
name = topright;
pos = (388,510);
}
);
background = {
shapes = (
{
closed = 1;
nodes = (
(313,-9,o),
(396,104,o),
(396,254,cs),
(396,403,o),
(312,516,o),
(202,516,cs),
(92,516,o),
(8,403,o),
(8,254,cs),
(8,104,o),
(91,-9,o),
(202,-9,cs)
);
},
{
closed = 1;
nodes = (
(126,16,o),
(82,106,o),
(82,254,cs),
(82,400,o),
(127,491,o),
(202,491,cs),
(277,491,o),
(322,400,o),
(322,254,cs),
(322,106,o),
(278,16,o),
(202,16,cs)
);
}
);
};
layerId = m01;
shapes = (
{
closed = 1;
nodes = (
(305,-9,o),
(383,105,o),
(383,254,cs),
(383,401,o),
(304,516,o),
(203,516,cs),
(102,516,o),
(23,401,o),
(23,254,cs),
(23,105,o),
(101,-9,o),
(203,-9,cs)
);
},
{
closed = 1;
nodes = (
(132,16,o),
(99,95,o),
(99,254,cs),
(99,411,o),
(133,491,o),
(203,491,cs),
(273,491,o),
(307,411,o),
(307,254,cs),
(307,95,o),
(274,16,o),
(203,16,cs)
);
}
);
width = 408;
}
);
unicode = 111;
},
{
glyphname = oslash;
kernLeft = o;
kernRight = o;
lastChange = "2022-08-23 20:01:47 +0000";
layers = (
{
layerId = m01;
shapes = (
{
ref = o;
},
{
closed = 1;
nodes = (
(79,-50,ls),
(84,-50,o),
(88,-48,o),
(90,-42,cs),
(342,548,ls),
(345,555,o),
(341,560,o),
(334,560,cs),
(327,560,ls),
(322,560,o),
(318,558,o),
(316,552,cs),
(64,-38,ls),
(61,-45,o),
(65,-50,o),
(72,-50,cs)
);
}
);
width = 408;
}
);
unicode = 248;
},
{
glyphname = oe;
kernLeft = o;
kernRight = e;
lastChange = "2022-08-23 20:01:51 +0000";
layers = (
{
layerId = m01;
shapes = (
{
closed = 1;
nodes = (
(305,-9,o),
(373,105,o),
(373,254,cs),
(373,401,o),
(304,516,o),
(203,516,cs),
(102,516,o),
(23,401,o),
(23,254,cs),
(23,105,o),
(101,-9,o),
(203,-9,cs)
);
},
{
closed = 1;
nodes = (
(132,16,o),
(99,95,o),
(99,254,cs),
(99,411,o),
(133,491,o),
(203,491,cs),
(273,491,o),
(307,411,o),
(307,254,cs),
(307,95,o),
(274,16,o),
(203,16,cs)
);
},
{
closed = 1;
nodes = (
(542,-9,o),
(590,32,o),
(612,151,cs),
(614,163,o),
(611,171,o),
(603,171,cs),
(596,171,o),
(592,167,o),
(590,160,cs),
(570,74,o),
(540,42,o),
(489,42,cs),
(425,42,o),
(379,113,o),
(379,254,cs),
(379,270,o),
(386,277,o),
(399,277,cs),
(589,277,ls),
(606,277,o),
(614,289,o),
(614,310,cs),
(614,455,o),
(560,516,o),
(482,516,cs),
(383,516,o),
(307,406,o),
(307,249,cs),
(307,94,o),
(380,-9,o),
(476,-9,cs)
);
},
{
closed = 1;
nodes = (
(386,302,o),
(380,308,o),
(381,318,cs),
(391,428,o),
(429,491,o),
(481,491,cs),
(523,491,o),
(545,439,o),
(545,352,cs),
(545,317,o),
(530,302,o),
(497,302,cs),
(396,302,ls)
);
}
);
width = 639;
}
);
metricRight = e;
unicode = 339;
},
{
glyphname = p;
kernLeft = n;
kernRight = o;
lastChange = "2022-08-31 17:39:19 +0000";
layers = (
{
background = {
shapes = (
{
closed = 1;
nodes = (
(208,-205,ls),
(218,-205,o),
(223,-201,o),
(223,-193,cs),
(223,-187,o),
(219,-183,o),
(212,-182,cs),
(175,-177,ls),
(147,-173,o),
(141,-166,o),
(141,-138,cs),
(141,439,l),
(136,439,l),
(136,501,ls),
(136,509,o),
(133,513,o),
(127,513,cs),
(122,513,o),
(118,510,o),
(112,504,cs),
(88,482,o),
(71,467,o),
(30,461,cs),
(19,459,o),
(14,456,o),
(14,450,cs),
(14,444,o),
(17,440,o),
(27,439,cs),
(48,436,ls),
(67,433,o),
(73,427,o),
(73,403,cs),
(73,-138,ls),
(73,-166,o),
(67,-176,o),
(39,-180,cs),
(25,-182,ls),
(16,-183,o),
(12,-188,o),
(12,-194,cs),
(12,-201,o),
(17,-205,o),
(27,-205,cs)
);
},
{
closed = 1;
nodes = (
(329,-9,o),
(414,107,o),
(414,274,cs),
(414,419,o),
(348,516,o),
(256,516,cs),
(220,516,o),
(193,503,o),
(167,477,cs),
(141,450,l),
(132,450,l),
(141,365,l),
(141,432,o),
(179,471,o),
(225,471,cs),
(298,471,o),
(340,397,o),
(340,260,cs),
(340,110,o),
(290,16,o),
(215,16,cs),
(171,16,o),
(141,53,o),
(141,113,c),
(103,27,l),
(118,27,l),
(148,2,o),
(179,-9,o),
(212,-9,cs)
);
}
);
};
layerId = m01;
shapes = (
{
closed = 1;
nodes = (
(208,-205,ls),
(218,-205,o),
(223,-201,o),
(223,-193,cs),
(223,-187,o),
(219,-183,o),
(212,-182,cs),
(175,-177,ls),
(147,-173,o),
(141,-166,o),
(141,-138,cs),
(141,-9,ls),
(141,2,o),
(148,7,o),
(159,2,cs),
(176,-6,o),
(193,-9,o),
(212,-9,cs),
(329,-9,o),
(414,107,o),
(414,274,cs),
(414,419,o),
(348,516,o),
(256,516,cs),
(220,516,o),
(193,503,o),
(167,477,cs),
(156,466,ls),
(145,455,o),
(136,460,o),
(136,470,cs),
(136,501,ls),
(136,509,o),
(133,513,o),
(127,513,cs),
(122,513,o),
(118,510,o),
(112,504,cs),
(88,482,o),
(71,467,o),
(30,461,cs),
(19,459,o),
(14,456,o),
(14,450,cs),
(14,444,o),
(17,440,o),
(27,439,cs),
(48,436,ls),
(67,433,o),
(73,427,o),
(73,403,cs),
(73,-138,ls),
(73,-166,o),
(67,-176,o),
(39,-180,cs),
(25,-182,ls),
(16,-183,o),
(12,-188,o),
(12,-194,cs),
(12,-201,o),
(17,-205,o),
(27,-205,cs)
);
},
{
closed = 1;
nodes = (
(171,16,o),
(141,53,o),
(141,113,cs),
(141,365,ls),
(141,432,o),
(179,471,o),
(225,471,cs),
(298,471,o),
(340,397,o),
(340,260,cs),
(340,110,o),
(290,16,o),
(215,16,cs)
);
}
);
width = 444;
}
);
unicode = 112;
},
{
glyphname = thorn;
kernLeft = h;
kernRight = o;
lastChange = "2022-08-23 20:02:04 +0000";
layers = (
{
layerId = m01;
shapes = (
{
closed = 1;
nodes = (
(208,-205,ls),
(218,-205,o),
(223,-201,o),
(223,-193,cs),
(223,-187,o),
(219,-183,o),
(212,-182,cs),
(175,-177,ls),
(147,-173,o),
(141,-166,o),
(141,-138,cs),
(141,-9,ls),
(141,2,o),
(148,7,o),
(159,2,cs),
(176,-6,o),
(193,-9,o),
(212,-9,cs),
(329,-9,o),
(414,107,o),
(414,274,cs),
(414,419,o),
(348,516,o),
(256,516,cs),
(220,516,o),
(193,503,o),
(167,477,cs),
(156,466,ls),
(145,455,o),
(136,460,o),
(136,470,cs),
(136,724,ls),
(136,735,o),
(132,740,o),
(125,740,cs),
(119,740,o),
(112,737,o),
(101,730,cs),
(84,719,o),
(59,708,o),
(22,700,cs),
(15,699,o),
(11,694,o),
(11,688,cs),
(11,682,o),
(15,677,o),
(22,676,cs),
(43,673,ls),
(62,670,o),
(73,664,o),
(73,640,cs),
(73,-138,ls),
(73,-166,o),
(67,-176,o),
(39,-180,cs),
(25,-182,ls),
(16,-183,o),
(12,-188,o),
(12,-194,cs),
(12,-201,o),
(17,-205,o),
(27,-205,cs)
);
},
{
closed = 1;
nodes = (
(171,16,o),
(141,53,o),
(141,113,cs),
(141,365,ls),
(141,432,o),
(179,471,o),
(225,471,cs),
(298,471,o),
(340,397,o),
(340,260,cs),
(340,110,o),
(290,16,o),
(215,16,cs)
);
}
);
width = 444;
}
);
unicode = 254;
},
{
glyphname = q;
kernLeft = o;
lastChange = "2022-09-01 20:20:31 +0000";
layers = (
{
background = {
shapes = (
{
closed = 1;
nodes = (
(223,-9,o),
(249,6,o),
(280,47,cs),
(298,71,l),
(307,71,l),
(303,169,l),
(303,95,o),
(254,37,o),
(203,37,cs),
(141,37,o),
(104,110,o),
(104,247,cs),
(104,397,o),
(154,491,o),
(229,491,cs),
(273,491,o),
(303,454,o),
(303,394,c),
(341,480,l),
(326,480,l),
(296,505,o),
(265,516,o),
(232,516,cs),
(115,516,o),
(30,400,o),
(30,233,cs),
(30,88,o),
(92,-9,o),
(181,-9,cs)
);
},
{
closed = 1;
nodes = (
(417,-205,ls),
(427,-205,o),
(432,-201,o),
(432,-194,cs),
(432,-188,o),
(428,-183,o),
(419,-182,cs),
(405,-180,ls),
(377,-176,o),
(371,-166,o),
(371,-138,cs),
(371,347,ls),
(371,427,o),
(374,472,o),
(379,502,cs),
(381,511,o),
(375,516,o),
(369,516,cs),
(363,516,o),
(358,513,o),
(351,504,cs),
(303,446,l),
(303,-138,ls),
(303,-166,o),
(297,-173,o),
(269,-177,cs),
(232,-182,ls),
(225,-183,o),
(221,-187,o),
(221,-193,cs),
(221,-201,o),
(226,-205,o),
(236,-205,cs)
);
}
);
};
layerId = m01;
shapes = (
{
closed = 1;
nodes = (
(417,-205,ls),
(427,-205,o),
(432,-201,o),
(432,-194,cs),
(432,-188,o),
(428,-183,o),
(419,-182,cs),
(405,-180,ls),
(377,-176,o),
(371,-166,o),
(371,-138,cs),
(371,347,ls),
(371,427,o),
(374,472,o),
(379,502,cs),
(381,511,o),
(378,516,o),
(371,516,cs),
(365,516,o),
(359,513,o),
(346,498,cs),
(334,482,o),
(322,479,o),
(306,490,cs),
(280,508,o),
(259,516,o),
(232,516,cs),
(115,516,o),
(30,400,o),
(30,233,cs),
(30,88,o),
(92,-9,o),
(181,-9,cs),
(223,-9,o),
(249,6,o),
(282,50,cs),
(291,61,o),
(303,56,o),
(303,45,cs),
(303,-138,ls),
(303,-166,o),
(297,-173,o),
(269,-177,cs),
(232,-182,ls),
(225,-183,o),
(221,-187,o),
(221,-193,cs),
(221,-201,o),
(226,-205,o),
(236,-205,cs)
);
},
{
closed = 1;
nodes = (
(141,37,o),
(104,110,o),
(104,247,cs),
(104,397,o),
(154,491,o),
(229,491,cs),
(273,491,o),
(303,454,o),
(303,394,cs),
(303,169,ls),
(303,95,o),
(254,37,o),
(203,37,cs)
);
}
);
width = 442;
}
);
unicode = 113;
},
{
glyphname = r;
kernLeft = n;
kernRight = r;
lastChange = "2022-09-01 19:37:15 +0000";
layers = (
{
anchors = (
{
name = bottom;
pos = (109,0);
},
{
name = top;
pos = (159,510);
}
);
background = {
shapes = (
{
closed = 1;
nodes = (
(199,0,ls),
(209,0,o),
(214,4,o),
(214,12,cs),
(214,18,o),
(210,22,o),
(203,23,cs),
(176,26,ls),
(148,29,o),
(142,39,o),
(142,67,cs),
(142,415,l),
(137,415,l),
(137,501,ls),
(137,509,o),
(134,513,o),
(128,513,cs),
(123,513,o),
(119,510,o),
(113,504,cs),
(89,482,o),
(72,467,o),
(31,461,cs),
(20,459,o),
(15,456,o),
(15,450,cs),
(15,444,o),
(18,440,o),
(28,439,cs),
(49,436,ls),
(68,433,o),
(74,427,o),
(74,403,cs),
(74,67,ls),
(74,39,o),
(68,30,o),
(40,25,cs),
(28,23,ls),
(19,21,o),
(15,17,o),
(15,11,cs),
(15,4,o),
(20,0,o),
(30,0,cs)
);
},
{
closed = 1;
nodes = (
(142,390,o),
(177,460,o),
(213,460,cs),
(250,460,o),
(236,410,o),
(279,410,cs),
(305,410,o),
(318,428,o),
(318,453,cs),
(318,485,o),
(297,516,o),
(253,516,cs),
(212,516,o),
(179,489,o),
(156,448,cs),
(142,423,l),
(131,423,l),
(142,299,l)
);
}
);
};
layerId = m01;
shapes = (
{
closed = 1;
nodes = (
(147,434,o),
(137,437,o),
(137,447,cs),
(137,501,ls),
(137,509,o),
(134,513,o),
(128,513,cs),
(123,513,o),
(119,510,o),
(113,504,cs),
(89,482,o),
(72,467,o),
(31,461,cs),
(20,459,o),
(15,456,o),
(15,450,cs),
(15,444,o),
(18,440,o),
(28,439,cs),
(49,436,ls),
(68,433,o),
(74,427,o),
(74,403,cs),
(74,67,ls),
(74,39,o),
(68,30,o),
(40,25,cs),
(28,23,ls),
(19,21,o),
(15,17,o),
(15,11,cs),
(15,4,o),
(20,0,o),
(30,0,cs),
(199,0,ls),
(209,0,o),
(214,4,o),
(214,12,cs),
(214,18,o),
(210,22,o),
(203,23,cs),
(176,26,ls),
(148,29,o),
(142,39,o),
(142,67,cs),
(142,299,ls),
(142,390,o),
(177,460,o),
(213,460,cs),
(250,460,o),
(236,410,o),
(279,410,cs),
(305,410,o),
(318,428,o),
(318,453,cs),
(318,485,o),
(297,516,o),
(253,516,cs),
(214,516,o),
(181,492,o),
(154,446,cs)
);
}
);
width = 318;
}
);
unicode = 114;
},
{
glyphname = s;
kernLeft = s;
kernRight = s;
lastChange = "2022-09-01 21:00:18 +0000";
layers = (
{
anchors = (
{
name = bottom;
pos = (144,0);
},
{
name = top;
pos = (154,510);
}
);
background = {
shapes = (
{
closed = 1;
nodes = (
(220,-9,o),
(280,46,o),
(280,132,cs),
(280,197,o),
(245,252,o),
(179,300,cs),
(105,351,o),
(82,378,o),
(82,417,cs),
(82,461,o),
(110,491,o),
(149,491,cs),
(187,491,o),
(211,462,o),
(229,392,cs),
(234,372,ls),
(236,363,o),
(240,359,o),
(247,359,cs),
(254,359,o),
(258,364,o),
(258,374,cs),
(256,481,ls),
(256,489,o),
(254,493,o),
(248,497,cs),
(228,510,o),
(201,516,o),
(174,516,cs),
(88,516,o),
(28,465,o),
(28,389,cs),
(28,333,o),
(59,288,o),
(128,241,cs),
(197,191,o),
(224,155,o),
(224,102,cs),
(224,49,o),
(194,16,o),
(149,16,cs),
(105,16,o),
(74,47,o),
(57,113,cs),
(50,140,ls),
(47,150,o),
(43,153,o),
(37,153,cs),
(31,153,o),
(26,149,o),
(26,139,cs),
(31,27,ls),
(31,19,o),
(33,14,o),
(40,10,cs),
(61,-1,o),
(100,-9,o),
(131,-9,cs)
);
}
);
};
layerId = m01;
shapes = (
{
closed = 1;
nodes = (
(220,-9,o),
(280,46,o),
(280,132,cs),
(280,197,o),
(245,252,o),
(179,300,cs),
(105,351,o),
(82,378,o),
(82,425,cs),
(82,461,o),
(107,488,o),
(142,488,cs),
(180,488,o),
(204,459,o),
(231,372,cs),
(234,363,o),
(237,356,o),
(246,356,cs),
(253,356,o),
(258,361,o),
(258,371,cs),
(256,481,ls),
(256,489,o),
(253,493,o),
(247,497,cs),
(227,510,o),
(201,516,o),
(174,516,cs),
(86,516,o),
(28,465,o),
(28,389,cs),
(28,333,o),
(59,288,o),
(128,241,cs),
(197,191,o),
(224,155,o),
(224,102,cs),
(224,49,o),
(195,17,o),
(157,17,cs),
(110,17,o),
(78,45,o),
(56,140,cs),
(53,151,o),
(49,156,o),
(41,156,cs),
(33,156,o),
(28,149,o),
(28,139,cs),
(31,27,ls),
(31,19,o),
(33,14,o),
(40,10,cs),
(61,-1,o),
(100,-9,o),
(131,-9,cs)
);
}
);
width = 308;
}
);
unicode = 115;
},
{
glyphname = germandbls;
kernLeft = f;
kernRight = s;
lastChange = "2022-08-23 20:02:28 +0000";
layers = (
{
background = {
shapes = (
{
closed = 1;
nodes = (
(153,484,ls),
(153,664,o),
(187,724,o),
(255,724,cs),
(317,724,o),
(347,673,o),
(347,598,cs),
(347,519,o),
(312,499,o),
(278,484,cs),
(243,469,o),
(208,459,o),
(208,397,cs),
(208,286,o),
(384,256,o),
(384,124,cs),
(384,60,o),
(374,13,o),
(310,13,cs),
(237,13,o),
(246,173,o),
(214,173,cs),
(205,173,o),
(198,169,o),
(198,146,cs),
(198,44,ls),
(198,23,o),
(199,20,o),
(217,8,cs),
(238,-6,o),
(265,-12,o),
(295,-12,cs),
(386,-12,o),
(439,57,o),
(439,142,cs),
(439,235,o),
(392,280,o),
(346,315,cs),
(299,351,o),
(252,375,o),
(252,424,cs),
(252,464,o),
(291,468,o),
(330,483,cs),
(368,498,o),
(407,523,o),
(407,605,cs),
(407,700,o),
(347,748,o),
(261,748,cs),
(162,748,o),
(97,639,o),
(97,499,cs),
(97,472,o),
(82,456,o),
(68,450,cs),
(53,445,o),
(38,443,o),
(38,430,cs),
(38,422,o),
(41,417,o),
(66,417,cs),
(86,417,o),
(93,414,o),
(93,393,cs),
(93,85,ls),
(93,37,o),
(85,27,o),
(43,22,cs),
(34,21,o),
(30,14,o),
(30,9,cs),
(30,2,o),
(36,-4,o),
(44,-4,cs),
(56,-4,o),
(65,1,o),
(93,1,cs),
(109,1,o),
(120,-4,o),
(136,-4,cs),
(150,-4,o),
(153,0,o),
(153,19,cs)
);
}
);
};
layerId = m01;
shapes = (
{
closed = 1;
nodes = (
(380,-9,o),
(431,46,o),
(431,132,cs),
(431,197,o),
(396,252,o),
(335,294,cs),
(261,345,o),
(241,368,o),
(241,405,cs),
(241,483,o),
(393,523,o),
(393,638,cs),
(393,687,o),
(351,748,o),
(264,748,c),
(152,748,o),
(85,654,o),
(85,544,cs),
(85,521,o),
(69,506,o),
(38,503,cs),
(30,502,o),
(26,498,o),
(26,492,cs),
(26,486,o),
(31,482,o),
(38,482,cs),
(61,482,ls),
(76,482,o),
(85,473,o),
(85,458,cs),
(85,67,ls),
(85,39,o),
(79,27,o),
(51,25,cs),
(26,23,ls),
(17,22,o),
(13,17,o),
(13,11,cs),
(13,4,o),
(18,0,o),
(28,0,cs),
(133,0,ls),
(146,0,o),
(153,7,o),
(153,20,c),
(153,570,ls),
(153,672,o),
(201,717,o),
(259,717,cs),
(307,717,o),
(329,688,o),
(329,643,cs),
(329,512,o),
(197,490,o),
(197,379,cs),
(197,324,o),
(225,282,o),
(294,235,cs),
(351,196,o),
(378,155,o),
(378,102,cs),
(378,49,o),
(347,17,o),
(311,17,cs),
(267,17,o),
(247,45,o),
(225,140,cs),
(222,151,o),
(218,156,o),
(210,156,cs),
(202,156,o),
(197,149,o),
(197,139,cs),
(200,27,ls),
(200,19,o),
(202,14,o),
(209,10,cs),
(230,-1,o),
(259,-9,o),
(297,-9,cs)
);
}
);
width = 443;
}
);
metricLeft = f;
unicode = 223;
},
{
glyphname = t;
kernLeft = t;
kernRight = t;
lastChange = "2022-09-01 20:40:20 +0000";
layers = (
{
anchors = (
{
name = bottom;
pos = (150,0);
},
{
name = center;
pos = (130,255);
},
{
name = top;
pos = (130,510);
},
{
name = topright;
pos = (195,760);
}
);
background = {
shapes = (
{
closed = 1;
nodes = (
(67,490,l),
(67,96,ls),
(67,21,o),
(100,-9,o),
(147,-9,cs),
(199,-9,o),
(245,37,o),
(245,151,c),
(221,151,l),
(218,78,o),
(198,48,o),
(168,48,cs),
(143,48,o),
(135,66,o),
(135,95,cs),
(135,490,l)
);
},
{
closed = 1;
nodes = (
(88,569,o),
(62,535,o),
(10,502,c),
(10,482,l),
(228,482,l),
(228,510,l),
(135,510,l),
(135,649,l),
(113,649,l)
);
}
);
};
guides = (
{
angle = 90;
pos = (245,486);
},
{
pos = (-79,649);
}
);
layerId = m01;
shapes = (
{
closed = 1;
nodes = (
(197,-9,o),
(241,33,o),
(245,136,cs),
(245,146,o),
(240,151,o),
(233,151,cs),
(226,151,o),
(221,146,o),
(220,137,cs),
(215,74,o),
(196,48,o),
(168,48,cs),
(143,48,o),
(135,66,o),
(135,95,cs),
(135,468,ls),
(135,477,o),
(140,482,o),
(149,482,cs),
(214,482,ls),
(223,482,o),
(230,487,o),
(230,496,cs),
(230,505,o),
(223,510,o),
(214,510,cs),
(149,510,ls),
(140,510,o),
(135,515,o),
(135,524,cs),
(135,635,ls),
(135,646,o),
(132,651,o),
(124,651,cs),
(117,651,o),
(112,646,o),
(107,630,cs),
(87,569,o),
(63,538,o),
(19,508,cs),
(13,504,o),
(10,500,o),
(10,494,cs),
(10,486,o),
(16,482,o),
(26,482,cs),
(55,482,ls),
(62,482,o),
(67,477,o),
(67,470,cs),
(67,96,ls),
(67,21,o),
(100,-9,o),
(147,-9,cs)
);
}
);
width = 259;
}
);
unicode = 116;
},
{
glyphname = u;
kernLeft = u;
kernRight = u;
lastChange = "2022-09-01 20:40:25 +0000";
layers = (
{
anchors = (
{
name = bottom;
pos = (226,0);
},
{
name = ogonek;
pos = (336,0);
},
{
name = top;
pos = (216,510);
},
{
name = topright;
pos = (436,510);
}
);
background = {
shapes = (
{
closed = 1;
nodes = (
(218,-9,o),
(251,9,o),
(295,53,cs),
(312,70,l),
(321,70,l),
(312,166,l),
(312,96,o),
(265,37,o),
(204,37,cs),
(162,37,o),
(138,60,o),
(138,122,cs),
(138,501,ls),
(138,509,o),
(135,513,o),
(129,513,cs),
(124,513,o),
(120,510,o),
(114,504,cs),
(90,482,o),
(68,467,o),
(27,461,cs),
(16,459,o),
(11,456,o),
(11,449,cs),
(11,444,o),
(14,440,o),
(24,439,cs),
(45,436,ls),
(64,433,o),
(70,427,o),
(70,403,cs),
(70,101,ls),
(70,21,o),
(121,-9,o),
(171,-9,cs)
);
},
{
closed = 1;
nodes = (
(331,-5,o),
(335,-2,o),
(341,4,cs),
(360,26,o),
(382,43,o),
(423,49,cs),
(434,51,o),
(439,54,o),
(439,61,cs),
(439,66,o),
(436,70,o),
(426,71,cs),
(405,74,ls),
(386,77,o),
(380,83,o),
(380,107,cs),
(380,501,ls),
(380,509,o),
(377,513,o),
(371,513,cs),
(366,513,o),
(362,510,o),
(356,504,cs),
(332,482,o),
(310,467,o),
(269,461,cs),
(258,459,o),
(253,456,o),
(253,449,cs),
(253,444,o),
(256,440,o),
(266,439,cs),
(287,436,ls),
(306,433,o),
(312,427,o),
(312,403,cs),
(312,95,l),
(317,95,l),
(317,7,ls),
(317,-1,o),
(320,-5,o),
(326,-5,cs)
);
}
);
};
layerId = m01;
shapes = (
{
closed = 1;
nodes = (
(218,-9,o),
(251,9,o),
(300,58,cs),
(308,66,o),
(317,63,o),
(317,53,cs),
(317,7,ls),
(317,-1,o),
(320,-5,o),
(326,-5,cs),
(331,-5,o),
(335,-2,o),
(341,4,cs),
(360,26,o),
(382,43,o),
(423,49,cs),
(434,51,o),
(439,54,o),
(439,61,cs),
(439,66,o),
(436,70,o),
(426,71,cs),
(405,74,ls),
(386,77,o),
(380,83,o),
(380,107,cs),
(380,495,ls),
(380,504,o),
(374,510,o),
(365,510,cs),
(272,510,ls),
(259,510,o),
(253,504,o),
(253,497,cs),
(253,490,o),
(259,485,o),
(270,484,cs),
(287,482,ls),
(306,480,o),
(312,473,o),
(312,449,cs),
(312,166,ls),
(312,96,o),
(265,37,o),
(204,37,cs),
(162,37,o),
(138,60,o),
(138,122,cs),
(138,495,ls),
(138,504,o),
(132,510,o),
(123,510,cs),
(30,510,ls),
(17,510,o),
(11,504,o),
(11,497,cs),
(11,490,o),
(17,485,o),
(28,484,cs),
(45,482,ls),
(64,480,o),
(70,473,o),
(70,449,cs),
(70,101,ls),
(70,21,o),
(121,-9,o),
(171,-9,cs)
);
}
);
width = 454;
}
);
unicode = 117;
},
{
glyphname = v;
lastChange = "2022-09-01 20:40:32 +0000";
layers = (
{
background = {
shapes = (
{
closed = 1;
nodes = (
(199,-9,o),
(204,-7,o),
(207,2,cs),
(334,419,ls),
(347,461,o),
(360,475,o),
(380,482,cs),
(389,485,ls),
(398,488,o),
(401,493,o),
(401,499,cs),
(401,505,o),
(397,510,o),
(387,510,cs),
(260,510,ls),
(251,510,o),
(246,506,o),
(246,500,cs),
(246,493,o),
(251,489,o),
(259,487,cs),
(280,483,ls),
(313,477,o),
(315,461,o),
(304,425,cs),
(216,127,l),
(211,127,l),
(120,443,ls),
(112,472,o),
(118,481,o),
(150,485,cs),
(166,487,ls),
(174,488,o),
(179,493,o),
(179,500,cs),
(179,506,o),
(174,510,o),
(165,510,cs),
(0,510,ls),
(-9,510,o),
(-14,506,o),
(-14,500,cs),
(-14,493,o),
(-10,489,o),
(-1,487,cs),
(14,484,ls),
(32,480,o),
(38,475,o),
(48,443,cs),
(181,2,ls),
(184,-7,o),
(189,-9,o),
(194,-9,cs)
);
}
);
};
layerId = m01;
shapes = (
{
closed = 1;
nodes = (
(199,-9,o),
(204,-7,o),
(207,2,cs),
(334,419,ls),
(347,461,o),
(360,475,o),
(380,482,cs),
(389,485,ls),
(398,488,o),
(401,493,o),
(401,499,cs),
(401,505,o),
(397,510,o),
(387,510,cs),
(260,510,ls),
(251,510,o),
(246,506,o),
(246,500,cs),
(246,493,o),
(251,489,o),
(259,487,cs),
(280,483,ls),
(313,477,o),
(315,461,o),
(304,425,cs),
(223,154,ls),
(219,139,o),
(207,139,o),
(203,154,cs),
(120,443,ls),
(112,472,o),
(118,481,o),
(150,485,cs),
(166,487,ls),
(174,488,o),
(179,493,o),
(179,500,cs),
(179,506,o),
(174,510,o),
(165,510,cs),
(0,510,ls),
(-9,510,o),
(-14,506,o),
(-14,500,cs),
(-14,493,o),
(-10,489,o),
(-1,487,cs),
(14,484,ls),
(32,480,o),
(38,475,o),
(48,443,cs),
(181,2,ls),
(184,-7,o),
(189,-9,o),
(194,-9,cs)
);
}
);
width = 393;
}
);
unicode = 118;
},
{
glyphname = w;
kernLeft = w;
kernRight = w;
lastChange = "2022-09-01 20:49:11 +0000";
layers = (
{
anchors = (
{
name = bottom;
pos = (299,0);
},
{
name = top;
pos = (311,510);
}
);
background = {
shapes = (
{
closed = 1;
nodes = (
(195,-9,o),
(201,-4,o),
(205,11,cs),
(321,447,l),
(294,453,l),
(208,127,l),
(203,127,l),
(117,443,ls),
(109,472,o),
(115,481,o),
(147,485,cs),
(163,487,ls),
(171,488,o),
(176,493,o),
(176,500,cs),
(176,506,o),
(171,510,o),
(162,510,cs),
(0,510,ls),
(-9,510,o),
(-14,506,o),
(-14,500,cs),
(-14,493,o),
(-10,489,o),
(-1,487,cs),
(14,484,ls),
(32,480,o),
(39,475,o),
(48,443,cs),
(169,11,ls),
(173,-4,o),
(179,-9,o),
(187,-9,cs)
);
},
{
closed = 1;
nodes = (
(414,-9,o),
(420,-4,o),
(424,11,cs),
(538,419,ls),
(550,461,o),
(564,475,o),
(584,482,cs),
(593,485,ls),
(602,488,o),
(605,493,o),
(605,499,cs),
(605,505,o),
(601,510,o),
(591,510,cs),
(466,510,ls),
(457,510,o),
(452,506,o),
(452,500,cs),
(452,493,o),
(457,489,o),
(465,487,cs),
(486,483,ls),
(519,477,o),
(520,461,o),
(510,425,cs),
(427,127,l),
(422,127,l),
(352,443,ls),
(346,472,o),
(350,481,o),
(382,485,cs),
(398,487,ls),
(406,488,o),
(411,493,o),
(411,500,cs),
(411,506,o),
(406,510,o),
(397,510,cs),
(235,510,ls),
(226,510,o),
(221,506,o),
(221,500,cs),
(221,493,o),
(225,489,o),
(234,487,cs),
(249,484,ls),
(267,480,o),
(275,475,o),
(283,443,cs),
(388,11,ls),
(392,-4,o),
(398,-9,o),
(405,-9,cs)
);
}
);
};
layerId = m01;
shapes = (
{
closed = 1;
nodes = (
(195,-9,o),
(201,-4,o),
(205,11,cs),
(291,331,ls),
(295,347,o),
(306,346,o),
(310,331,cs),
(388,11,ls),
(392,-4,o),
(398,-9,o),
(405,-9,cs),
(414,-9,o),
(420,-4,o),
(424,11,cs),
(538,419,ls),
(550,461,o),
(564,475,o),
(584,482,cs),
(593,485,ls),
(602,488,o),
(605,493,o),
(605,499,cs),
(605,505,o),
(601,510,o),
(591,510,cs),
(466,510,ls),
(457,510,o),
(452,506,o),
(452,500,cs),
(452,493,o),
(457,489,o),
(465,487,cs),
(486,483,ls),
(519,477,o),
(520,461,o),
(510,425,cs),
(434,154,ls),
(430,140,o),
(419,141,o),
(416,154,cs),
(352,443,ls),
(346,472,o),
(350,481,o),
(382,485,cs),
(398,487,ls),
(406,488,o),
(411,493,o),
(411,500,cs),
(411,506,o),
(406,510,o),
(397,510,cs),
(235,510,ls),
(226,510,o),
(221,506,o),
(221,500,cs),
(221,493,o),
(225,489,o),
(234,487,cs),
(249,484,ls),
(268,480,o),
(273,476,o),
(283,444,cs),
(287,432,o),
(286,422,o),
(283,411,cs),
(215,152,ls),
(211,138,o),
(200,138,o),
(196,152,cs),
(117,443,ls),
(109,472,o),
(115,481,o),
(147,485,cs),
(163,487,ls),
(171,488,o),
(176,493,o),
(176,500,cs),
(176,506,o),
(171,510,o),
(162,510,cs),
(0,510,ls),
(-9,510,o),
(-14,506,o),
(-14,500,cs),
(-14,493,o),
(-10,489,o),
(-1,487,cs),
(14,484,ls),
(32,480,o),
(39,475,o),
(48,443,cs),
(169,11,ls),
(173,-4,o),
(179,-9,o),
(187,-9,cs)
);
}
);
width = 597;
}
);
unicode = 119;
},
{
glyphname = x;
lastChange = "2022-09-01 20:49:22 +0000";
layers = (
{
background = {
shapes = (
{
closed = 1;
nodes = (
(375,0,ls),
(384,0,o),
(389,4,o),
(389,10,cs),
(389,17,o),
(385,21,o),
(376,23,cs),
(361,26,ls),
(348,29,o),
(341,35,o),
(325,67,cs),
(130,451,ls),
(121,468,o),
(128,480,o),
(146,484,cs),
(161,487,ls),
(169,489,o),
(174,493,o),
(174,500,cs),
(174,506,o),
(169,510,o),
(160,510,cs),
(12,510,ls),
(3,510,o),
(-2,506,o),
(-2,500,cs),
(-2,493,o),
(2,489,o),
(11,487,cs),
(26,484,ls),
(39,481,o),
(47,473,o),
(62,443,cs),
(257,59,ls),
(266,42,o),
(259,30,o),
(241,26,cs),
(226,23,ls),
(218,21,o),
(213,17,o),
(213,10,cs),
(213,4,o),
(218,0,o),
(227,0,cs)
);
},
{
closed = 1;
nodes = (
(134,0,ls),
(143,0,o),
(148,4,o),
(148,10,cs),
(148,17,o),
(144,21,o),
(135,23,cs),
(109,29,ls),
(91,33,o),
(87,48,o),
(102,77,cs),
(174,213,l),
(188,213,l),
(156,258,l),
(162,246,o),
(162,239,o),
(155,227,cs),
(81,91,ls),
(54,41,o),
(41,34,o),
(16,28,cs),
(4,25,ls),
(-5,23,o),
(-8,17,o),
(-8,11,cs),
(-8,5,o),
(-4,0,o),
(6,0,cs)
);
},
{
closed = 1;
nodes = (
(221,272,o),
(221,279,o),
(228,291,cs),
(297,419,ls),
(324,469,o),
(337,476,o),
(362,482,cs),
(374,485,ls),
(383,487,o),
(386,493,o),
(386,499,cs),
(386,505,o),
(382,510,o),
(372,510,cs),
(244,510,ls),
(235,510,o),
(230,506,o),
(230,500,cs),
(230,493,o),
(234,489,o),
(243,487,cs),
(269,481,ls),
(287,477,o),
(291,462,o),
(276,433,cs),
(209,306,l),
(194,306,l),
(227,260,l)
);
}
);
};
layerId = m01;
shapes = (
{
closed = 1;
nodes = (
(375,0,ls),
(384,0,o),
(389,4,o),
(389,10,cs),
(389,17,o),
(385,21,o),
(376,23,cs),
(361,26,ls),
(348,29,o),
(341,35,o),
(325,67,cs),
(227,260,ls),
(221,272,o),
(221,279,o),
(228,291,cs),
(297,419,ls),
(324,469,o),
(337,476,o),
(362,482,cs),
(374,485,ls),
(383,487,o),
(386,493,o),
(386,499,cs),
(386,505,o),
(382,510,o),
(372,510,cs),
(244,510,ls),
(235,510,o),
(230,506,o),
(230,500,cs),
(230,493,o),
(234,489,o),
(243,487,cs),
(269,481,ls),
(287,477,o),
(291,462,o),
(276,433,cs),
(216,319,ls),
(211,310,o),
(203,310,o),
(198,319,cs),
(130,451,ls),
(121,468,o),
(128,480,o),
(146,484,cs),
(161,487,ls),
(169,489,o),
(174,493,o),
(174,500,cs),
(174,506,o),
(169,510,o),
(160,510,cs),
(12,510,ls),
(3,510,o),
(-2,506,o),
(-2,500,cs),
(-2,493,o),
(2,489,o),
(11,487,cs),
(26,484,ls),
(39,481,o),
(47,473,o),
(62,443,cs),
(157,256,ls),
(162,245,o),
(161,238,o),
(155,227,cs),
(81,91,ls),
(54,41,o),
(41,34,o),
(16,28,cs),
(4,25,ls),
(-5,23,o),
(-8,17,o),
(-8,11,cs),
(-8,5,o),
(-4,0,o),
(6,0,cs),
(134,0,ls),
(143,0,o),
(148,4,o),
(148,10,cs),
(148,17,o),
(144,21,o),
(135,23,cs),
(109,29,ls),
(91,33,o),
(87,48,o),
(102,77,cs),
(167,199,ls),
(172,209,o),
(181,208,o),
(186,199,cs),
(257,59,ls),
(266,42,o),
(259,30,o),
(241,26,cs),
(226,23,ls),
(218,21,o),
(213,17,o),
(213,10,cs),
(213,4,o),
(218,0,o),
(227,0,cs)
);
}
);
width = 385;
}
);
unicode = 120;
},
{
glyphname = y;
kernLeft = y;
kernRight = y;
lastChange = "2022-09-01 20:21:06 +0000";
layers = (
{
anchors = (
{
name = bottom;
pos = (201,0);
},
{
name = top;
pos = (201,510);
}
);
background = {
shapes = (
{
closed = 1;
nodes = (
(124,-205,o),
(149,-187,o),
(193,-46,cs),
(342,419,ls),
(356,461,o),
(368,475,o),
(388,482,cs),
(397,485,ls),
(406,488,o),
(409,493,o),
(409,499,cs),
(409,505,o),
(405,510,o),
(395,510,cs),
(268,510,ls),
(259,510,o),
(254,506,o),
(254,500,cs),
(254,493,o),
(259,489,o),
(267,487,cs),
(288,483,ls),
(321,477,o),
(323,461,o),
(312,425,cs),
(220,127,l),
(215,127,l),
(120,443,ls),
(111,472,o),
(118,481,o),
(150,485,cs),
(166,487,ls),
(174,488,o),
(179,493,o),
(179,500,cs),
(179,506,o),
(174,510,o),
(165,510,cs),
(0,510,ls),
(-9,510,o),
(-14,506,o),
(-14,500,cs),
(-14,493,o),
(-10,489,o),
(-1,487,cs),
(14,484,ls),
(32,480,o),
(38,475,o),
(48,443,cs),
(157,96,ls),
(180,23,o),
(180,-5,o),
(161,-64,cs),
(140,-131,o),
(130,-145,o),
(116,-145,cs),
(93,-145,o),
(108,-99,o),
(65,-99,cs),
(39,-99,o),
(24,-119,o),
(24,-144,cs),
(24,-176,o),
(47,-205,o),
(83,-205,cs)
);
}
);
};
layerId = m01;
shapes = (
{
closed = 1;
nodes = (
(124,-205,o),
(148,-187,o),
(193,-46,cs),
(342,419,ls),
(356,461,o),
(368,475,o),
(388,482,cs),
(397,485,ls),
(406,488,o),
(409,493,o),
(409,499,cs),
(409,505,o),
(405,510,o),
(395,510,cs),
(268,510,ls),
(259,510,o),
(254,506,o),
(254,500,cs),
(254,493,o),
(259,489,o),
(267,487,cs),
(288,483,ls),
(321,477,o),
(323,461,o),
(312,425,cs),
(227,150,ls),
(223,137,o),
(212,137,o),
(208,150,cs),
(120,443,ls),
(111,472,o),
(118,481,o),
(150,485,cs),
(166,487,ls),
(174,488,o),
(179,493,o),
(179,500,cs),
(179,506,o),
(174,510,o),
(165,510,cs),
(0,510,ls),
(-9,510,o),
(-14,506,o),
(-14,500,cs),
(-14,493,o),
(-10,489,o),
(-1,487,cs),
(14,484,ls),
(32,480,o),
(38,475,o),
(48,443,cs),
(157,96,ls),
(180,23,o),
(180,-5,o),
(161,-64,cs),
(140,-131,o),
(130,-145,o),
(116,-145,cs),
(93,-145,o),
(108,-99,o),
(65,-99,cs),
(39,-99,o),
(24,-119,o),
(24,-144,cs),
(24,-176,o),
(47,-205,o),
(83,-205,cs)
);
}
);
width = 401;
}
);
metricRight = v;
unicode = 121;
},
{
glyphname = z;
kernLeft = z;
kernRight = z;
lastChange = "2022-09-01 20:49:33 +0000";
layers = (
{
anchors = (
{
name = bottom;
pos = (177,0);
},
{
name = center;
pos = (177,255);
},
{
name = top;
pos = (203,510);
}
);
background = {
shapes = (
{
closed = 1;
nodes = (
(291,0,ls),
(303,0,o),
(310,6,o),
(312,18,cs),
(338,165,ls),
(340,175,o),
(335,182,o),
(328,182,cs),
(320,182,o),
(317,178,o),
(313,169,cs),
(283,96,ls),
(263,48,o),
(240,28,o),
(162,28,cs),
(117,28,ls),
(102,28,o),
(99,37,o),
(105,48,cs),
(327,472,ls),
(333,484,o),
(337,492,o),
(337,497,cs),
(337,504,o),
(333,510,o),
(322,510,cs),
(118,510,ls),
(80,510,o),
(93,534,o),
(75,534,cs),
(66,534,o),
(60,528,o),
(57,510,cs),
(33,374,ls),
(31,365,o),
(35,359,o),
(43,359,cs),
(50,359,o),
(54,363,o),
(58,372,cs),
(80,418,ls),
(100,460,o),
(126,482,o),
(201,482,cs),
(236,482,ls),
(249,482,o),
(254,473,o),
(248,462,cs),
(25,38,ls),
(19,26,o),
(15,18,o),
(15,13,cs),
(15,6,o),
(19,0,o),
(30,0,cs)
);
}
);
};
layerId = m01;
shapes = (
{
closed = 1;
nodes = (
(291,0,ls),
(303,0,o),
(310,6,o),
(312,18,cs),
(338,165,ls),
(340,175,o),
(335,182,o),
(328,182,cs),
(320,182,o),
(317,178,o),
(313,169,cs),
(283,96,ls),
(263,46,o),
(239,26,o),
(161,26,cs),
(116,26,ls),
(101,26,o),
(98,35,o),
(104,46,cs),
(327,472,ls),
(333,484,o),
(337,492,o),
(337,497,cs),
(337,504,o),
(333,510,o),
(322,510,cs),
(122,510,ls),
(84,510,o),
(97,534,o),
(79,534,cs),
(70,534,o),
(64,528,o),
(61,510,cs),
(37,374,ls),
(35,365,o),
(39,359,o),
(47,359,cs),
(54,359,o),
(58,363,o),
(62,372,cs),
(84,418,ls),
(104,460,o),
(130,484,o),
(195,484,cs),
(237,484,ls),
(250,484,o),
(255,475,o),
(249,464,cs),
(25,38,ls),
(19,26,o),
(15,18,o),
(15,13,cs),
(15,6,o),
(19,0,o),
(30,0,cs)
);
}
);
width = 353;
}
);
unicode = 122;
},
{
glyphname = a.ss01;
kernLeft = a;
kernRight = a;
lastChange = "2022-08-27 16:36:11 +0000";
layers = (
{
background = {
shapes = (
{
closed = 1;
nodes = (
(169,-9,o),
(199,14,o),
(231,58,cs),
(240,71,o),
(252,70,o),
(254,57,cs),
(260,21,o),
(279,-9,o),
(311,-9,cs),
(354,-9,o),
(394,32,o),
(394,129,cs),
(394,141,o),
(389,146,o),
(382,146,cs),
(375,146,o),
(369,141,o),
(369,130,cs),
(369,74,o),
(351,53,o),
(334,53,cs),
(321,53,o),
(313,66,o),
(313,95,cs),
(313,401,ls),
(313,479,o),
(278,516,o),
(214,516,cs),
(129,516,o),
(31,433,o),
(31,355,cs),
(31,337,o),
(42,327,o),
(59,327,cs),
(81,327,o),
(107,345,o),
(114,388,cs),
(126,458,o),
(155,486,o),
(189,486,cs),
(223,486,o),
(245,461,o),
(245,397,cs),
(245,175,ls),
(245,97,o),
(198,37,o),
(147,37,cs),
(114,37,o),
(96,61,o),
(96,106,cs),
(96,186,o),
(155,241,o),
(254,269,c),
(254,296,l),
(121,259,o),
(24,178,o),
(24,88,cs),
(24,29,o),
(64,-9,o),
(120,-9,cs)
);
}
);
};
layerId = m01;
shapes = (
{
closed = 1;
nodes = (
(169,-9,o),
(199,14,o),
(231,58,cs),
(240,71,o),
(252,70,o),
(254,57,cs),
(261,10,o),
(275,-9,o),
(310,-9,cs),
(344,-9,o),
(373,19,o),
(373,35,cs),
(373,40,o),
(370,43,o),
(365,43,cs),
(357,43,o),
(351,33,o),
(336,33,cs),
(320,33,o),
(313,43,o),
(313,66,cs),
(313,401,ls),
(313,479,o),
(278,516,o),
(214,516,cs),
(129,516,o),
(31,433,o),
(31,355,cs),
(31,337,o),
(42,327,o),
(59,327,cs),
(81,327,o),
(107,345,o),
(114,388,cs),
(126,458,o),
(155,486,o),
(189,486,cs),
(223,486,o),
(245,461,o),
(245,397,cs),
(245,306,ls),
(245,298,o),
(241,292,o),
(232,289,cs),
(111,250,o),
(24,173,o),
(24,88,cs),
(24,29,o),
(64,-9,o),
(120,-9,cs)
);
},
{
closed = 1;
nodes = (
(114,37,o),
(96,61,o),
(96,106,cs),
(96,178,o),
(143,229,o),
(224,259,cs),
(237,264,o),
(245,259,o),
(245,248,cs),
(245,175,ls),
(245,97,o),
(198,37,o),
(147,37,cs)
);
}
);
width = 389;
}
);
},
{
glyphname = c.ss01;
kernLeft = o;
kernRight = c;
lastChange = "2022-08-27 16:33:08 +0000";
layers = (
{
anchors = (
{
name = bottom;
pos = (182,0);
},
{
name = top;
pos = (208,510);
}
);
background = {
shapes = (
{
closed = 1;
nodes = (
(246,-9,o),
(293,26,o),
(316,167,cs),
(318,179,o),
(315,187,o),
(307,187,cs),
(300,187,o),
(297,183,o),
(295,176,cs),
(272,74,o),
(243,42,o),
(196,42,cs),
(137,42,o),
(97,114,o),
(97,257,cs),
(97,425,o),
(149,490,o),
(189,490,cs),
(223,490,o),
(246,462,o),
(274,352,cs),
(276,343,o),
(281,339,o),
(288,339,cs),
(294,339,o),
(300,344,o),
(300,354,cs),
(298,476,ls),
(298,487,o),
(295,493,o),
(288,498,cs),
(269,511,o),
(248,516,o),
(216,516,cs),
(107,516,o),
(23,406,o),
(23,236,cs),
(23,84,o),
(92,-9,o),
(180,-9,cs)
);
}
);
};
layerId = m01;
shapes = (
{
closed = 1;
nodes = (
(257,-9,o),
(298,38,o),
(316,114,cs),
(318,122,o),
(316,130,o),
(308,130,cs),
(302,130,o),
(298,126,o),
(296,119,cs),
(278,64,o),
(245,37,o),
(204,37,cs),
(137,37,o),
(97,114,o),
(97,257,cs),
(97,425,o),
(149,490,o),
(189,490,cs),
(223,490,o),
(246,462,o),
(274,352,cs),
(276,343,o),
(281,339,o),
(288,339,cs),
(294,339,o),
(300,344,o),
(300,354,cs),
(298,476,ls),
(298,487,o),
(295,493,o),
(288,498,cs),
(269,511,o),
(248,516,o),
(216,516,cs),
(107,516,o),
(23,406,o),
(23,236,cs),
(23,84,o),
(92,-9,o),
(185,-9,cs)
);
}
);
width = 339;
}
);
},
{
glyphname = d.ss01;
kernLeft = o;
kernRight = d;
lastChange = "2022-08-27 16:36:33 +0000";
layers = (
{
anchors = (
{
name = bottom;
pos = (223,0);
},
{
name = center;
pos = (223,255);
},
{
name = top;
pos = (223,740);
},
{
name = topright;
pos = (402,740);
}
);
background = {
shapes = (
{
closed = 1;
nodes = (
(223,-9,o),
(249,6,o),
(280,47,cs),
(298,71,l),
(307,71,l),
(303,169,l),
(303,95,o),
(254,37,o),
(203,37,cs),
(141,37,o),
(104,110,o),
(104,247,cs),
(104,397,o),
(154,491,o),
(229,491,cs),
(273,491,o),
(303,454,o),
(303,394,c),
(341,480,l),
(326,480,l),
(296,505,o),
(265,516,o),
(232,516,cs),
(115,516,o),
(30,400,o),
(30,233,cs),
(30,88,o),
(92,-9,o),
(181,-9,cs)
);
},
{
closed = 1;
nodes = (
(412,-9,o),
(452,32,o),
(452,129,cs),
(452,141,o),
(447,146,o),
(440,146,cs),
(433,146,o),
(427,141,o),
(427,130,cs),
(427,74,o),
(409,53,o),
(392,53,cs),
(379,53,o),
(371,66,o),
(371,95,cs),
(371,724,ls),
(371,735,o),
(367,740,o),
(360,740,cs),
(354,740,o),
(347,737,o),
(336,730,cs),
(319,719,o),
(294,708,o),
(252,700,cs),
(245,699,o),
(241,694,o),
(241,688,cs),
(241,682,o),
(245,677,o),
(252,676,cs),
(278,673,ls),
(297,671,o),
(303,664,o),
(303,640,cs),
(303,73,ls),
(303,21,o),
(333,-9,o),
(370,-9,cs)
);
}
);
};
layerId = m01;
shapes = (
{
closed = 1;
nodes = (
(225,-9,o),
(251,6,o),
(288,58,cs),
(295,68,o),
(306,69,o),
(308,57,cs),
(315,10,o),
(333,-9,o),
(367,-9,cs),
(409,-9,o),
(436,25,o),
(436,41,cs),
(436,46,o),
(433,49,o),
(428,49,cs),
(420,49,o),
(412,33,o),
(393,33,cs),
(378,33,o),
(371,43,o),
(371,66,cs),
(371,724,ls),
(371,735,o),
(367,740,o),
(360,740,cs),
(354,740,o),
(347,737,o),
(336,730,cs),
(319,719,o),
(294,708,o),
(252,700,cs),
(245,699,o),
(241,694,o),
(241,688,cs),
(241,682,o),
(245,677,o),
(252,676,cs),
(278,673,ls),
(297,671,o),
(303,664,o),
(303,640,cs),
(303,512,ls),
(303,502,o),
(297,500,o),
(287,505,cs),
(269,513,o),
(251,516,o),
(232,516,cs),
(115,516,o),
(30,400,o),
(30,233,cs),
(30,88,o),
(92,-9,o),
(181,-9,cs)
);
},
{
closed = 1;
nodes = (
(141,37,o),
(104,110,o),
(104,247,cs),
(104,397,o),
(154,491,o),
(229,491,cs),
(273,491,o),
(303,454,o),
(303,394,cs),
(303,169,ls),
(303,95,o),
(254,37,o),
(203,37,cs)
);
}
);
width = 446;
}
);
},
{
glyphname = dcroat.ss01;
kernLeft = o;
kernRight = d;
lastChange = "2022-08-27 16:34:48 +0000";
layers = (
{
layerId = m01;
shapes = (
{
ref = d.ss01;
},
{
closed = 1;
nodes = (
(427,578,ls),
(433,578,o),
(437,582,o),
(437,588,cs),
(437,596,ls),
(437,602,o),
(433,606,o),
(427,606,cs),
(152,606,ls),
(146,606,o),
(142,602,o),
(142,596,cs),
(142,588,ls),
(142,582,o),
(146,578,o),
(152,578,cs)
);
}
);
width = 457;
}
);
},
{
glyphname = e.ss01;
kernLeft = o;
kernRight = e;
lastChange = "2022-08-27 16:36:41 +0000";
layers = (
{
anchors = (
{
name = bottom;
pos = (178,0);
},
{
name = ogonek;
pos = (266,10);
},
{
name = top;
pos = (178,510);
}
);
background = {
shapes = (
{
closed = 1;
nodes = (
(306,273,ls),
(330,273,o),
(330,276,o),
(330,341,cs),
(330,452,o),
(275,516,o),
(199,516,cs),
(110,516,o),
(23,427,o),
(23,242,cs),
(23,92,o),
(89,-9,o),
(204,-9,cs),
(254,-9,o),
(301,22,o),
(321,72,cs),
(327,88,o),
(332,106,o),
(332,124,cs),
(332,135,o),
(329,137,o),
(326,137,cs),
(318,137,o),
(316,122,o),
(308,100,cs),
(293,60,o),
(262,37,o),
(214,37,cs),
(141,37,o),
(91,121,o),
(91,252,cs),
(91,266,o),
(97,273,o),
(115,273,cs)
);
},
{
closed = 1;
nodes = (
(94,328,ls),
(94,418,o),
(137,489,o),
(194,489,cs),
(239,489,o),
(272,445,o),
(272,369,cs),
(272,339,o),
(268,327,o),
(259,319,cs),
(252,314,o),
(229,308,o),
(194,306,cs),
(178,305,o),
(160,304,o),
(139,304,cs),
(96,304,o),
(94,308,o),
(94,327,cs)
);
}
);
};
layerId = m01;
shapes = (
{
closed = 1;
nodes = (
(270,-9,o),
(309,38,o),
(327,104,cs),
(329,112,o),
(327,120,o),
(319,120,cs),
(313,120,o),
(309,116,o),
(306,109,cs),
(289,64,o),
(260,37,o),
(213,37,cs),
(138,37,o),
(95,113,o),
(95,254,cs),
(95,270,o),
(102,277,o),
(115,277,cs),
(305,277,ls),
(322,277,o),
(330,289,o),
(330,310,cs),
(330,455,o),
(276,516,o),
(198,516,cs),
(99,516,o),
(23,406,o),
(23,249,cs),
(23,94,o),
(96,-9,o),
(195,-9,cs)
);
},
{
closed = 1;
nodes = (
(102,302,o),
(96,308,o),
(97,318,cs),
(107,428,o),
(145,491,o),
(197,491,cs),
(239,491,o),
(261,439,o),
(261,352,cs),
(261,317,o),
(246,302,o),
(213,302,cs),
(112,302,ls)
);
}
);
width = 355;
}
);
},
{
glyphname = g.ss01;
kernLeft = g;
kernRight = g;
lastChange = "2022-08-27 16:37:06 +0000";
layers = (
{
anchors = (
{
name = bottom;
pos = (198,-205);
},
{
name = top;
pos = (198,510);
}
);
background = {
shapes = (
{
closed = 1;
nodes = (
(293,-215,o),
(385,-144,o),
(385,-46,cs),
(385,36,o),
(325,87,o),
(229,87,cs),
(155,87,ls),
(123,87,o),
(106,98,o),
(106,120,cs),
(106,143,o),
(124,157,o),
(170,169,cs),
(230,185,ls),
(299,203,o),
(345,267,o),
(345,348,cs),
(345,401,o),
(325,447,o),
(294,477,c),
(294,482,l),
(363,482,ls),
(374,482,o),
(381,487,o),
(381,496,cs),
(381,505,o),
(374,510,o),
(363,510,cs),
(267,510,ls),
(237,510,o),
(225,516,o),
(197,516,cs),
(113,516,o),
(47,444,o),
(47,352,cs),
(47,279,o),
(92,212,o),
(155,192,c),
(155,188,l),
(118,178,ls),
(72,166,o),
(42,135,o),
(42,99,cs),
(42,67,o),
(64,42,o),
(106,26,c),
(106,20,l),
(83,8,ls),
(37,-16,o),
(14,-49,o),
(14,-93,cs),
(14,-168,o),
(77,-215,o),
(178,-215,cs)
);
},
{
closed = 1;
nodes = (
(74,-22,o),
(138,26,o),
(188,26,cs),
(220,26,ls),
(284,26,o),
(321,-8,o),
(321,-68,cs),
(321,-141,o),
(262,-193,o),
(190,-193,cs),
(116,-193,o),
(74,-157,o),
(74,-81,cs)
);
},
{
closed = 1;
nodes = (
(118,437,o),
(149,494,o),
(196,494,cs),
(243,494,o),
(274,437,o),
(274,350,cs),
(274,261,o),
(244,205,o),
(196,205,cs),
(148,205,o),
(118,261,o),
(118,350,cs)
);
}
);
};
guides = (
{
pos = (124,26);
}
);
layerId = m01;
shapes = (
{
closed = 1;
nodes = (
(305,-215,o),
(397,-144,o),
(397,-46,cs),
(397,36,o),
(337,87,o),
(241,87,cs),
(143,87,ls),
(114,87,o),
(105,111,o),
(132,142,cs),
(157,170,o),
(173,180,o),
(197,180,cs),
(281,180,o),
(345,252,o),
(345,348,cs),
(345,391,o),
(332,429,o),
(310,458,cs),
(306,464,o),
(307,468,o),
(314,470,cs),
(368,483,ls),
(377,485,o),
(381,490,o),
(381,498,cs),
(381,505,o),
(376,510,o),
(366,510,cs),
(277,510,ls),
(233,510,o),
(225,516,o),
(197,516,cs),
(113,516,o),
(47,444,o),
(47,352,cs),
(47,288,o),
(81,234,o),
(120,208,cs),
(136,198,o),
(138,183,o),
(123,170,cs),
(65,121,ls),
(33,94,o),
(43,59,o),
(91,39,cs),
(107,32,o),
(107,18,o),
(91,4,cs),
(23,-56,o),
(14,-76,o),
(14,-111,cs),
(14,-168,o),
(77,-215,o),
(178,-215,cs)
);
},
{
closed = 1;
nodes = (
(74,-70,o),
(79,-46,o),
(116,-6,cs),
(140,19,o),
(155,26,o),
(197,26,cs),
(232,26,ls),
(296,26,o),
(333,-8,o),
(333,-68,cs),
(333,-141,o),
(274,-193,o),
(190,-193,cs),
(116,-193,o),
(74,-154,o),
(74,-98,cs)
);
},
{
closed = 1;
nodes = (
(118,437,o),
(149,494,o),
(196,494,cs),
(243,494,o),
(274,437,o),
(274,350,cs),
(274,261,o),
(244,205,o),
(196,205,cs),
(148,205,o),
(118,261,o),
(118,350,cs)
);
}
);
width = 395;
}
);
},
{
glyphname = f_b;
kernLeft = f;
kernRight = o;
lastChange = "2023-02-22 10:41:05 +0000";
layers = (
{
anchors = (
{
name = bottom_1;
pos = (179,0);
},
{
name = bottom_2;
pos = (537,0);
},
{
name = caret_1;
pos = (358,0);
},
{
name = top_1;
pos = (179,740);
},
{
name = top_2;
pos = (537,740);
}
);
background = {
shapes = (
{
closed = 1;
nodes = (
(85,39,o),
(79,27,o),
(51,25,cs),
(26,23,ls),
(17,22,o),
(13,17,o),
(13,11,cs),
(13,4,o),
(18,0,o),
(28,0,cs),
(236,0,ls),
(246,0,o),
(251,4,o),
(251,12,cs),
(251,18,o),
(247,22,o),
(240,23,cs),
(187,28,ls),
(159,31,o),
(153,39,o),
(153,67,cs),
(153,470,ls),
(153,477,o),
(158,482,o),
(165,482,cs),
(251,482,ls),
(259,482,o),
(266,487,o),
(266,496,cs),
(266,505,o),
(259,510,o),
(251,510,cs),
(165,510,ls),
(158,510,o),
(153,515,o),
(153,522,cs),
(153,610,ls),
(153,692,o),
(169,717,o),
(196,717,cs),
(246,717,o),
(223,632,o),
(277,632,cs),
(298,632,o),
(312,645,o),
(312,670,cs),
(312,713,o),
(271,748,o),
(218,748,cs),
(132,748,o),
(85,654,o),
(85,550,cs),
(85,544,ls),
(85,521,o),
(69,506,o),
(38,503,cs),
(30,502,o),
(26,498,o),
(26,492,cs),
(26,486,o),
(31,482,o),
(38,482,cs),
(61,482,ls),
(76,482,o),
(85,473,o),
(85,458,cs),
(85,67,ls)
);
},
{
closed = 1;
nodes = (
(606,-9,o),
(691,107,o),
(691,274,cs),
(691,419,o),
(625,516,o),
(533,516,cs),
(497,516,o),
(468,502,o),
(439,472,cs),
(428,461,o),
(418,466,o),
(418,477,cs),
(418,724,ls),
(418,735,o),
(414,740,o),
(407,740,cs),
(401,740,o),
(394,737,o),
(383,730,cs),
(366,719,o),
(341,708,o),
(304,700,cs),
(297,699,o),
(293,694,o),
(293,688,cs),
(293,682,o),
(297,677,o),
(304,676,cs),
(325,673,ls),
(344,670,o),
(350,664,o),
(350,640,cs),
(350,160,ls),
(350,80,o),
(347,35,o),
(342,5,cs),
(340,-4,o),
(343,-9,o),
(350,-9,cs),
(356,-9,o),
(362,-6,o),
(375,9,cs),
(387,25,o),
(399,28,o),
(415,17,cs),
(441,-1,o),
(466,-9,o),
(494,-9,cs)
);
},
{
closed = 1;
nodes = (
(448,16,o),
(418,53,o),
(418,113,cs),
(418,365,ls),
(418,432,o),
(456,471,o),
(502,471,cs),
(575,471,o),
(617,397,o),
(617,260,cs),
(617,110,o),
(567,16,o),
(492,16,cs)
);
}
);
};
layerId = m01;
shapes = (
{
closed = 1;
nodes = (
(341,-9,o),
(347,-6,o),
(360,9,cs),
(372,25,o),
(384,28,o),
(400,17,cs),
(426,-1,o),
(451,-9,o),
(479,-9,cs),
(591,-9,o),
(676,107,o),
(676,274,cs),
(676,419,o),
(610,516,o),
(518,516,cs),
(482,516,o),
(453,502,o),
(424,472,cs),
(413,461,o),
(403,466,o),
(403,477,cs),
(403,724,ls),
(403,735,o),
(399,743,o),
(390,743,cs),
(378,743,o),
(374,736,o),
(366,712,cs),
(363,703,o),
(355,702,o),
(349,709,cs),
(325,734,o),
(294,748,o),
(256,748,cs),
(147,748,o),
(85,654,o),
(85,550,cs),
(85,544,ls),
(85,521,o),
(69,506,o),
(38,503,cs),
(30,502,o),
(26,498,o),
(26,492,cs),
(26,486,o),
(31,482,o),
(38,482,cs),
(61,482,ls),
(76,482,o),
(85,473,o),
(85,458,cs),
(85,67,ls),
(85,39,o),
(79,28,o),
(46,25,cs),
(26,23,ls),
(17,22,o),
(13,17,o),
(13,11,cs),
(13,4,o),
(18,0,o),
(28,0,cs),
(203,0,ls),
(213,0,o),
(218,4,o),
(218,12,cs),
(218,18,o),
(214,22,o),
(207,23,cs),
(182,26,ls),
(159,29,o),
(153,39,o),
(153,67,cs),
(153,470,ls),
(153,477,o),
(158,482,o),
(165,482,cs),
(251,482,ls),
(259,482,o),
(266,487,o),
(266,496,cs),
(266,505,o),
(259,510,o),
(251,510,cs),
(165,510,ls),
(158,510,o),
(153,515,o),
(153,522,cs),
(153,590,ls),
(153,692,o),
(198,723,o),
(248,723,cs),
(313,723,o),
(335,671,o),
(335,606,cs),
(335,160,ls),
(335,80,o),
(332,35,o),
(327,5,cs),
(325,-4,o),
(328,-9,o),
(335,-9,cs)
);
},
{
closed = 1;
nodes = (
(433,16,o),
(403,53,o),
(403,113,cs),
(403,365,ls),
(403,432,o),
(441,471,o),
(487,471,cs),
(560,471,o),
(602,397,o),
(602,260,cs),
(602,110,o),
(552,16,o),
(477,16,cs)
);
}
);
width = 716;
}
);
metricLeft = f;
metricRight = b;
},
{
glyphname = f_f_i;
lastChange = "2023-02-22 10:41:05 +0000";
layers = (
{
anchors = (
{
name = caret_1;
pos = (242.333,0);
},
{
name = caret_2;
pos = (484.667,0);
}
);
background = {
shapes = (
{
closed = 1;
nodes = (
(453,0,ls),
(463,0,o),
(468,4,o),
(468,12,cs),
(468,18,o),
(464,22,o),
(457,23,cs),
(432,26,ls),
(409,29,o),
(403,39,o),
(403,67,cs),
(403,470,ls),
(403,477,o),
(408,482,o),
(415,482,cs),
(569,482,ls),
(578,482,o),
(583,477,o),
(583,468,cs),
(583,67,ls),
(583,39,o),
(577,30,o),
(544,25,cs),
(532,23,ls),
(523,21,o),
(519,17,o),
(519,11,cs),
(519,4,o),
(524,0,o),
(534,0,cs),
(701,0,ls),
(711,0,o),
(716,4,o),
(716,12,cs),
(716,18,o),
(712,22,o),
(705,23,cs),
(680,26,ls),
(657,29,o),
(651,39,o),
(651,67,cs),
(651,486,ls),
(651,501,o),
(642,510,o),
(627,510,cs),
(415,510,ls),
(408,510,o),
(403,515,o),
(403,522,cs),
(403,590,ls),
(403,692,o),
(448,719,o),
(498,719,cs),
(575,719,o),
(557,626,o),
(613,626,cs),
(641,626,o),
(653,643,o),
(653,668,cs),
(653,711,o),
(599,748,o),
(518,748,cs),
(423,748,o),
(363,691,o),
(342,616,c),
(335,616,l),
(335,67,ls),
(335,39,o),
(329,28,o),
(296,25,cs),
(276,23,ls),
(267,22,o),
(263,17,o),
(263,11,cs),
(263,4,o),
(268,0,o),
(278,0,cs)
);
},
{
closed = 1;
nodes = (
(381,637,l),
(353,700,o),
(314,728,o),
(256,728,cs),
(147,728,o),
(85,634,o),
(85,550,cs),
(85,544,ls),
(85,521,o),
(69,506,o),
(38,503,cs),
(30,502,o),
(26,498,o),
(26,492,cs),
(26,486,o),
(31,482,o),
(38,482,cs),
(61,482,ls),
(76,482,o),
(85,473,o),
(85,458,cs),
(85,67,ls),
(85,39,o),
(79,28,o),
(46,25,cs),
(26,23,ls),
(17,22,o),
(13,17,o),
(13,11,cs),
(13,4,o),
(18,0,o),
(28,0,cs),
(203,0,ls),
(213,0,o),
(218,4,o),
(218,12,cs),
(218,18,o),
(214,22,o),
(207,23,cs),
(182,26,ls),
(159,29,o),
(153,39,o),
(153,67,cs),
(153,470,ls),
(153,477,o),
(158,482,o),
(165,482,cs),
(348,482,ls),
(356,482,o),
(363,487,o),
(363,496,cs),
(363,505,o),
(356,510,o),
(348,510,cs),
(165,510,ls),
(158,510,o),
(153,515,o),
(153,522,cs),
(153,590,ls),
(153,672,o),
(198,703,o),
(248,703,cs),
(313,703,o),
(335,651,o),
(335,586,c)
);
}
);
};
layerId = m01;
shapes = (
{
closed = 1;
nodes = (
(203,0,ls),
(213,0,o),
(218,4,o),
(218,12,cs),
(218,18,o),
(214,22,o),
(207,23,cs),
(182,26,ls),
(159,29,o),
(153,39,o),
(153,67,cs),
(153,470,ls),
(153,477,o),
(158,482,o),
(165,482,cs),
(323,482,ls),
(330,482,o),
(335,477,o),
(335,470,cs),
(335,67,ls),
(335,39,o),
(329,28,o),
(296,25,cs),
(276,23,ls),
(267,22,o),
(263,17,o),
(263,11,cs),
(263,4,o),
(268,0,o),
(278,0,cs),
(453,0,ls),
(463,0,o),
(468,4,o),
(468,12,cs),
(468,18,o),
(464,22,o),
(457,23,cs),
(432,26,ls),
(409,29,o),
(403,39,o),
(403,67,cs),
(403,470,ls),
(403,477,o),
(408,482,o),
(415,482,cs),
(569,482,ls),
(578,482,o),
(583,477,o),
(583,468,cs),
(583,67,ls),
(583,39,o),
(577,30,o),
(544,25,cs),
(532,23,ls),
(523,21,o),
(519,17,o),
(519,11,cs),
(519,4,o),
(524,0,o),
(534,0,cs),
(701,0,ls),
(711,0,o),
(716,4,o),
(716,12,cs),
(716,18,o),
(712,22,o),
(705,23,cs),
(680,26,ls),
(657,29,o),
(651,39,o),
(651,67,cs),
(651,486,ls),
(651,501,o),
(642,510,o),
(627,510,cs),
(415,510,ls),
(408,510,o),
(403,515,o),
(403,522,cs),
(403,590,ls),
(403,692,o),
(448,719,o),
(498,719,cs),
(575,719,o),
(557,626,o),
(613,626,cs),
(641,626,o),
(653,643,o),
(653,668,cs),
(653,711,o),
(599,748,o),
(518,748,cs),
(453,748,o),
(404,721,o),
(373,680,cs),
(368,673,o),
(362,673,o),
(357,680,cs),
(331,713,o),
(299,728,o),
(256,728,cs),
(147,728,o),
(85,634,o),
(85,550,cs),
(85,544,ls),
(85,521,o),
(69,506,o),
(38,503,cs),
(30,502,o),
(26,498,o),
(26,492,cs),
(26,486,o),
(31,482,o),
(38,482,cs),
(61,482,ls),
(76,482,o),
(85,473,o),
(85,458,cs),
(85,67,ls),
(85,39,o),
(79,28,o),
(46,25,cs),
(26,23,ls),
(17,22,o),
(13,17,o),
(13,11,cs),
(13,4,o),
(18,0,o),
(28,0,cs)
);
},
{
closed = 1;
nodes = (
(158,510,o),
(153,515,o),
(153,522,cs),
(153,590,ls),
(153,672,o),
(198,703,o),
(248,703,cs),
(313,703,o),
(335,651,o),
(335,586,cs),
(335,522,ls),
(335,515,o),
(330,510,o),
(323,510,cs),
(165,510,ls)
);
}
);
width = 727;
}
);
metricLeft = f;
metricRight = i;
},
{
glyphname = f_f_l;
lastChange = "2023-02-22 10:41:05 +0000";
layers = (
{
anchors = (
{
name = caret_1;
pos = (243.667,0);
},
{
name = caret_2;
pos = (487.333,0);
}
);
background = {
shapes = (
{
closed = 1;
nodes = (
(357,680,l),
(331,713,o),
(299,728,o),
(256,728,cs),
(147,728,o),
(85,634,o),
(85,550,cs),
(85,544,ls),
(85,521,o),
(69,506,o),
(38,503,cs),
(30,502,o),
(26,498,o),
(26,492,cs),
(26,486,o),
(31,482,o),
(38,482,cs),
(61,482,ls),
(76,482,o),
(85,473,o),
(85,458,cs),
(85,67,ls),
(85,39,o),
(79,28,o),
(46,25,cs),
(26,23,ls),
(17,22,o),
(13,17,o),
(13,11,cs),
(13,4,o),
(18,0,o),
(28,0,cs),
(203,0,ls),
(213,0,o),
(218,4,o),
(218,12,cs),
(218,18,o),
(214,22,o),
(207,23,cs),
(182,26,ls),
(159,29,o),
(153,39,o),
(153,67,cs),
(153,470,ls),
(153,477,o),
(158,482,o),
(165,482,cs),
(323,482,ls),
(330,482,o),
(335,477,o),
(335,470,cs),
(335,67,ls),
(335,39,o),
(329,28,o),
(296,25,cs),
(276,23,ls),
(267,22,o),
(263,17,o),
(263,11,cs),
(263,4,o),
(268,0,o),
(278,0,cs),
(453,0,ls),
(463,0,o),
(468,4,o),
(468,12,cs),
(468,18,o),
(464,22,o),
(457,23,cs),
(432,26,ls),
(409,29,o),
(403,39,o),
(403,67,cs),
(403,470,ls),
(403,477,o),
(408,482,o),
(415,482,cs),
(501,482,ls),
(509,482,o),
(516,487,o),
(516,496,cs),
(516,505,o),
(509,510,o),
(501,510,cs),
(415,510,ls),
(408,510,o),
(403,515,o),
(403,522,cs),
(403,590,ls),
(403,692,o),
(448,723,o),
(498,723,cs),
(563,723,o),
(585,671,o),
(585,606,cs),
(585,67,ls),
(585,39,o),
(572,29,o),
(544,25,cs),
(530,23,ls),
(523,22,o),
(519,17,o),
(519,11,cs),
(519,5,o),
(524,0,o),
(531,0,cs),
(709,0,ls),
(716,0,o),
(721,4,o),
(721,11,cs),
(721,18,o),
(717,22,o),
(710,23,cs),
(687,26,ls),
(659,30,o),
(653,39,o),
(653,67,cs),
(653,724,ls),
(653,735,o),
(649,743,o),
(640,743,cs),
(628,743,o),
(624,736,o),
(616,712,cs),
(613,703,o),
(605,702,o),
(599,709,cs),
(575,734,o),
(544,748,o),
(506,748,cs),
(422,748,o),
(366,692,o),
(345,619,c),
(335,619,l),
(335,522,ls),
(335,515,o),
(330,510,o),
(323,510,cs),
(165,510,ls),
(158,510,o),
(153,515,o),
(153,522,cs),
(153,590,ls),
(153,672,o),
(198,703,o),
(248,703,cs),
(313,703,o),
(335,651,o),
(335,586,c)
);
}
);
};
layerId = m01;
shapes = (
{
closed = 1;
nodes = (
(203,0,ls),
(213,0,o),
(218,4,o),
(218,12,cs),
(218,18,o),
(214,22,o),
(207,23,cs),
(182,26,ls),
(159,29,o),
(153,39,o),
(153,67,cs),
(153,470,ls),
(153,477,o),
(158,482,o),
(165,482,cs),
(323,482,ls),
(330,482,o),
(335,477,o),
(335,470,cs),
(335,67,ls),
(335,39,o),
(329,28,o),
(296,25,cs),
(276,23,ls),
(267,22,o),
(263,17,o),
(263,11,cs),
(263,4,o),
(268,0,o),
(278,0,cs),
(453,0,ls),
(463,0,o),
(468,4,o),
(468,12,cs),
(468,18,o),
(464,22,o),
(457,23,cs),
(432,26,ls),
(409,29,o),
(403,39,o),
(403,67,cs),
(403,470,ls),
(403,477,o),
(408,482,o),
(415,482,cs),
(501,482,ls),
(509,482,o),
(516,487,o),
(516,496,cs),
(516,505,o),
(509,510,o),
(501,510,cs),
(415,510,ls),
(408,510,o),
(403,515,o),
(403,522,cs),
(403,590,ls),
(403,692,o),
(448,723,o),
(498,723,cs),
(563,723,o),
(585,671,o),
(585,606,cs),
(585,67,ls),
(585,39,o),
(572,29,o),
(544,25,cs),
(530,23,ls),
(523,22,o),
(519,17,o),
(519,11,cs),
(519,5,o),
(524,0,o),
(531,0,cs),
(709,0,ls),
(716,0,o),
(721,4,o),
(721,11,cs),
(721,18,o),
(717,22,o),
(710,23,cs),
(687,26,ls),
(659,30,o),
(653,39,o),
(653,67,cs),
(653,724,ls),
(653,735,o),
(649,743,o),
(640,743,cs),
(628,743,o),
(624,736,o),
(616,712,cs),
(613,703,o),
(605,702,o),
(599,709,cs),
(575,734,o),
(544,748,o),
(506,748,cs),
(447,748,o),
(403,721,o),
(374,680,cs),
(369,673,o),
(363,673,o),
(358,680,cs),
(332,713,o),
(299,728,o),
(256,728,cs),
(147,728,o),
(85,634,o),
(85,550,cs),
(85,544,ls),
(85,521,o),
(69,506,o),
(38,503,cs),
(30,502,o),
(26,498,o),
(26,492,cs),
(26,486,o),
(31,482,o),
(38,482,cs),
(61,482,ls),
(76,482,o),
(85,473,o),
(85,458,cs),
(85,67,ls),
(85,39,o),
(79,28,o),
(46,25,cs),
(26,23,ls),
(17,22,o),
(13,17,o),
(13,11,cs),
(13,4,o),
(18,0,o),
(28,0,cs)
);
},
{
closed = 1;
nodes = (
(158,510,o),
(153,515,o),
(153,522,cs),
(153,590,ls),
(153,672,o),
(198,703,o),
(248,703,cs),
(313,703,o),
(335,651,o),
(335,586,cs),
(335,522,ls),
(335,515,o),
(330,510,o),
(323,510,cs),
(165,510,ls)
);
}
);
width = 731;
}
);
metricLeft = f;
metricRight = l;
},
{
glyphname = f_h;
kernLeft = f;
kernRight = n;
lastChange = "2023-02-22 10:41:05 +0000";
layers = (
{
anchors = (
{
name = bottom_1;
pos = (183,0);
},
{
name = bottom_2;
pos = (548,0);
},
{
name = caret_1;
pos = (365.5,0);
},
{
name = top_1;
pos = (183,740);
},
{
name = top_2;
pos = (548,740);
}
);
background = {
shapes = (
{
closed = 1;
nodes = (
(85,39,o),
(79,27,o),
(51,25,cs),
(26,23,ls),
(17,22,o),
(13,17,o),
(13,11,cs),
(13,4,o),
(18,0,o),
(28,0,cs),
(236,0,ls),
(246,0,o),
(251,4,o),
(251,12,cs),
(251,18,o),
(247,22,o),
(240,23,cs),
(187,28,ls),
(159,31,o),
(153,39,o),
(153,67,cs),
(153,470,ls),
(153,477,o),
(158,482,o),
(165,482,cs),
(251,482,ls),
(259,482,o),
(266,487,o),
(266,496,cs),
(266,505,o),
(259,510,o),
(251,510,cs),
(165,510,ls),
(158,510,o),
(153,515,o),
(153,522,cs),
(153,610,ls),
(153,692,o),
(169,717,o),
(196,717,cs),
(246,717,o),
(223,632,o),
(277,632,cs),
(298,632,o),
(312,645,o),
(312,670,cs),
(312,713,o),
(271,748,o),
(218,748,cs),
(132,748,o),
(85,654,o),
(85,550,cs),
(85,544,ls),
(85,521,o),
(69,506,o),
(38,503,cs),
(30,502,o),
(26,498,o),
(26,492,cs),
(26,486,o),
(31,482,o),
(38,482,cs),
(61,482,ls),
(76,482,o),
(85,473,o),
(85,458,cs),
(85,67,ls)
);
},
{
closed = 1;
nodes = (
(490,0,ls),
(497,0,o),
(502,4,o),
(502,11,cs),
(502,18,o),
(498,22,o),
(491,23,cs),
(464,26,ls),
(436,29,o),
(430,39,o),
(430,67,cs),
(430,335,ls),
(430,408,o),
(479,470,o),
(543,470,cs),
(587,470,o),
(612,446,o),
(612,381,cs),
(612,67,ls),
(612,39,o),
(606,29,o),
(578,25,cs),
(564,23,ls),
(557,22,o),
(553,17,o),
(553,11,cs),
(553,5,o),
(557,0,o),
(567,0,cs),
(735,0,ls),
(742,0,o),
(747,4,o),
(747,11,cs),
(747,18,o),
(743,22,o),
(736,23,cs),
(714,26,ls),
(686,30,o),
(680,39,o),
(680,67,cs),
(680,392,ls),
(680,473,o),
(641,516,o),
(579,516,cs),
(536,516,o),
(501,501,o),
(451,455,cs),
(439,444,o),
(430,447,o),
(430,459,cs),
(430,724,ls),
(430,735,o),
(426,740,o),
(419,740,cs),
(413,740,o),
(406,737,o),
(395,730,cs),
(378,719,o),
(353,708,o),
(316,700,cs),
(309,699,o),
(305,694,o),
(305,688,cs),
(305,682,o),
(309,677,o),
(316,676,cs),
(337,673,ls),
(356,670,o),
(362,664,o),
(362,640,cs),
(362,67,ls),
(362,39,o),
(356,29,o),
(328,25,cs),
(314,23,ls),
(307,22,o),
(303,17,o),
(303,11,cs),
(303,5,o),
(308,0,o),
(315,0,cs)
);
}
);
};
layerId = m01;
shapes = (
{
closed = 1;
nodes = (
(203,0,ls),
(213,0,o),
(218,4,o),
(218,12,cs),
(218,18,o),
(214,22,o),
(207,23,cs),
(182,26,ls),
(159,29,o),
(153,39,o),
(153,67,cs),
(153,470,ls),
(153,477,o),
(158,482,o),
(165,482,cs),
(251,482,ls),
(259,482,o),
(266,487,o),
(266,496,cs),
(266,505,o),
(259,510,o),
(251,510,cs),
(165,510,ls),
(158,510,o),
(153,515,o),
(153,522,cs),
(153,590,ls),
(153,692,o),
(198,723,o),
(248,723,cs),
(313,723,o),
(335,671,o),
(335,606,cs),
(335,67,ls),
(335,39,o),
(329,29,o),
(301,25,cs),
(287,23,ls),
(280,22,o),
(276,17,o),
(276,11,cs),
(276,5,o),
(281,0,o),
(288,0,cs),
(463,0,ls),
(470,0,o),
(475,4,o),
(475,11,cs),
(475,18,o),
(471,22,o),
(464,23,cs),
(437,26,ls),
(409,29,o),
(403,39,o),
(403,67,cs),
(403,335,ls),
(403,408,o),
(452,470,o),
(516,470,cs),
(560,470,o),
(585,446,o),
(585,381,cs),
(585,67,ls),
(585,39,o),
(579,29,o),
(551,25,cs),
(537,23,ls),
(530,22,o),
(526,17,o),
(526,11,cs),
(526,5,o),
(530,0,o),
(540,0,cs),
(708,0,ls),
(715,0,o),
(720,4,o),
(720,11,cs),
(720,18,o),
(716,22,o),
(709,23,cs),
(687,26,ls),
(659,30,o),
(653,39,o),
(653,67,cs),
(653,392,ls),
(653,473,o),
(614,516,o),
(552,516,cs),
(509,516,o),
(474,501,o),
(424,455,cs),
(412,444,o),
(403,447,o),
(403,459,cs),
(403,724,ls),
(403,735,o),
(399,743,o),
(390,743,cs),
(378,743,o),
(374,736,o),
(366,712,cs),
(363,703,o),
(355,702,o),
(349,709,cs),
(325,734,o),
(294,748,o),
(256,748,cs),
(147,748,o),
(85,654,o),
(85,550,cs),
(85,544,ls),
(85,521,o),
(69,506,o),
(38,503,cs),
(30,502,o),
(26,498,o),
(26,492,cs),
(26,486,o),
(31,482,o),
(38,482,cs),
(61,482,ls),
(76,482,o),
(85,473,o),
(85,458,cs),
(85,67,ls),
(85,39,o),
(79,28,o),
(46,25,cs),
(26,23,ls),
(17,22,o),
(13,17,o),
(13,11,cs),
(13,4,o),
(18,0,o),
(28,0,cs)
);
}
);
width = 731;
}
);
metricLeft = f;
metricRight = h;
},
{
glyphname = f_i;
kernLeft = f;
kernRight = i;
lastChange = "2023-02-22 10:41:05 +0000";
layers = (
{
anchors = (
{
name = bottom_1;
pos = (119,0);
},
{
name = bottom_2;
pos = (358,0);
},
{
name = caret_1;
pos = (238.5,0);
},
{
name = top_1;
pos = (119,740);
},
{
name = top_2;
pos = (358,740);
}
);
background = {
shapes = (
{
closed = 1;
nodes = (
(85,39,o),
(79,27,o),
(51,25,cs),
(26,23,ls),
(17,22,o),
(13,17,o),
(13,11,cs),
(13,4,o),
(18,0,o),
(28,0,cs),
(236,0,ls),
(246,0,o),
(251,4,o),
(251,12,cs),
(251,18,o),
(247,22,o),
(240,23,cs),
(187,28,ls),
(159,31,o),
(153,39,o),
(153,67,cs),
(153,470,ls),
(153,477,o),
(158,482,o),
(165,482,cs),
(251,482,ls),
(259,482,o),
(266,487,o),
(266,496,cs),
(266,505,o),
(259,510,o),
(251,510,cs),
(165,510,ls),
(158,510,o),
(153,515,o),
(153,522,cs),
(153,610,ls),
(153,692,o),
(169,717,o),
(196,717,cs),
(246,717,o),
(223,632,o),
(277,632,cs),
(298,632,o),
(312,645,o),
(312,670,cs),
(312,713,o),
(271,748,o),
(218,748,cs),
(132,748,o),
(85,654,o),
(85,550,cs),
(85,544,ls),
(85,521,o),
(69,506,o),
(38,503,cs),
(30,502,o),
(26,498,o),
(26,492,cs),
(26,486,o),
(31,482,o),
(38,482,cs),
(61,482,ls),
(76,482,o),
(85,473,o),
(85,458,cs),
(85,67,ls)
);
},
{
closed = 1;
nodes = (
(457,0,ls),
(467,0,o),
(472,4,o),
(472,12,cs),
(472,18,o),
(468,22,o),
(461,23,cs),
(436,26,ls),
(413,29,o),
(407,39,o),
(407,67,c),
(407,501,ls),
(407,509,o),
(404,513,o),
(398,513,cs),
(393,513,o),
(389,510,o),
(383,504,cs),
(359,482,o),
(337,467,o),
(296,461,cs),
(285,459,o),
(280,456,o),
(280,450,cs),
(280,444,o),
(283,440,o),
(293,439,cs),
(314,436,ls),
(333,433,o),
(339,427,o),
(339,403,cs),
(339,67,ls),
(339,39,o),
(333,30,o),
(300,25,cs),
(288,23,ls),
(279,21,o),
(275,17,o),
(275,11,cs),
(275,4,o),
(280,0,o),
(290,0,cs)
);
},
{
closed = 1;
nodes = (
(402,605,o),
(423,627,o),
(423,658,cs),
(423,689,o),
(402,710,o),
(374,710,cs),
(346,710,o),
(324,689,o),
(324,658,cs),
(324,627,o),
(346,605,o),
(374,605,cs)
);
}
);
};
layerId = m01;
shapes = (
{
closed = 1;
nodes = (
(203,0,ls),
(213,0,o),
(218,4,o),
(218,12,cs),
(218,18,o),
(214,22,o),
(207,23,cs),
(182,26,ls),
(159,29,o),
(153,39,o),
(153,67,cs),
(153,470,ls),
(153,477,o),
(158,482,o),
(165,482,cs),
(319,482,ls),
(328,482,o),
(333,477,o),
(333,468,cs),
(333,67,ls),
(333,39,o),
(327,30,o),
(294,25,cs),
(282,23,ls),
(273,21,o),
(269,17,o),
(269,11,cs),
(269,4,o),
(274,0,o),
(284,0,cs),
(451,0,ls),
(461,0,o),
(466,4,o),
(466,12,cs),
(466,18,o),
(462,22,o),
(455,23,cs),
(430,26,ls),
(407,29,o),
(401,39,o),
(401,67,cs),
(401,486,ls),
(401,501,o),
(392,510,o),
(377,510,cs),
(165,510,ls),
(158,510,o),
(153,515,o),
(153,522,cs),
(153,590,ls),
(153,692,o),
(198,719,o),
(248,719,cs),
(325,719,o),
(307,626,o),
(363,626,cs),
(391,626,o),
(403,643,o),
(403,668,cs),
(403,711,o),
(349,748,o),
(268,748,cs),
(147,748,o),
(85,654,o),
(85,550,cs),
(85,544,ls),
(85,521,o),
(69,506,o),
(38,503,cs),
(30,502,o),
(26,498,o),
(26,492,cs),
(26,486,o),
(31,482,o),
(38,482,cs),
(61,482,ls),
(76,482,o),
(85,473,o),
(85,458,cs),
(85,67,ls),
(85,39,o),
(79,28,o),
(46,25,cs),
(26,23,ls),
(17,22,o),
(13,17,o),
(13,11,cs),
(13,4,o),
(18,0,o),
(28,0,cs)
);
}
);
width = 477;
}
);
metricLeft = f;
metricRight = i;
},
{
glyphname = f_l;
kernLeft = f;
kernRight = l;
lastChange = "2023-02-22 10:41:05 +0000";
layers = (
{
anchors = (
{
name = bottom_1;
pos = (120,0);
},
{
name = bottom_2;
pos = (361,0);
},
{
name = caret_1;
pos = (240.5,0);
},
{
name = top_1;
pos = (120,740);
},
{
name = top_2;
pos = (361,740);
}
);
layerId = m01;
shapes = (
{
closed = 1;
nodes = (
(203,0,ls),
(213,0,o),
(218,4,o),
(218,12,cs),
(218,18,o),
(214,22,o),
(207,23,cs),
(182,26,ls),
(159,29,o),
(153,39,o),
(153,67,cs),
(153,470,ls),
(153,477,o),
(158,482,o),
(165,482,cs),
(251,482,ls),
(259,482,o),
(266,487,o),
(266,496,cs),
(266,505,o),
(259,510,o),
(251,510,cs),
(165,510,ls),
(158,510,o),
(153,515,o),
(153,522,cs),
(153,590,ls),
(153,692,o),
(198,723,o),
(248,723,cs),
(313,723,o),
(335,671,o),
(335,606,cs),
(335,67,ls),
(335,39,o),
(322,29,o),
(294,25,cs),
(280,23,ls),
(273,22,o),
(269,17,o),
(269,11,cs),
(269,5,o),
(274,0,o),
(281,0,cs),
(459,0,ls),
(466,0,o),
(471,4,o),
(471,11,cs),
(471,18,o),
(467,22,o),
(460,23,cs),
(437,26,ls),
(409,30,o),
(403,39,o),
(403,67,cs),
(403,724,ls),
(403,735,o),
(399,743,o),
(390,743,cs),
(378,743,o),
(374,736,o),
(366,712,cs),
(363,703,o),
(355,702,o),
(349,709,cs),
(325,734,o),
(294,748,o),
(256,748,cs),
(147,748,o),
(85,654,o),
(85,550,cs),
(85,544,ls),
(85,521,o),
(69,506,o),
(38,503,cs),
(30,502,o),
(26,498,o),
(26,492,cs),
(26,486,o),
(31,482,o),
(38,482,cs),
(61,482,ls),
(76,482,o),
(85,473,o),
(85,458,cs),
(85,67,ls),
(85,39,o),
(79,28,o),
(46,25,cs),
(26,23,ls),
(17,22,o),
(13,17,o),
(13,11,cs),
(13,4,o),
(18,0,o),
(28,0,cs)
);
}
);
width = 481;
}
);
metricLeft = f;
metricRight = l;
},
{
glyphname = q_j;
lastChange = "2023-02-22 10:41:05 +0000";
layers = (
{
anchors = (
{
name = bottom_1;
pos = (164,0);
},
{
name = bottom_2;
pos = (493,0);
},
{
name = caret_1;
pos = (328.5,0);
},
{
name = top_1;
pos = (164,510);
},
{
name = top_2;
pos = (493,510);
}
);
layerId = m01;
shapes = (
{
closed = 1;
nodes = (
(347,-205,ls),
(362,-205,o),
(371,-196,o),
(371,-181,cs),
(371,347,ls),
(371,427,o),
(374,472,o),
(379,502,cs),
(381,511,o),
(378,516,o),
(371,516,cs),
(365,516,o),
(359,513,o),
(346,498,cs),
(334,482,o),
(322,479,o),
(306,490,cs),
(280,508,o),
(259,516,o),
(232,516,cs),
(115,516,o),
(30,400,o),
(30,233,cs),
(30,88,o),
(92,-9,o),
(181,-9,cs),
(223,-9,o),
(249,6,o),
(282,50,cs),
(291,61,o),
(303,56,o),
(303,45,cs),
(303,-138,ls),
(303,-166,o),
(297,-173,o),
(269,-177,cs),
(232,-182,ls),
(225,-183,o),
(221,-187,o),
(221,-193,cs),
(221,-201,o),
(226,-205,o),
(236,-205,cs)
);
},
{
closed = 1;
nodes = (
(141,37,o),
(104,110,o),
(104,247,cs),
(104,397,o),
(154,491,o),
(229,491,cs),
(273,491,o),
(303,454,o),
(303,394,cs),
(303,169,ls),
(303,95,o),
(254,37,o),
(203,37,cs)
);
},
{
closed = 1;
nodes = (
(533,-215,o),
(589,-116,o),
(589,44,cs),
(589,501,ls),
(589,509,o),
(586,513,o),
(580,513,cs),
(575,513,o),
(571,510,o),
(565,504,cs),
(541,482,o),
(519,467,o),
(478,461,cs),
(467,459,o),
(462,456,o),
(462,450,cs),
(462,444,o),
(465,440,o),
(475,439,cs),
(496,436,ls),
(515,433,o),
(521,427,o),
(521,403,cs),
(521,-91,ls),
(521,-144,o),
(507,-175,o),
(482,-175,cs),
(446,-175,o),
(460,-119,o),
(418,-119,cs),
(394,-119,o),
(379,-138,o),
(379,-161,cs),
(379,-193,o),
(407,-215,o),
(446,-215,cs)
);
},
{
closed = 1;
nodes = (
(584,605,o),
(605,627,o),
(605,658,cs),
(605,688,o),
(585,710,o),
(556,710,cs),
(527,710,o),
(506,688,o),
(506,658,cs),
(506,628,o),
(527,605,o),
(556,605,cs)
);
}
);
width = 657;
}
);
metricLeft = q;
metricRight = j;
},
{
glyphname = ordfeminine;
lastChange = "2022-08-18 20:35:28 +0000";
layers = (
{
layerId = m01;
shapes = (
{
closed = 1;
nodes = (
(150,363,o),
(174,379,o),
(200,410,cs),
(207,419,o),
(217,418,o),
(218,409,cs),
(223,384,o),
(238,363,o),
(264,363,cs),
(298,363,o),
(330,391,o),
(330,459,cs),
(330,468,o),
(326,475,o),
(318,475,cs),
(310,475,o),
(306,468,o),
(306,460,cs),
(306,421,o),
(296,406,o),
(282,406,cs),
(272,406,o),
(265,415,o),
(265,436,cs),
(265,650,ls),
(265,704,o),
(237,730,o),
(186,730,cs),
(118,730,o),
(40,672,o),
(40,618,cs),
(40,605,o),
(51,596,o),
(64,596,cs),
(87,596,o),
(99,611,o),
(106,641,cs),
(116,685,o),
(139,704,o),
(166,704,cs),
(193,704,o),
(211,687,o),
(211,642,cs),
(211,588,ls),
(211,583,o),
(208,578,o),
(201,576,cs),
(104,549,o),
(34,495,o),
(34,431,cs),
(34,389,o),
(66,363,o),
(111,363,cs)
);
},
{
closed = 1;
nodes = (
(106,401,o),
(92,418,o),
(92,446,cs),
(92,494,o),
(129,529,o),
(194,550,cs),
(205,554,o),
(211,550,o),
(211,543,cs),
(211,498,ls),
(211,443,o),
(173,401,o),
(133,401,cs)
);
}
);
width = 364;
}
);
unicode = 170;
},
{
glyphname = ordmasculine;
lastChange = "2022-08-18 20:36:01 +0000";
layers = (
{
layerId = m01;
shapes = (
{
closed = 1;
nodes = (
(266,363,o),
(328,443,o),
(328,547,cs),
(328,650,o),
(265,730,o),
(184,730,cs),
(104,730,o),
(40,650,o),
(40,547,cs),
(40,443,o),
(103,363,o),
(184,363,cs)
);
},
{
closed = 1;
nodes = (
(128,387,o),
(101,441,o),
(101,547,cs),
(101,652,o),
(128,706,o),
(184,706,cs),
(240,706,o),
(268,652,o),
(268,547,cs),
(268,441,o),
(241,387,o),
(184,387,cs)
);
}
);
width = 368;
}
);
metricLeft = O;
metricRight = O;
unicode = 186;
},
{
glyphname = zero;
lastChange = "2022-08-31 19:16:14 +0000";
layers = (
{
background = {
shapes = (
{
closed = 1;
nodes = (
(36,360,ls),
(36,98,o),
(145,-9,o),
(229,-9,cs),
(313,-9,o),
(422,98,o),
(422,360,cs),
(422,622,o),
(313,730,o),
(229,730,cs),
(145,730,o),
(36,622,o),
(36,361,cs)
);
},
{
closed = 1;
nodes = (
(117,360,ls),
(117,606,o),
(150,703,o),
(229,703,cs),
(308,703,o),
(341,606,o),
(341,360,cs),
(341,114,o),
(308,17,o),
(229,17,cs),
(150,17,o),
(117,114,o),
(117,359,cs)
);
}
);
};
layerId = m01;
shapes = (
{
closed = 1;
nodes = (
(346,-9,o),
(424,153,o),
(424,361,cs),
(424,568,o),
(346,730,o),
(230,730,cs),
(113,730,o),
(36,568,o),
(36,361,cs),
(36,153,o),
(113,-9,o),
(230,-9,cs)
);
},
{
closed = 1;
nodes = (
(146,18,o),
(108,130,o),
(108,361,cs),
(108,591,o),
(146,703,o),
(230,703,cs),
(314,703,o),
(352,591,o),
(352,361,cs),
(352,130,o),
(314,18,o),
(230,18,cs)
);
}
);
width = 460;
}
);
unicode = 48;
},
{
glyphname = one;
lastChange = "2022-08-31 19:17:48 +0000";
layers = (
{
layerId = m01;
shapes = (
{
closed = 1;
nodes = (
(224,0,ls),
(234,0,o),
(239,4,o),
(239,11,cs),
(239,17,o),
(235,22,o),
(226,23,cs),
(193,27,ls),
(165,30,o),
(157,38,o),
(157,66,cs),
(157,713,ls),
(157,728,o),
(150,735,o),
(136,735,cs),
(120,735,o),
(91,721,o),
(21,709,cs),
(9,707,o),
(5,701,o),
(5,695,cs),
(5,687,o),
(11,681,o),
(23,682,cs),
(59,686,ls),
(79,688,o),
(93,683,o),
(93,660,cs),
(93,66,ls),
(93,38,o),
(85,30,o),
(57,27,cs),
(18,23,ls),
(9,22,o),
(5,17,o),
(5,11,cs),
(5,4,o),
(10,0,o),
(20,0,cs)
);
}
);
width = 249;
}
);
unicode = 49;
},
{
glyphname = two;
lastChange = "2022-08-31 19:14:36 +0000";
layers = (
{
background = {
shapes = (
{
closed = 1;
nodes = (
(361,553,ls),
(361,665,o),
(301,730,o),
(196,730,cs),
(81,730,o),
(24,632,o),
(24,541,cs),
(24,524,o),
(30,522,o),
(36,522,cs),
(45,522,o),
(52,527,o),
(52,543,cs),
(52,598,o),
(88,691,o),
(172,691,cs),
(240,691,o),
(279,644,o),
(279,551,cs),
(279,463,o),
(254,380,o),
(149,220,cs),
(116,170,o),
(83,119,o),
(51,69,cs),
(44,57,o),
(21,26,o),
(21,14,cs),
(21,5,o),
(27,1,o),
(32,1,cs),
(265,1,ls),
(281,1,o),
(296,-1,o),
(312,-2,cs),
(331,-3,o),
(349,-4,o),
(351,-4,cs),
(364,-4,o),
(369,1,o),
(369,22,cs),
(369,177,ls),
(369,206,o),
(364,212,o),
(357,212,cs),
(345,212,o),
(345,199,o),
(338,164,cs),
(327,104,o),
(298,83,o),
(240,74,cs),
(211,70,o),
(172,69,o),
(122,69,cs),
(97,69,o),
(89,71,o),
(89,78,cs),
(89,86,o),
(106,112,o),
(116,128,cs),
(149,179,o),
(188,226,o),
(222,274,cs),
(278,354,o),
(361,449,o),
(361,552,cs)
);
}
);
};
guides = (
{
pos = (82,730);
}
);
layerId = m01;
shapes = (
{
closed = 1;
nodes = (
(341,0,ls),
(356,0,o),
(365,8,o),
(366,23,cs),
(378,211,ls),
(379,222,o),
(373,228,o),
(366,228,cs),
(358,228,o),
(353,223,o),
(351,215,cs),
(342,168,ls),
(325,80,o),
(292,60,o),
(216,60,cs),
(109,60,ls),
(95,60,o),
(86,70,o),
(94,82,cs),
(172,200,ls),
(281,365,o),
(361,468,o),
(361,573,cs),
(361,671,o),
(297,730,o),
(205,730,cs),
(124,730,o),
(39,685,o),
(25,554,cs),
(24,542,o),
(29,534,o),
(38,534,cs),
(46,534,o),
(51,538,o),
(53,550,cs),
(67,647,o),
(126,690,o),
(190,690,cs),
(254,690,o),
(289,644,o),
(289,562,cs),
(289,470,o),
(247,366,o),
(147,214,cs),
(27,31,ls),
(22,23,o),
(20,19,o),
(20,13,cs),
(20,4,o),
(26,0,o),
(38,0,cs)
);
}
);
width = 404;
}
);
unicode = 50;
},
{
glyphname = three;
lastChange = "2022-08-31 19:18:42 +0000";
layers = (
{
background = {
shapes = (
{
closed = 1;
nodes = (
(342,250,ls),
(342,371,o),
(267,441,o),
(186,441,cs),
(167,441,o),
(154,436,o),
(147,436,cs),
(144,436,o),
(143,437,o),
(143,440,cs),
(143,444,o),
(150,448,o),
(161,457,cs),
(176,468,o),
(202,487,o),
(235,516,cs),
(279,554,o),
(301,590,o),
(301,634,cs),
(301,699,o),
(250,730,o),
(187,730,cs),
(76,730,o),
(46,619,o),
(46,595,cs),
(46,587,o),
(49,581,o),
(56,581,cs),
(66,581,o),
(67,605,o),
(80,633,cs),
(97,670,o),
(128,696,o),
(164,696,cs),
(209,696,o),
(229,670,o),
(229,624,cs),
(229,542,o),
(172,498,o),
(114,445,cs),
(93,426,o),
(73,405,o),
(53,385,cs),
(48,380,o),
(43,373,o),
(43,365,cs),
(43,359,o),
(45,356,o),
(51,356,cs),
(56,356,o),
(61,360,o),
(67,364,cs),
(83,377,o),
(107,399,o),
(145,399,cs),
(217,399,o),
(276,334,o),
(276,213,cs),
(276,102,o),
(217,15,o),
(141,15,cs),
(112,15,o),
(99,19,o),
(92,47,cs),
(86,71,o),
(82,96,o),
(52,96,cs),
(36,96,o),
(21,83,o),
(21,58,cs),
(21,24,o),
(56,-9,o),
(122,-9,cs),
(259,-9,o),
(342,132,o),
(342,249,cs)
);
}
);
};
layerId = m01;
shapes = (
{
closed = 1;
nodes = (
(242,-9,o),
(341,108,o),
(341,236,cs),
(341,356,o),
(276,441,o),
(185,441,cs),
(174,441,o),
(161,439,o),
(151,436,cs),
(144,434,o),
(142,441,o),
(147,445,cs),
(170,461,ls),
(258,522,o),
(299,575,o),
(299,629,cs),
(299,690,o),
(255,730,o),
(188,730,cs),
(110,730,o),
(53,676,o),
(44,594,cs),
(43,583,o),
(48,576,o),
(56,576,cs),
(64,576,o),
(70,582,o),
(71,591,cs),
(81,656,o),
(118,696,o),
(169,696,cs),
(208,696,o),
(231,667,o),
(231,618,cs),
(231,573,o),
(205,529,o),
(147,475,cs),
(75,407,ls),
(66,398,o),
(63,389,o),
(67,383,cs),
(72,377,o),
(80,378,o),
(91,386,cs),
(110,399,o),
(132,405,o),
(159,405,cs),
(232,405,o),
(269,340,o),
(269,212,cs),
(269,96,o),
(217,18,o),
(141,18,cs),
(68,18,o),
(106,96,o),
(56,96,cs),
(35,96,o),
(20,82,o),
(20,60,cs),
(20,18,o),
(65,-9,o),
(135,-9,cs)
);
}
);
width = 371;
}
);
unicode = 51;
},
{
glyphname = four;
lastChange = "2022-08-31 19:18:03 +0000";
layers = (
{
background = {
shapes = (
{
closed = 1;
nodes = (
(364,0,ls),
(374,0,o),
(379,4,o),
(379,11,cs),
(379,17,o),
(375,21,o),
(366,23,cs),
(343,27,ls),
(315,32,o),
(309,38,o),
(309,66,cs),
(309,504,ls),
(309,515,o),
(301,518,o),
(292,513,cs),
(255,492,ls),
(249,488,o),
(245,483,o),
(245,476,cs),
(245,66,ls),
(245,40,o),
(239,33,o),
(211,29,cs),
(168,23,ls),
(159,22,o),
(155,17,o),
(155,11,cs),
(155,4,o),
(160,0,o),
(170,0,cs)
);
},
{
closed = 1;
nodes = (
(10,237,l),
(10,210,l),
(379,210,l),
(379,266,l),
(30,266,l)
);
},
{
closed = 1;
nodes = (
(10,237,l),
(40,237,l),
(304,720,l),
(274,720,l)
);
}
);
};
layerId = m01;
shapes = (
{
closed = 1;
nodes = (
(364,0,ls),
(374,0,o),
(379,4,o),
(379,11,cs),
(379,17,o),
(375,21,o),
(366,23,cs),
(343,27,ls),
(315,32,o),
(309,38,o),
(309,66,cs),
(309,196,ls),
(309,205,o),
(314,210,o),
(323,210,cs),
(367,210,ls),
(374,210,o),
(379,215,o),
(379,222,cs),
(379,254,ls),
(379,261,o),
(374,266,o),
(367,266,cs),
(323,266,ls),
(314,266,o),
(309,271,o),
(309,280,cs),
(309,504,ls),
(309,515,o),
(301,518,o),
(292,513,cs),
(255,492,ls),
(249,488,o),
(245,483,o),
(245,476,cs),
(245,280,ls),
(245,271,o),
(240,266,o),
(231,266,cs),
(72,266,ls),
(63,266,o),
(60,272,o),
(64,280,cs),
(304,703,ls),
(309,713,o),
(306,720,o),
(295,720,cs),
(275,720,ls),
(268,720,o),
(262,717,o),
(259,710,cs),
(19,252,ls),
(13,240,o),
(10,234,o),
(10,227,cs),
(10,217,o),
(17,210,o),
(29,210,cs),
(231,210,ls),
(240,210,o),
(245,205,o),
(245,196,cs),
(245,66,ls),
(245,40,o),
(239,33,o),
(211,29,cs),
(168,23,ls),
(159,22,o),
(155,17,o),
(155,11,cs),
(155,4,o),
(160,0,o),
(170,0,cs)
);
}
);
width = 393;
}
);
unicode = 52;
},
{
glyphname = five;
lastChange = "2022-08-31 19:18:50 +0000";
layers = (
{
background = {
shapes = (
{
closed = 1;
nodes = (
(237,-9,o),
(349,78,o),
(349,239,cs),
(349,371,o),
(273,471,o),
(107,481,c),
(111,451,l),
(153,673,l),
(130,720,l),
(72,416,l),
(219,407,o),
(277,350,o),
(277,218,cs),
(277,69,o),
(206,18,o),
(143,18,cs),
(65,18,o),
(89,96,o),
(43,96,cs),
(23,96,o),
(10,82,o),
(10,62,cs),
(10,15,o),
(77,-9,o),
(132,-9,cs)
);
},
{
closed = 1;
nodes = (
(341,660,l),
(356,712,ls),
(360,725,o),
(358,735,o),
(346,735,cs),
(332,735,o),
(322,720,o),
(258,720,cs),
(130,720,l),
(137,660,l)
);
}
);
};
layerId = m01;
shapes = (
{
closed = 1;
nodes = (
(237,-9,o),
(349,78,o),
(349,229,cs),
(349,354,o),
(281,461,o),
(124,479,cs),
(114,480,o),
(110,484,o),
(112,494,cs),
(141,647,ls),
(143,656,o),
(148,660,o),
(156,660,cs),
(321,660,ls),
(329,660,o),
(334,664,o),
(336,672,cs),
(351,724,ls),
(354,735,o),
(353,745,o),
(342,745,cs),
(326,745,o),
(325,720,o),
(292,720,cs),
(135,720,ls),
(127,720,o),
(122,716,o),
(120,707,cs),
(67,431,ls),
(65,421,o),
(70,416,o),
(79,415,cs),
(223,403,o),
(277,335,o),
(277,208,cs),
(277,69,o),
(206,18,o),
(143,18,cs),
(65,18,o),
(89,96,o),
(43,96,cs),
(23,96,o),
(10,82,o),
(10,62,cs),
(10,15,o),
(77,-9,o),
(132,-9,cs)
);
}
);
width = 382;
}
);
unicode = 53;
},
{
glyphname = six;
lastChange = "2022-08-31 19:18:12 +0000";
layers = (
{
background = {
shapes = (
{
closed = 1;
nodes = (
(300,-9,o),
(376,98,o),
(376,229,cs),
(376,360,o),
(306,456,o),
(212,456,cs),
(158,456,o),
(115,427,o),
(92,376,c),
(117,389,l),
(145,559,o),
(219,660,o),
(350,704,cs),
(357,706,o),
(361,710,o),
(361,717,cs),
(361,725,o),
(355,732,o),
(342,729,cs),
(171,688,o),
(36,480,o),
(36,261,cs),
(36,100,o),
(105,-9,o),
(206,-9,cs)
);
},
{
closed = 1;
nodes = (
(141,18,o),
(108,84,o),
(108,218,cs),
(108,358,o),
(143,431,o),
(211,431,cs),
(275,431,o),
(304,366,o),
(304,224,cs),
(304,84,o),
(273,18,o),
(207,18,cs)
);
}
);
};
layerId = m01;
shapes = (
{
closed = 1;
nodes = (
(300,-9,o),
(376,98,o),
(376,229,cs),
(376,360,o),
(306,456,o),
(212,456,cs),
(185,456,o),
(160,449,o),
(139,434,cs),
(131,429,o),
(125,432,o),
(128,442,cs),
(162,580,o),
(233,665,o),
(350,704,cs),
(357,706,o),
(361,710,o),
(361,717,cs),
(361,725,o),
(355,732,o),
(342,729,cs),
(171,688,o),
(36,480,o),
(36,261,cs),
(36,100,o),
(105,-9,o),
(206,-9,cs)
);
},
{
closed = 1;
nodes = (
(136,18,o),
(102,84,o),
(102,218,cs),
(102,358,o),
(138,431,o),
(208,431,cs),
(274,431,o),
(304,366,o),
(304,224,cs),
(304,84,o),
(272,18,o),
(204,18,cs)
);
}
);
width = 404;
}
);
unicode = 54;
},
{
glyphname = seven;
lastChange = "2022-08-31 19:19:00 +0000";
layers = (
{
background = {
shapes = (
{
closed = 1;
nodes = (
(135,0,l),
(360,700,l),
(331,700,l),
(83,0,l)
);
},
{
closed = 1;
nodes = (
(44,635,o),
(45,660,o),
(78,660,cs),
(328,660,l),
(360,700,l),
(360,720,l),
(49,720,ls),
(41,720,o),
(36,716,o),
(34,708,cs),
(19,656,ls),
(16,645,o),
(17,635,o),
(28,635,cs)
);
}
);
};
layerId = m01;
shapes = (
{
closed = 1;
nodes = (
(124,0,ls),
(131,0,o),
(136,3,o),
(138,11,cs),
(352,675,ls),
(358,694,o),
(360,701,o),
(360,708,cs),
(360,715,o),
(356,720,o),
(346,720,cs),
(49,720,ls),
(41,720,o),
(36,716,o),
(34,708,cs),
(19,656,ls),
(16,645,o),
(17,635,o),
(28,635,cs),
(44,635,o),
(45,660,o),
(78,660,cs),
(300,660,ls),
(310,660,o),
(314,654,o),
(311,644,cs),
(88,15,ls),
(85,6,o),
(90,0,o),
(99,0,cs)
);
}
);
width = 364;
}
);
unicode = 55;
},
{
glyphname = eight;
lastChange = "2022-08-31 19:16:02 +0000";
layers = (
{
background = {
shapes = (
{
closed = 1;
nodes = (
(116,18,o),
(83,92,o),
(83,169,cs),
(83,256,o),
(121,322,o),
(199,364,c),
(188,378,l),
(82,334,o),
(19,264,o),
(19,172,cs),
(19,82,o),
(92,-9,o),
(215,-9,cs),
(327,-9,o),
(414,74,o),
(414,186,cs),
(414,271,o),
(367,337,o),
(244,405,cs),
(130,468,o),
(107,525,o),
(107,590,cs),
(107,658,o),
(155,703,o),
(227,703,cs),
(299,703,o),
(334,653,o),
(334,576,cs),
(334,502,o),
(300,439,o),
(236,405,c),
(247,391,l),
(335,428,o),
(396,494,o),
(396,573,cs),
(396,663,o),
(323,730,o),
(230,730,cs),
(131,730,o),
(45,663,o),
(45,564,cs),
(45,489,o),
(96,410,o),
(200,357,cs),
(314,299,o),
(352,229,o),
(352,151,cs),
(352,70,o),
(301,18,o),
(217,18,cs)
);
}
);
};
layerId = m01;
shapes = (
{
closed = 1;
nodes = (
(322,-9,o),
(405,74,o),
(405,186,cs),
(405,263,o),
(368,325,o),
(271,387,cs),
(263,392,o),
(263,399,o),
(271,403,cs),
(342,442,o),
(388,503,o),
(388,573,cs),
(388,663,o),
(318,730,o),
(229,730,cs),
(135,730,o),
(53,663,o),
(53,564,cs),
(53,500,o),
(88,432,o),
(163,381,cs),
(170,376,o),
(170,369,o),
(162,365,cs),
(77,320,o),
(28,255,o),
(28,172,cs),
(28,82,o),
(98,-9,o),
(215,-9,cs)
);
},
{
closed = 1;
nodes = (
(121,18,o),
(89,92,o),
(89,169,cs),
(89,249,o),
(120,311,o),
(181,353,cs),
(190,359,o),
(198,359,o),
(207,353,cs),
(286,307,o),
(346,252,o),
(346,151,cs),
(346,70,o),
(297,18,o),
(217,18,cs)
);
},
{
closed = 1;
nodes = (
(131,474,o),
(112,529,o),
(112,590,cs),
(112,658,o),
(158,703,o),
(227,703,cs),
(295,703,o),
(329,653,o),
(329,576,cs),
(329,510,o),
(302,452,o),
(252,416,cs),
(243,409,o),
(235,409,o),
(226,415,cs)
);
}
);
width = 433;
}
);
unicode = 56;
},
{
glyphname = nine;
lastChange = "2022-08-31 19:19:08 +0000";
layers = (
{
background = {
shapes = (
{
closed = 1;
nodes = (
(241,33,o),
(366,211,o),
(366,460,cs),
(366,621,o),
(297,730,o),
(196,730,cs),
(102,730,o),
(26,623,o),
(26,502,cs),
(26,381,o),
(96,285,o),
(190,285,cs),
(244,285,o),
(287,314,o),
(310,365,c),
(285,352,l),
(265,163,o),
(194,60,o),
(82,18,cs),
(75,15,o),
(71,11,o),
(71,4,cs),
(71,-4,o),
(77,-11,o),
(90,-8,cs)
);
},
{
closed = 1;
nodes = (
(127,310,o),
(98,375,o),
(98,507,cs),
(98,637,o),
(129,703,o),
(195,703,cs),
(261,703,o),
(294,637,o),
(294,513,cs),
(294,383,o),
(259,310,o),
(191,310,cs)
);
}
);
};
layerId = m01;
shapes = (
{
closed = 1;
nodes = (
(241,33,o),
(366,211,o),
(366,460,cs),
(366,621,o),
(297,730,o),
(196,730,cs),
(102,730,o),
(26,623,o),
(26,502,cs),
(26,381,o),
(96,285,o),
(190,285,cs),
(219,285,o),
(245,293,o),
(266,309,cs),
(274,315,o),
(280,312,o),
(278,302,cs),
(252,145,o),
(184,56,o),
(82,18,cs),
(75,15,o),
(71,11,o),
(71,4,cs),
(71,-4,o),
(77,-11,o),
(90,-8,cs)
);
},
{
closed = 1;
nodes = (
(98,637,o),
(129,703,o),
(195,703,cs),
(261,703,o),
(294,637,o),
(294,513,cs),
(294,383,o),
(259,310,o),
(191,310,cs),
(127,310,o),
(98,375,o),
(98,507,cs)
);
}
);
width = 402;
}
);
unicode = 57;
},
{
glyphname = period;
kernLeft = period;
kernRight = period;
lastChange = "2022-08-31 20:12:01 +0000";
layers = (
{
layerId = m01;
shapes = (
{
closed = 1;
nodes = (
(134,-9,o),
(159,12,o),
(159,44,cs),
(159,74,o),
(134,96,o),
(107,96,cs),
(77,96,o),
(54,74,o),
(54,44,cs),
(54,12,o),
(77,-9,o),
(107,-9,cs)
);
}
);
width = 213;
}
);
unicode = 46;
},
{
glyphname = comma;
kernLeft = period;
kernRight = period;
lastChange = "2022-08-31 20:13:38 +0000";
layers = (
{
layerId = m01;
shapes = (
{
closed = 1;
nodes = (
(126,-112,o),
(163,-42,o),
(163,29,cs),
(163,70,o),
(142,96,o),
(109,96,cs),
(81,96,o),
(61,76,o),
(61,49,cs),
(61,2,o),
(113,7,o),
(113,-35,cs),
(113,-71,o),
(99,-102,o),
(60,-141,cs),
(52,-149,o),
(52,-156,o),
(57,-160,cs),
(62,-164,o),
(69,-163,o),
(76,-156,cs)
);
}
);
width = 217;
}
);
unicode = 44;
},
{
glyphname = exclam;
lastChange = "2022-09-01 19:18:34 +0000";
layers = (
{
background = {
shapes = (
{
closed = 1;
nodes = (
(121,179,ls),
(130,179,o),
(132,190,o),
(134,233,cs),
(135,258,o),
(137,296,o),
(140,349,cs),
(156,595,o),
(160,646,o),
(160,671,cs),
(160,727,o),
(154,750,o),
(121,750,cs),
(88,750,o),
(82,727,o),
(82,671,cs),
(82,646,o),
(86,595,o),
(102,349,cs),
(106,289,o),
(107,250,o),
(109,224,cs),
(110,189,o),
(112,179,o),
(120,179,cs)
);
},
{
closed = 1;
nodes = (
(121,-12,ls),
(146,-12,o),
(160,17,o),
(160,43,cs),
(160,70,o),
(146,98,o),
(121,98,cs),
(96,98,o),
(82,70,o),
(82,43,cs),
(82,17,o),
(96,-12,o),
(120,-12,cs)
);
}
);
};
guides = (
{
angle = 90;
pos = (64,192);
},
{
angle = 90;
pos = (169,192);
}
);
layerId = m01;
shapes = (
{
closed = 1;
nodes = (
(125,179,o),
(129,185,o),
(129,195,cs),
(131,370,o),
(163,639,o),
(163,694,cs),
(163,727,o),
(146,750,o),
(117,750,cs),
(88,750,o),
(71,727,o),
(71,694,cs),
(71,639,o),
(103,370,o),
(105,195,cs),
(105,185,o),
(110,179,o),
(117,179,cs)
);
},
{
pos = (10,0);
ref = period;
}
);
width = 237;
}
);
unicode = 33;
},
{
glyphname = exclamdown;
lastChange = "2022-09-01 19:15:39 +0000";
layers = (
{
layerId = m01;
shapes = (
{
closed = 1;
nodes = (
(150,-215,o),
(167,-192,o),
(167,-159,cs),
(167,-104,o),
(135,141,o),
(133,316,cs),
(133,326,o),
(129,332,o),
(121,332,cs),
(114,332,o),
(109,326,o),
(109,316,cs),
(107,141,o),
(75,-104,o),
(75,-159,cs),
(75,-192,o),
(92,-215,o),
(121,-215,cs)
);
},
{
pos = (14,511);
ref = period;
scale = (1,-1);
}
);
width = 237;
}
);
metricLeft = "=|exclam";
metricRight = "=|exclam";
unicode = 161;
},
{
glyphname = question;
lastChange = "2022-09-01 19:14:29 +0000";
layers = (
{
background = {
shapes = (
{
closed = 1;
nodes = (
(31,675,ls),
(31,602,o),
(35,591,o),
(53,591,cs),
(67,591,o),
(74,621,o),
(83,654,cs),
(93,685,o),
(106,718,o),
(132,718,cs),
(164,718,o),
(194,669,o),
(194,595,cs),
(194,528,o),
(153,464,o),
(87,382,cs),
(74,365,o),
(70,361,o),
(70,309,cs),
(70,251,o),
(71,216,o),
(74,196,cs),
(77,175,o),
(81,169,o),
(88,169,cs),
(98,169,o),
(100,173,o),
(100,245,cs),
(100,267,o),
(101,268,o),
(116,293,cs),
(139,331,o),
(162,360,o),
(181,387,cs),
(215,435,o),
(238,478,o),
(238,556,cs),
(238,675,o),
(174,750,o),
(104,750,cs),
(52,750,o),
(36,741,o),
(32,706,cs),
(31,697,o),
(31,687,o),
(31,677,cs)
);
},
{
closed = 1;
nodes = (
(87,-12,ls),
(112,-12,o),
(126,17,o),
(126,44,cs),
(126,71,o),
(112,99,o),
(87,99,cs),
(62,99,o),
(48,71,o),
(48,44,cs),
(48,17,o),
(62,-12,o),
(86,-12,cs)
);
}
);
};
guides = (
{
pos = (192,750);
}
);
layerId = m01;
shapes = (
{
closed = 1;
nodes = (
(132,179,o),
(137,184,o),
(137,195,cs),
(141,341,ls),
(142,375,o),
(146,386,o),
(160,400,cs),
(199,436,ls),
(256,490,o),
(285,535,o),
(285,611,cs),
(285,699,o),
(230,750,o),
(138,750,cs),
(108,750,o),
(63,740,o),
(42,723,cs),
(35,717,o),
(31,712,o),
(31,701,cs),
(28,580,ls),
(28,569,o),
(32,563,o),
(39,563,cs),
(46,563,o),
(49,567,o),
(52,577,cs),
(82,675,o),
(110,720,o),
(167,720,cs),
(200,720,o),
(228,696,o),
(228,630,cs),
(228,563,o),
(204,533,o),
(162,491,cs),
(138,467,ls),
(114,443,o),
(107,418,o),
(108,372,cs),
(112,195,ls),
(112,184,o),
(117,179,o),
(124,179,cs)
);
},
{
pos = (16,0);
ref = period;
}
);
width = 317;
}
);
unicode = 63;
},
{
glyphname = questiondown;
lastChange = "2022-09-01 19:11:10 +0000";
layers = (
{
layerId = m01;
shapes = (
{
closed = 1;
nodes = (
(209,-215,o),
(254,-205,o),
(275,-188,cs),
(282,-182,o),
(286,-177,o),
(286,-166,cs),
(289,-45,ls),
(289,-34,o),
(285,-28,o),
(278,-28,cs),
(271,-28,o),
(268,-32,o),
(265,-42,cs),
(235,-140,o),
(207,-185,o),
(150,-185,cs),
(117,-185,o),
(89,-161,o),
(89,-95,cs),
(89,-28,o),
(113,2,o),
(155,44,cs),
(179,68,ls),
(203,92,o),
(210,117,o),
(209,163,cs),
(205,316,ls),
(205,327,o),
(200,332,o),
(193,332,cs),
(185,332,o),
(180,327,o),
(180,316,cs),
(176,194,ls),
(175,160,o),
(171,149,o),
(157,135,cs),
(118,99,ls),
(61,45,o),
(32,0,o),
(32,-76,cs),
(32,-164,o),
(87,-215,o),
(179,-215,cs)
);
},
{
angle = 180;
pos = (301,511);
ref = period;
}
);
width = 317;
}
);
metricLeft = "=|question";
metricRight = "=|question";
unicode = 191;
},
{
glyphname = asterisk;
kernLeft = asterisk;
kernRight = asterisk;
lastChange = "2022-08-23 20:03:46 +0000";
layers = (
{
background = {
shapes = (
{
closed = 1;
nodes = (
(223,420,ls),
(245,420,o),
(261,432,o),
(261,454,cs),
(261,488,o),
(229,544,o),
(229,559,cs),
(229,563,o),
(231,569,o),
(238,569,cs),
(251,569,o),
(266,549,o),
(281,527,cs),
(297,507,o),
(316,486,o),
(337,486,cs),
(356,486,o),
(372,503,o),
(372,521,cs),
(372,551,o),
(339,560,o),
(306,564,cs),
(274,568,o),
(241,569,o),
(241,584,cs),
(241,600,o),
(274,600,o),
(306,604,cs),
(339,608,o),
(372,617,o),
(372,648,cs),
(372,666,o),
(356,683,o),
(337,683,cs),
(315,683,o),
(295,663,o),
(280,642,cs),
(265,621,o),
(251,600,o),
(238,600,cs),
(232,600,o),
(229,605,o),
(229,610,cs),
(229,625,o),
(261,681,o),
(261,713,cs),
(261,737,o),
(245,749,o),
(223,749,cs),
(201,749,o),
(185,737,o),
(185,714,cs),
(185,681,o),
(217,625,o),
(217,610,cs),
(217,606,o),
(215,600,o),
(208,600,cs),
(195,600,o),
(182,621,o),
(165,641,cs),
(149,663,o),
(131,683,o),
(109,683,cs),
(90,683,o),
(74,666,o),
(74,648,cs),
(74,617,o),
(107,609,o),
(140,605,cs),
(172,601,o),
(205,599,o),
(205,584,cs),
(205,569,o),
(172,568,o),
(140,564,cs),
(107,560,o),
(74,551,o),
(74,521,cs),
(74,503,o),
(90,486,o),
(109,486,cs),
(131,486,o),
(149,507,o),
(166,527,cs),
(182,549,o),
(195,569,o),
(208,569,cs),
(214,569,o),
(217,564,o),
(217,559,cs),
(217,544,o),
(185,488,o),
(185,456,cs),
(185,432,o),
(201,420,o),
(222,420,cs)
);
}
);
};
layerId = m01;
shapes = (
{
closed = 1;
nodes = (
(247,416,o),
(261,435,o),
(261,455,cs),
(261,486,o),
(236,507,o),
(230,558,cs),
(229,566,o),
(235,568,o),
(241,563,cs),
(281,530,o),
(288,500,o),
(314,485,cs),
(331,475,o),
(354,478,o),
(367,499,cs),
(379,521,o),
(370,543,o),
(353,553,cs),
(325,569,o),
(294,556,o),
(248,577,cs),
(240,580,o),
(240,586,o),
(248,589,cs),
(294,610,o),
(325,597,o),
(353,613,cs),
(370,623,o),
(379,645,o),
(367,667,cs),
(354,688,o),
(331,691,o),
(314,681,cs),
(286,665,o),
(281,633,o),
(240,602,cs),
(234,597,o),
(229,600,o),
(230,608,cs),
(236,659,o),
(261,680,o),
(261,711,cs),
(261,731,o),
(247,750,o),
(222,750,cs),
(197,750,o),
(183,731,o),
(183,711,cs),
(183,680,o),
(208,659,o),
(214,608,cs),
(215,600,o),
(210,597,o),
(204,602,cs),
(163,633,o),
(158,665,o),
(130,681,cs),
(113,691,o),
(90,688,o),
(77,667,cs),
(65,645,o),
(74,623,o),
(91,613,cs),
(119,597,o),
(150,610,o),
(196,589,cs),
(204,586,o),
(204,580,o),
(196,577,cs),
(150,556,o),
(119,569,o),
(91,553,cs),
(74,543,o),
(65,521,o),
(77,499,cs),
(90,478,o),
(113,475,o),
(130,485,cs),
(156,500,o),
(163,530,o),
(203,563,cs),
(209,568,o),
(215,566,o),
(214,558,cs),
(208,507,o),
(183,486,o),
(183,455,cs),
(183,435,o),
(197,416,o),
(222,416,cs)
);
}
);
width = 444;
}
);
unicode = 42;
},
{
glyphname = numbersign;
lastChange = "2022-08-11 18:45:18 +0000";
layers = (
{
background = {
shapes = (
{
closed = 1;
nodes = (
(106,0,l),
(138,0,l),
(304,720,l),
(272,720,l)
);
},
{
closed = 1;
nodes = (
(331,0,l),
(363,0,l),
(529,720,l),
(497,720,l)
);
},
{
closed = 1;
nodes = (
(73,460,l),
(615,460,l),
(615,490,l),
(73,490,l)
);
},
{
closed = 1;
nodes = (
(20,230,l),
(562,230,l),
(562,260,l),
(20,260,l)
);
}
);
};
layerId = m01;
shapes = (
{
closed = 1;
nodes = (
(138,0,l),
(187,213,ls),
(190,224,o),
(197,230,o),
(209,230,cs),
(367,230,ls),
(377,230,o),
(382,224,o),
(380,213,cs),
(331,0,l),
(363,0,l),
(412,213,ls),
(415,224,o),
(422,230,o),
(434,230,cs),
(562,230,l),
(562,260,l),
(440,260,ls),
(430,260,o),
(425,266,o),
(427,277,cs),
(465,442,ls),
(468,453,o),
(475,460,o),
(487,460,cs),
(615,460,l),
(615,490,l),
(493,490,ls),
(483,490,o),
(478,496,o),
(480,507,cs),
(529,720,l),
(497,720,l),
(448,507,ls),
(445,496,o),
(438,490,o),
(426,490,cs),
(268,490,ls),
(258,490,o),
(253,496,o),
(255,507,cs),
(304,720,l),
(272,720,l),
(223,507,ls),
(220,496,o),
(213,490,o),
(201,490,cs),
(73,490,l),
(73,460,l),
(195,460,ls),
(205,460,o),
(210,454,o),
(208,443,cs),
(170,278,ls),
(167,267,o),
(160,260,o),
(148,260,cs),
(20,260,l),
(20,230,l),
(142,230,ls),
(152,230,o),
(157,224,o),
(155,213,cs),
(106,0,l)
);
},
{
closed = 1;
nodes = (
(205,260,o),
(200,266,o),
(202,277,cs),
(240,442,ls),
(243,453,o),
(250,460,o),
(262,460,cs),
(420,460,ls),
(430,460,o),
(435,454,o),
(433,443,cs),
(395,278,ls),
(392,267,o),
(385,260,o),
(373,260,cs),
(215,260,ls)
);
}
);
width = 635;
}
);
unicode = 35;
},
{
glyphname = slash;
lastChange = "2022-08-11 18:55:19 +0000";
layers = (
{
layerId = m01;
shapes = (
{
closed = 1;
nodes = (
(30,-130,ls),
(36,-130,o),
(40,-126,o),
(41,-121,cs),
(248,779,ls),
(249,785,o),
(247,790,o),
(240,790,cs),
(228,790,ls),
(222,790,o),
(218,786,o),
(217,781,cs),
(10,-119,ls),
(9,-125,o),
(11,-130,o),
(18,-130,cs)
);
}
);
width = 258;
}
);
unicode = 47;
},
{
glyphname = backslash;
lastChange = "2022-08-11 18:57:07 +0000";
layers = (
{
layerId = m01;
shapes = (
{
closed = 1;
nodes = (
(240,-130,ls),
(247,-130,o),
(249,-125,o),
(248,-119,cs),
(41,781,ls),
(40,786,o),
(36,790,o),
(30,790,cs),
(18,790,ls),
(11,790,o),
(9,785,o),
(10,779,cs),
(217,-121,ls),
(218,-126,o),
(222,-130,o),
(228,-130,cs)
);
}
);
width = 258;
}
);
unicode = 92;
},
{
glyphname = hyphen;
kernLeft = hyphen;
kernRight = hyphen;
lastChange = "2022-08-31 19:46:08 +0000";
layers = (
{
layerId = m01;
shapes = (
{
closed = 1;
nodes = (
(338,259,ls),
(344,259,o),
(348,263,o),
(348,269,cs),
(348,283,ls),
(348,289,o),
(344,293,o),
(338,293,cs),
(92,293,ls),
(86,293,o),
(82,289,o),
(82,283,cs),
(82,269,ls),
(82,263,o),
(86,259,o),
(92,259,cs)
);
}
);
width = 430;
}
);
unicode = 45;
},
{
glyphname = endash;
kernLeft = hyphen;
kernRight = hyphen;
lastChange = "2022-08-23 20:03:55 +0000";
layers = (
{
layerId = m01;
shapes = (
{
closed = 1;
nodes = (
(418,259,ls),
(424,259,o),
(428,263,o),
(428,269,cs),
(428,283,ls),
(428,289,o),
(424,293,o),
(418,293,cs),
(92,293,ls),
(86,293,o),
(82,289,o),
(82,283,cs),
(82,269,ls),
(82,263,o),
(86,259,o),
(92,259,cs)
);
}
);
width = 510;
}
);
unicode = 8211;
},
{
glyphname = emdash;
kernLeft = hyphen;
kernRight = hyphen;
lastChange = "2022-08-23 20:03:55 +0000";
layers = (
{
layerId = m01;
shapes = (
{
closed = 1;
nodes = (
(628,259,ls),
(634,259,o),
(638,263,o),
(638,269,cs),
(638,283,ls),
(638,289,o),
(634,293,o),
(628,293,cs),
(92,293,ls),
(86,293,o),
(82,289,o),
(82,283,cs),
(82,269,ls),
(82,263,o),
(86,259,o),
(92,259,cs)
);
}
);
width = 720;
}
);
unicode = 8212;
},
{
glyphname = underscore;
lastChange = "2022-08-11 19:14:16 +0000";
layers = (
{
layerId = m01;
shapes = (
{
closed = 1;
nodes = (
(351,-109,ls),
(357,-109,o),
(361,-105,o),
(361,-99,cs),
(361,-85,ls),
(361,-79,o),
(357,-75,o),
(351,-75,cs),
(25,-75,ls),
(19,-75,o),
(15,-79,o),
(15,-85,cs),
(15,-99,ls),
(15,-105,o),
(19,-109,o),
(25,-109,cs)
);
}
);
width = 376;
}
);
unicode = 95;
},
{
glyphname = parenleft;
lastChange = "2022-09-01 21:01:08 +0000";
layers = (
{
background = {
shapes = (
{
closed = 1;
nodes = (
(70,321,ls),
(70,50,o),
(276,-113,o),
(301,-113,cs),
(306,-113,o),
(309,-110,o),
(309,-106,cs),
(309,-99,o),
(291,-87,o),
(281,-78,cs),
(171,21,o),
(138,173,o),
(138,321,cs),
(138,469,o),
(171,621,o),
(281,720,cs),
(291,729,o),
(309,741,o),
(309,748,cs),
(309,752,o),
(306,755,o),
(301,755,cs),
(276,755,o),
(70,592,o),
(70,322,cs)
);
}
);
};
layerId = m01;
shapes = (
{
closed = 1;
nodes = (
(299,-108,o),
(302,-104,o),
(302,-100,cs),
(302,-96,o),
(300,-93,o),
(296,-89,cs),
(186,10,o),
(138,159,o),
(138,322,cs),
(138,485,o),
(186,634,o),
(296,733,cs),
(300,737,o),
(302,740,o),
(302,744,cs),
(302,748,o),
(299,752,o),
(293,752,cs),
(290,752,o),
(287,751,o),
(284,749,cs),
(190,682,o),
(70,531,o),
(70,322,cs),
(70,113,o),
(190,-38,o),
(284,-105,cs),
(287,-107,o),
(290,-108,o),
(293,-108,cs)
);
}
);
width = 340;
}
);
unicode = 40;
},
{
glyphname = braceleft;
lastChange = "2022-09-01 21:01:41 +0000";
layers = (
{
background = {
shapes = (
{
closed = 1;
nodes = (
(120,51,ls),
(120,-65,o),
(169,-98,o),
(244,-98,cs),
(253,-98,o),
(258,-94,o),
(258,-87,cs),
(258,-79,o),
(252,-77,o),
(242,-77,cs),
(193,-77,o),
(178,-33,o),
(178,45,cs),
(178,184,ls),
(178,259,o),
(166,301,o),
(99,320,c),
(99,322,l),
(166,341,o),
(178,383,o),
(178,458,cs),
(178,597,ls),
(178,675,o),
(193,718,o),
(242,718,cs),
(252,718,o),
(258,721,o),
(258,729,cs),
(258,736,o),
(253,740,o),
(244,740,cs),
(169,740,o),
(120,707,o),
(120,591,cs),
(120,442,ls),
(120,387,o),
(112,345,o),
(74,338,cs),
(54,334,o),
(44,330,o),
(44,321,cs),
(44,312,o),
(55,308,o),
(74,304,cs),
(112,296,o),
(120,255,o),
(120,200,cs)
);
}
);
};
layerId = m01;
shapes = (
{
closed = 1;
nodes = (
(253,-96,o),
(258,-91,o),
(258,-84,cs),
(258,-77,o),
(253,-72,o),
(246,-72,cs),
(199,-72,o),
(178,-38,o),
(178,36,cs),
(178,178,ls),
(178,267,o),
(156,302,o),
(104,322,c),
(156,342,o),
(178,377,o),
(178,466,cs),
(178,608,ls),
(178,682,o),
(199,716,o),
(246,716,cs),
(253,716,o),
(258,721,o),
(258,728,cs),
(258,735,o),
(253,740,o),
(246,740,cs),
(164,740,o),
(120,696,o),
(120,604,cs),
(120,462,ls),
(120,368,o),
(99,334,o),
(52,334,cs),
(45,334,o),
(40,329,o),
(40,322,cs),
(40,315,o),
(45,310,o),
(52,310,cs),
(99,310,o),
(120,276,o),
(120,182,cs),
(120,40,ls),
(120,-52,o),
(164,-96,o),
(246,-96,cs)
);
}
);
width = 318;
}
);
unicode = 123;
},
{
glyphname = bracketleft;
lastChange = "2022-09-01 21:02:14 +0000";
layers = (
{
background = {
shapes = (
{
pos = (10,0);
ref = parenleft;
}
);
};
guides = (
{
pos = (156,-108);
}
);
layerId = m01;
shapes = (
{
closed = 1;
nodes = (
(251,-98,ls),
(260,-98,o),
(265,-93,o),
(265,-86,cs),
(265,-79,o),
(260,-74,o),
(251,-74,cs),
(156,-74,ls),
(149,-74,o),
(144,-69,o),
(144,-62,cs),
(144,704,ls),
(144,711,o),
(149,716,o),
(156,716,cs),
(251,716,ls),
(260,716,o),
(265,721,o),
(265,728,cs),
(265,735,o),
(260,740,o),
(251,740,cs),
(110,740,ls),
(95,740,o),
(86,731,o),
(86,716,cs),
(86,-74,ls),
(86,-89,o),
(95,-98,o),
(110,-98,cs)
);
}
);
width = 325;
}
);
unicode = 91;
},
{
glyphname = quoteleft;
kernLeft = quoteleft;
kernRight = quoteleft;
lastChange = "2022-08-23 20:04:24 +0000";
layers = (
{
layerId = m01;
shapes = (
{
closed = 1;
nodes = (
(148,562,o),
(166,582,o),
(166,606,cs),
(166,653,o),
(114,644,o),
(114,692,cs),
(114,715,o),
(122,730,o),
(167,769,cs),
(176,776,o),
(175,784,o),
(170,788,cs),
(165,792,o),
(159,790,o),
(151,784,cs),
(89,740,o),
(64,690,o),
(64,629,cs),
(64,588,o),
(85,562,o),
(118,562,cs)
);
}
);
width = 246;
}
);
metricLeft = "=|quoteright";
metricRight = "=|quoteright";
unicode = 8216;
},
{
glyphname = quoteright;
kernLeft = quoteright;
kernRight = quoteright;
lastChange = "2022-09-19 13:28:36 +0000";
layers = (
{
layerId = m01;
shapes = (
{
closed = 1;
nodes = (
(117,552,o),
(142,602,o),
(142,663,cs),
(142,704,o),
(121,730,o),
(88,730,cs),
(58,730,o),
(40,710,o),
(40,686,cs),
(40,639,o),
(92,648,o),
(92,600,cs),
(92,583,o),
(84,562,o),
(39,523,cs),
(30,516,o),
(31,508,o),
(36,504,cs),
(41,500,o),
(47,502,o),
(55,508,cs)
);
}
);
width = 166;
}
);
unicode = 8217;
},
{
glyphname = guilsinglleft;
kernLeft = guilleft;
kernRight = guilleft;
lastChange = "2022-08-23 20:04:35 +0000";
layers = (
{
layerId = m01;
shapes = (
{
closed = 1;
nodes = (
(169,81,o),
(174,78,o),
(180,78,cs),
(190,78,o),
(192,87,o),
(189,93,cs),
(120,242,ls),
(117,248,o),
(117,254,o),
(120,260,cs),
(189,409,ls),
(192,415,o),
(190,424,o),
(180,424,cs),
(174,424,o),
(169,421,o),
(161,409,cs),
(60,268,ls),
(52,256,o),
(52,246,o),
(60,234,cs),
(161,93,ls)
);
}
);
width = 262;
}
);
unicode = 8249;
},
{
glyphname = guilsinglright;
kernLeft = guilright;
kernRight = guilright;
lastChange = "2022-08-23 20:04:44 +0000";
layers = (
{
background = {
shapes = (
{
closed = 1;
nodes = (
(108,78,l),
(232,251,l),
(108,424,l),
(84,424,l),
(162,251,l),
(84,78,l)
);
}
);
};
layerId = m01;
shapes = (
{
pos = (262,0);
ref = guilsinglleft;
scale = (-1,1);
}
);
width = 262;
}
);
metricLeft = "=|guilsinglleft";
metricRight = "=|guilsinglleft";
unicode = 8250;
},
{
glyphname = quotesingle;
kernLeft = quotesingle;
kernRight = quotesingle;
lastChange = "2022-09-01 20:16:30 +0000";
layers = (
{
background = {
shapes = (
{
pos = (-14,0);
ref = quoteright;
}
);
};
layerId = m01;
shapes = (
{
closed = 1;
nodes = (
(124,489,o),
(128,495,o),
(128,506,cs),
(131,598,o),
(161,643,o),
(161,681,cs),
(161,709,o),
(146,731,o),
(116,731,cs),
(87,731,o),
(72,709,o),
(72,681,cs),
(72,643,o),
(101,598,o),
(104,506,cs),
(104,495,o),
(109,489,o),
(116,489,cs)
);
}
);
width = 233;
}
);
unicode = 39;
},
{
glyphname = at;
kernLeft = o;
kernRight = o;
lastChange = "2022-08-23 20:05:05 +0000";
layers = (
{
layerId = m01;
shapes = (
{
closed = 1;
nodes = (
(419,-81,o),
(481,-62,o),
(527,-26,cs),
(536,-19,o),
(537,-12,o),
(532,-4,cs),
(527,3,o),
(518,3,o),
(507,-6,cs),
(466,-36,o),
(411,-52,o),
(346,-52,cs),
(190,-52,o),
(106,42,o),
(106,215,cs),
(106,414,o),
(219,553,o),
(380,553,cs),
(504,553,o),
(581,464,o),
(581,322,cs),
(581,206,o),
(518,94,o),
(452,94,cs),
(424,94,o),
(416,122,o),
(429,177,cs),
(484,413,ls),
(487,425,o),
(483,433,o),
(474,433,cs),
(467,433,o),
(460,427,o),
(456,416,cs),
(454,411,o),
(451,409,o),
(448,409,cs),
(444,409,o),
(442,411,o),
(439,416,cs),
(430,430,o),
(413,438,o),
(393,438,cs),
(301,438,o),
(196,285,o),
(196,151,cs),
(196,94,o),
(215,63,o),
(250,63,cs),
(291,63,o),
(334,105,o),
(382,192,cs),
(385,198,o),
(391,197,o),
(389,190,cs),
(388,186,o),
(387,182,o),
(386,178,cs),
(368,107,o),
(390,63,o),
(442,63,cs),
(535,63,o),
(620,185,o),
(620,319,cs),
(620,475,o),
(525,580,o),
(384,580,cs),
(201,580,o),
(40,411,o),
(40,218,cs),
(40,45,o),
(152,-81,o),
(348,-81,cs)
);
},
{
closed = 1;
nodes = (
(254,100,o),
(248,112,o),
(248,143,cs),
(248,258,o),
(328,411,o),
(389,411,cs),
(408,411,o),
(419,396,o),
(419,369,cs),
(419,278,o),
(319,100,o),
(268,100,cs)
);
}
);
width = 660;
}
);
metricLeft = O;
metricRight = O;
unicode = 64;
},
{
glyphname = ampersand;
lastChange = "2022-08-27 16:49:40 +0000";
layers = (
{
background = {
shapes = (
{
closed = 1;
nodes = (
(507,367,o),
(533,382,o),
(562,385,cs),
(581,387,ls),
(591,388,o),
(594,393,o),
(594,399,cs),
(594,406,o),
(589,410,o),
(580,410,cs),
(405,410,ls),
(396,410,o),
(391,406,o),
(391,400,cs),
(391,393,o),
(395,389,o),
(404,388,cs),
(439,383,ls),
(466,379,o),
(473,361,o),
(460,322,cs),
(386,101,o),
(302,38,o),
(219,38,cs),
(136,38,o),
(98,105,o),
(98,188,cs),
(98,271,o),
(128,339,o),
(192,384,cs),
(200,390,o),
(207,387,o),
(212,380,cs),
(380,115,l),
(443,16,ls),
(450,5,o),
(459,0,o),
(472,0,cs),
(574,0,ls),
(583,0,o),
(588,4,o),
(588,11,cs),
(588,18,o),
(584,22,o),
(576,23,cs),
(532,27,ls),
(516,28,o),
(508,39,o),
(495,59,cs),
(272,418,ls),
(267,426,o),
(269,432,o),
(277,437,cs),
(371,486,o),
(412,541,o),
(412,609,cs),
(412,666,o),
(366,733,o),
(282,733,cs),
(187,733,o),
(124,667,o),
(124,586,cs),
(124,534,o),
(144,490,o),
(183,426,cs),
(188,418,o),
(187,412,o),
(179,407,cs),
(91,352,o),
(32,268,o),
(32,168,cs),
(32,73,o),
(95,-9,o),
(206,-9,cs),
(309,-9,o),
(406,74,o),
(489,315,cs)
);
},
{
closed = 1;
nodes = (
(254,453,o),
(247,455,o),
(243,463,c),
(200,531,o),
(187,563,o),
(187,607,cs),
(187,656,o),
(222,706,o),
(277,706,cs),
(338,706,o),
(353,653,o),
(353,605,cs),
(353,553,o),
(323,495,o),
(262,458,cs)
);
}
);
};
guides = (
{
angle = 121.4641;
pos = (434,159);
},
{
angle = -57.6671;
pos = (272,286);
},
{
pos = (640,388);
}
);
layerId = m01;
shapes = (
{
closed = 1;
nodes = (
(265,-9,o),
(323,18,o),
(378,89,cs),
(384,97,o),
(391,97,o),
(397,88,cs),
(443,16,ls),
(450,5,o),
(459,0,o),
(472,0,cs),
(574,0,ls),
(583,0,o),
(588,4,o),
(588,11,cs),
(588,18,o),
(584,22,o),
(576,23,cs),
(532,27,ls),
(516,28,o),
(508,39,o),
(495,59,cs),
(437,152,ls),
(430,164,o),
(430,173,o),
(436,185,cs),
(454,222,o),
(473,266,o),
(485,295,cs),
(506,345,o),
(533,360,o),
(562,363,cs),
(581,365,ls),
(591,366,o),
(594,371,o),
(594,377,cs),
(594,384,o),
(589,388,o),
(580,388,cs),
(405,388,ls),
(396,388,o),
(391,384,o),
(391,378,cs),
(391,371,o),
(395,367,o),
(404,366,cs),
(439,361,ls),
(466,357,o),
(471,340,o),
(456,302,cs),
(448,282,o),
(433,246,o),
(418,215,cs),
(413,205,o),
(405,205,o),
(399,214,cs),
(272,418,ls),
(267,426,o),
(269,432,o),
(277,437,cs),
(371,486,o),
(412,541,o),
(412,609,cs),
(412,666,o),
(366,733,o),
(282,733,cs),
(187,733,o),
(124,667,o),
(124,586,cs),
(124,534,o),
(144,490,o),
(183,426,cs),
(188,418,o),
(187,412,o),
(179,407,cs),
(91,352,o),
(32,268,o),
(32,168,cs),
(32,73,o),
(95,-9,o),
(206,-9,cs)
);
},
{
closed = 1;
nodes = (
(136,38,o),
(98,105,o),
(98,188,cs),
(98,271,o),
(128,339,o),
(192,384,cs),
(200,390,o),
(207,387,o),
(212,380,cs),
(359,148,ls),
(366,136,o),
(366,126,o),
(358,114,cs),
(312,58,o),
(266,38,o),
(219,38,cs)
);
},
{
closed = 1;
nodes = (
(254,453,o),
(247,455,o),
(243,463,c),
(200,531,o),
(187,563,o),
(187,607,cs),
(187,656,o),
(222,706,o),
(277,706,cs),
(338,706,o),
(353,653,o),
(353,605,cs),
(353,553,o),
(323,495,o),
(262,458,cs)
);
}
);
width = 579;
}
);
unicode = 38;
},
{
glyphname = paragraph;
lastChange = "2022-08-13 19:12:03 +0000";
layers = (
{
layerId = m01;
shapes = (
{
closed = 1;
nodes = (
(287,-130,ls),
(296,-130,o),
(301,-125,o),
(301,-116,cs),
(301,666,ls),
(301,681,o),
(310,690,o),
(325,690,cs),
(348,690,ls),
(363,690,o),
(372,681,o),
(372,666,cs),
(372,-116,ls),
(372,-125,o),
(377,-130,o),
(386,-130,cs),
(413,-130,ls),
(422,-130,o),
(427,-125,o),
(427,-116,cs),
(427,654,ls),
(427,682,o),
(433,688,o),
(461,693,cs),
(484,697,ls),
(493,699,o),
(497,702,o),
(497,709,cs),
(497,716,o),
(492,720,o),
(482,720,cs),
(223,720,ls),
(105,720,o),
(24,638,o),
(24,520,cs),
(24,406,o),
(105,326,o),
(220,326,cs),
(232,326,ls),
(241,326,o),
(246,321,o),
(246,312,cs),
(246,-116,ls),
(246,-125,o),
(251,-130,o),
(260,-130,cs)
);
}
);
width = 516;
}
);
metricLeft = "=|P";
metricRight = "=|P";
unicode = 182;
},
